<svg width="263" height="344" viewBox="0 0 263 344" fill="none" xmlns="http://www.w3.org/2000/svg">
<g clip-path="url(#clip0_66_2)">
<path d="M-122 -52H390V460H-122V-52Z" fill="#FEFEFE"/>
<path d="M139.06 118.079C139.616 117.758 140.078 117.445 140.736 117.401C141.099 117.81 141.069 117.902 141.046 118.436C141.019 119.069 140.688 119.522 140.217 119.911C139.047 120.878 138.157 120.742 137.942 122.458C137.756 123.94 137.85 125.496 137.875 126.988C137.437 124.934 137.185 122.812 136.836 120.739C137.444 120.694 138.114 120.688 138.697 120.501C139.259 120.321 139.288 120.218 139.561 119.73C139.489 119.078 139.33 118.665 139.06 118.079Z" fill="#F8F8F5"/>
<path d="M30.7852 340.568C31.3157 340.499 31.9217 340.387 32.4482 340.521C33.2862 340.734 33.7617 341.294 34.2482 341.954C34.7382 342.62 35.2427 343.222 35.8037 343.829C36.2217 343.541 36.2352 343.586 36.7097 343.555L37.0577 343.905C37.0332 343.998 36.9967 344.089 36.9832 344.185C36.7352 345.945 39.3182 351.677 40.4377 353.017C40.0887 353.361 39.7157 353.679 39.3487 354.004C38.5247 353.957 38.4367 353.276 38.2077 352.567C36.2282 346.437 35.9497 344.667 30.7852 340.568Z" fill="#6D3A22"/>
<path d="M163.605 318.669C164.104 321.508 164.68 324.257 165.303 327.068C164.976 329.113 166.32 344.156 166.737 346.929C166.957 348.398 167.876 349.846 167.951 351.285C167.988 352.001 167.852 352.205 167.351 352.683L166.865 352.806C165.264 351.559 164.821 344.468 164.372 342.265C163.941 339.66 163.997 337.016 163.854 334.385C163.564 329.058 163.128 324.03 163.605 318.669Z" fill="#6D3A22"/>
<path d="M251.356 319.204C251.579 319.242 251.431 319.199 251.737 319.465C250.938 321.088 248.577 322.319 247.21 323.598C243.546 327.027 235.751 337.018 235.671 342.055C235.659 342.787 235.677 343.584 235.572 344.308C235.476 344.964 235.305 345.238 234.784 345.616C234.041 345.533 233.77 345.276 233.208 344.824C232.926 343.334 235.375 336.857 235.591 334.247C234.291 336.106 233.203 338.034 232.465 340.189C231.94 341.725 231.686 344.015 230.767 345.308C230.473 344.876 230.659 344.994 230.278 344.864C229.964 345.413 229.714 345.928 229.193 346.312L228.84 346.034C228.721 345.408 228.633 344.86 228.806 344.233C229.03 343.421 229.702 342.658 230.009 341.821C230.751 339.802 231.123 337.528 231.761 335.449C232.401 332.998 233.388 330.615 234.933 328.59C235.358 328.033 236.124 326.93 236.793 326.838C236.376 329.418 233.682 333.591 232.666 336.429C234.355 334.187 239.711 326.753 242.023 325.846C242.285 326.262 242.151 326.44 241.884 326.877C241.477 327.545 240.754 328.218 240.232 328.815C238.007 331.363 236.599 333.253 235.871 336.624C237.229 334.587 238.394 332.423 239.789 330.406C242.655 326.262 246.917 321.625 251.356 319.204Z" fill="#6D3A22"/>
<path d="M43.279 349.514C42.5965 349.795 42.424 349.897 41.704 349.804C40.2765 348.496 38.032 336.025 36.918 333.043C33.619 324.211 29.456 313.223 21.502 307.539C19.9415 306.424 18.312 305.769 16.584 304.974C16.716 304.341 16.6775 304.498 17.158 304.175C17.9255 304.167 18.462 304.342 19.156 304.672C28.445 309.093 38.524 322.253 41.951 331.648C43.045 334.647 46.3935 347.026 45.1345 349.715L44.651 349.867L43.8585 349.241C43.2115 343.273 42.274 339.072 40.4565 333.358C39.926 331.691 39.143 330.093 38.664 328.416L38.5395 327.97C37.76 327.848 36.81 327.569 36.055 327.79C37.778 331.963 38.9295 336.271 40.1785 340.603C40.993 343.427 41.713 347.012 43.279 349.514Z" fill="#6D3A22"/>
<path d="M36.0537 327.79C34.3882 324.112 32.6072 320.43 30.7392 316.85C30.3487 316.102 28.5272 313.723 28.5977 313.117L28.9712 313.089C30.4002 314.495 37.8647 325.952 38.5382 327.97C37.7587 327.848 36.8087 327.569 36.0537 327.79Z" fill="#F8F8F5"/>
<path d="M48.8567 319.519C49.3697 319.413 49.1542 319.538 49.4997 319.136C49.5177 316.503 48.6617 313.566 48.3127 310.925C47.1742 302.314 46.3022 295.089 42.2922 287.175C41.5167 285.644 40.5137 284.255 39.6897 282.755C38.4397 280.479 37.4602 278.297 36.0597 276.085C35.7177 275.545 35.5027 275.177 35.6597 274.543L36.1892 274.512C36.7262 274.825 37.1372 275.145 37.5572 275.608C39.1922 277.408 40.4402 279.605 41.7382 281.65C43.4872 284.406 45.4267 287.139 46.8832 290.063C49.7647 295.848 53.0107 307.547 52.7312 313.978C53.4217 317.783 53.5787 321.699 53.4912 325.561L53.7947 325.791C53.7007 328.638 54.6272 331.543 54.7517 334.414C54.8617 334.991 54.9282 335.931 55.1862 336.435C55.3762 340.026 55.2852 343.598 55.7812 347.167C55.9247 348.003 56.2937 349.271 55.7952 350.007C55.5652 350.346 55.3922 350.503 55.0117 350.611C54.4742 350.287 54.2362 350.138 54.0202 349.5C53.9497 349.293 53.9317 348.988 53.9112 348.766C53.5227 344.875 52.6357 341.051 52.3147 337.15C51.892 333.939 51.5257 330.721 51.2157 327.496C50.6467 324.827 50.1932 321.93 48.8567 319.519Z" fill="#6D3A22"/>
<path d="M53.2279 325.605C51.5169 323.587 49.8424 309.219 49.1529 305.825C48.8599 304.385 48.0509 302.979 47.5064 301.614C47.5999 301.483 47.7399 301.297 47.8079 301.157C48.8994 298.922 40.9764 283.455 39.8809 280.237C42.0219 284.363 44.8639 287.953 46.6319 292.321C48.3669 296.61 49.7239 301.404 50.6419 305.937C51.1504 308.449 51.3799 311.058 52.1684 313.502C52.2009 313.603 52.2364 313.702 52.2704 313.802C52.1824 317.767 52.5809 321.697 53.2279 325.605Z" fill="#FEFEFE"/>
<path d="M48.1814 324.694C48.2704 328.559 52.2334 347.583 51.9309 348.547C51.9004 348.645 51.8439 348.732 51.8004 348.825L52.017 348.399L51.5624 348.73C50.9809 348.2 50.7039 347.338 50.5099 346.591C50.0649 344.878 50.0515 343.015 49.821 341.259C49.4965 338.783 48.9364 336.089 48.3879 333.643L48.1449 333.516C48.1029 337.355 50.3514 346.345 49.1209 349.445C48.9714 349.821 48.8024 349.801 48.4639 349.956L48.0089 349.777C47.2834 348.783 47.2004 346.622 46.9019 345.366C46.6119 344.146 46.09 342.986 45.793 341.759L41.6389 324.239C40.9939 321.619 40.5794 318.935 39.8784 316.334C38.6419 311.748 36.8904 306.864 35.1449 302.436C34.5194 300.85 33.1555 298.967 32.8145 297.38C33.0815 297.177 33.143 297.002 33.506 297.094C34.5445 297.356 35.4729 298.509 36.1609 299.293C39.0924 302.634 41.2694 306.359 43.1024 310.397C43.8324 312.005 44.3419 313.658 45.1864 315.217L45.3465 315.506L46.3484 315.247C47.8859 316.302 47.1754 318.057 48.3754 319.199C47.7554 320.308 47.3984 321.429 47.7399 322.692C47.7794 322.838 47.8225 322.982 47.864 323.128C47.9285 323.64 47.9224 324.245 48.1814 324.694Z" fill="#6D3A22"/>
<path d="M36.4551 302.198C37.6891 303.384 38.7911 305.255 39.6886 306.723C42.5811 311.453 44.3861 319.531 45.2826 325.005C45.4841 326.235 45.4831 327.492 45.7011 328.714C46.0446 330.641 46.9736 332.856 46.4926 334.835C45.5586 331.264 44.8156 327.342 43.2741 323.978C42.1961 321.626 42.3256 318.579 41.5496 316.04C40.8931 313.892 39.7586 311.849 38.9021 309.772C37.8941 307.328 37.1996 304.733 36.4551 302.198Z" fill="#FEFEFE"/>
<path d="M146.751 326.143C146.989 324.365 147.973 313.929 148.626 313.134C148.687 313.174 148.754 313.206 148.808 313.255C149.13 313.548 149.262 313.952 149.387 314.358C149.971 316.26 150.058 318.337 150.53 320.275C151.502 324.268 152.858 328.129 153.527 332.217C153.857 334.233 153.79 336.294 154.04 338.325C155.136 333.799 153.071 326.338 152.263 321.679C151.43 316.884 147.671 295.59 149.103 292.125L149.58 292.122L149.78 291.839C149.832 286.259 146.766 264.691 144.89 260.076C144.647 259.48 144.489 258.989 144.38 258.355L144.643 258.05L145.257 258.222C146.608 259.418 147.488 261.65 148.047 263.346C149.638 268.172 150.434 273.37 151.396 278.356C152.22 282.633 153.169 286.916 153.841 291.219C154.655 296.438 155.021 301.802 156.168 306.963L156.221 307.193C156.138 310.049 156.251 313.027 156.697 315.85L156.856 315.807C157.113 312.336 157.633 309.096 158.515 305.732C160.056 301.829 160.421 295.603 160.623 291.379C160.693 289.932 160.567 288.45 160.763 287.017L161.075 286.822L161.526 287.083C163.189 289.938 159.242 308.57 158.807 312.972C158.5 316.089 158.697 333.781 160.273 335.695C160.711 334.815 160.177 326.662 160.328 324.697C160.982 316.178 163.606 307.819 164.001 299.342C164.747 298.806 165.54 298.331 166.316 297.839C165.505 291.547 165.078 285.21 163.712 278.998C163.018 275.837 160.974 272.662 161.248 269.383C164.681 273.93 166.182 287.381 167.108 293.256C167.448 295.416 167.96 297.577 168.162 299.754C168.895 304.952 169.325 310.228 169.866 315.451C170.124 317.934 170.182 320.686 170.842 323.091C171.349 319.804 170.603 316.256 170.354 312.956C169.978 307.95 169.872 302.959 168.943 298.01C168.027 291.382 166.987 284.693 165.062 278.276C164.494 276.382 163.134 270.147 161.334 269.178C160.873 268.33 160.176 267.368 160.199 266.38L160.621 266.147C161.517 266.414 161.808 267.039 162.242 267.84C167.729 277.978 170.557 298.67 171.871 310.388C172.266 313.912 172.344 317.521 172.694 321.072C173.062 324.807 172.566 329.262 173.683 332.824C174.752 330.855 173.375 326.664 173.238 324.525C173.135 322.924 173.55 321.136 173.683 319.518C173.824 317.821 173.789 316.101 173.796 314.399C173.819 308.829 173.175 303.186 172.679 297.637C172.496 295.588 172.105 293.424 172.136 291.375C172.144 290.84 172.225 290.499 172.526 290.042C172.992 290.518 173.047 291.282 173.129 291.935C173.556 295.321 173.638 298.785 174.001 302.189C174.236 304.39 174.866 306.934 174.867 309.109C174.869 310.97 174.554 312.589 174.73 314.504C174.799 316.158 174.594 318.992 175.347 320.447C175.692 320.489 175.911 320.466 176.25 320.417C176.428 319.508 176.941 317.523 176.729 316.662C176.578 316.05 176.369 316.266 176.493 315.505C176.561 315.447 176.637 315.397 176.696 315.329C178.212 313.589 181.144 294.882 182.406 293.48C182.685 293.776 182.635 293.613 182.627 293.982C182.567 296.833 181.575 299.513 181.208 302.317C181.111 303.063 181.253 305.455 180.876 305.908C180.805 305.993 180.424 306.282 180.325 306.358C178.503 312.252 178.482 318.299 177.763 324.346C177.629 327.322 177.33 330.425 177.636 333.392C178.382 330.47 178.759 327.472 179.054 324.475C181.613 307.369 184.887 283.106 196.257 269.526L196.755 269.32C197.035 269.595 197.097 269.519 197.062 269.862C197.013 270.34 196.783 270.598 196.538 270.999C192.297 277.938 190.597 293.947 189.627 302.333C189.398 304.309 188.817 306.504 188.925 308.476L189.206 308.727C189.785 308.496 190.346 308.25 190.911 307.986C191.628 308.603 191.111 309.42 191.655 310.006C192.164 309.295 192.415 308.417 192.712 307.6L192.928 307.579C193.068 310.521 192.124 313.25 191.778 316.132C191.302 320.109 191.714 324.537 192.192 328.511C192.925 324.25 193.848 319.952 194.421 315.672C194.828 312.635 194.88 309.562 195.236 306.522C195.353 305.525 196.262 302.558 195.842 301.898L195.173 302.391C195.822 299.135 199.545 280.502 201.372 279.141C201.428 279.099 201.496 279.075 201.559 279.042L201.67 279.282C201.707 279.362 201.765 279.435 201.781 279.522C202.021 280.805 200.208 287.193 199.887 288.916C199.418 291.434 198.863 293.993 198.646 296.544C198.277 300.873 198.445 305.159 197.499 309.424C197.477 309.523 197.462 309.624 197.443 309.724C199.62 304.639 202.148 299.736 205.025 295.013L205.029 295.362C205.047 298.721 203.437 305.406 204.701 308.234C205.112 308.493 205.154 308.661 205.648 308.555L205.763 307.024L206.116 306.889C208.122 308.009 211.103 314.966 211.748 317.231C211.938 317.886 212.12 318.542 212.295 319.201C212.23 313.43 213.257 292.703 216.193 289.01L216.626 289.052C217.224 287.091 217.562 281.316 218.9 280.189L219.173 280.319C219.309 283.089 218.47 285.465 217.924 288.113C217.514 290.101 217.256 292.145 217.02 294.162C216.172 301.39 215.978 308.825 215.833 316.098C215.793 318.138 215.592 320.197 215.617 322.235C216.508 319.756 216.908 317.101 217.854 314.665C219.856 309.512 223.1 304.728 223.9 299.15C224.186 297.155 224.148 295.041 224.223 293.027C224.307 290.75 224.235 285.133 226.251 283.717L226.665 283.715C226.907 285.498 226.345 287.298 226.448 289.101L227.42 303.8C227.493 304.898 228.074 305.991 228.053 307.052C227.978 310.872 227.242 312.562 227.698 316.829L227.967 316.484C230.254 313.513 231.756 310.039 233.959 307.012C235.22 305.278 236.866 303.942 238.289 302.357C239.302 301.229 240.072 299.715 241.63 299.257L241.783 299.471C240.654 303.226 237.466 306.585 235.651 310.082C232.975 315.236 231.716 320.652 230.043 326.149C229.167 329.028 228.054 331.846 227.504 334.81L227.435 335.169C227.422 335.24 227.41 335.312 227.398 335.384C229.692 332.208 234.511 315.426 237.265 314.674C237.346 314.652 237.431 314.652 237.513 314.641C237.766 315.101 237.745 315.153 237.596 315.646C236.939 317.829 235.269 319.983 234.312 322.08C231.542 328.144 228.976 334.922 227.712 341.471C227.624 341.931 227.67 342.452 227.275 342.722C226.282 341.692 226.607 337.708 226.582 336.221C226.289 337.338 225.868 338.606 225.872 339.765C225.877 341.285 226.66 343.799 226.151 345.155C225.599 345.172 225.379 345.052 225.009 344.65C224.663 344.274 224.368 343.825 224.07 343.41C223.981 345.779 224.277 349.678 223.282 351.792L222.832 352.157C222.152 352.049 222.09 351.934 221.579 351.456C221.485 350.84 221.411 349.713 221.826 349.188C222.093 348.851 222.33 348.751 222.709 348.577C222.86 348.062 222.981 347.897 222.854 347.363C221.943 347.537 222.409 348.257 221.437 348.114C221.56 344.101 221.991 340.301 222.899 336.386C223.563 332.39 223.69 328.191 223.989 324.146C224.179 321.575 224.563 318.932 224.573 316.363C224.587 312.862 224.204 309.371 224.231 305.862C223.678 307.047 223.252 308.155 223.044 309.458C222.364 313.722 222.423 318.204 222.18 322.52C221.921 327.147 221.353 332.472 221.491 337.034C221.243 339.442 220.665 341.749 220.347 344.136L220.079 344.245C219.321 342.898 219.278 341.407 219.598 339.925C219.799 338.998 219.822 337.374 219.503 336.476C218.866 338.859 218.329 344.212 219.439 346.429C219.58 347.224 219.705 347.5 219.403 348.265L219.035 348.341C218.809 348.21 218.783 348.215 218.584 347.985C217.901 347.191 217.623 345.28 217.566 344.274C217.464 342.448 217.83 340.508 217.978 338.681C218.444 332.941 219.29 327.088 219.187 321.332C218.219 325.726 216.369 329.806 215.584 334.277C214.948 337.899 215.549 346.871 214.157 349.583C213.875 350.133 213.753 350.185 213.21 350.337L212.741 349.734L212.915 350.212C211.138 348.424 210.968 340.936 211.015 338.438C211.045 336.812 211.341 335.209 211.187 333.583L210.915 333.382C209.414 335.321 209.364 339.576 208.781 341.953C208.389 343.551 207.836 345.055 207.222 346.579C206.866 343.639 206.286 340.65 206.243 337.688C206.209 335.281 206.665 332.824 206.78 330.415C206.964 326.586 206.972 314.411 206.066 310.922C205.904 310.298 205.851 310.229 205.331 309.906C204.981 309.957 204.794 309.879 204.587 310.21C203.954 311.222 204.278 319.873 204.202 321.681C204.06 325.087 203.554 328.499 203.59 331.909C203.614 334.229 203.902 336.516 204.31 338.798C204.907 342.141 207.227 346.793 207.419 349.353C207.465 349.966 207.455 350.243 207.033 350.717L206.598 350.613C204.961 348.671 204.769 345.51 203.627 343.207L203.449 342.853C203.503 344.688 204.193 347.645 203.02 349.124C201.626 348.465 202.353 342 201.467 340.377L201.177 340.454C201.118 340.559 201.042 340.656 201.001 340.769C200.729 341.519 200.268 342.533 200.187 343.318C200.052 344.622 200.366 346.166 199.807 347.371L199.282 347.525C199.044 347.432 198.897 347.393 198.688 347.211C196.233 345.086 196.558 340.651 195.958 337.757L195.787 337.776C195.306 339.743 195.786 341.962 194.958 343.788C194.31 345.219 195.809 346.896 195.953 348.405C196.026 349.171 195.752 349.605 195.288 350.175C194.946 350.304 195.136 350.29 194.719 350.132C192.361 347.474 194.272 331.582 193.872 326.963L193.833 326.543C192.667 333.486 192.153 336.822 192.739 343.843C192.827 344.898 192.989 345.788 192.266 346.639L191.708 346.612C190.279 345.137 190.95 340.201 190.444 337.95C190.423 337.858 190.4 337.766 190.379 337.674C189.763 340.212 189.75 347.775 188.993 349.157C188.348 348.993 188.053 348.737 187.632 348.228C187.129 347.62 187.154 346.963 187.134 346.213C186.991 340.891 187.656 335.673 187.86 330.376C188.116 323.743 187.965 317.109 188.238 310.482C185.729 318.187 186.487 324.466 186.176 332.262C186.093 334.353 185.577 336.42 185.596 338.512C185.621 341.2 186.229 343.919 185.987 346.6L185.702 346.82C185.31 346.498 184.987 346.245 184.538 346.002C184.234 348.489 185.308 351.221 184.56 353.655C183.917 353.694 183.915 353.68 183.386 353.31C181.412 349.927 182.707 340.493 182.946 336.491C183.082 334.233 182.845 331.951 182.906 329.685C183.005 325.972 183.39 322.118 183.73 318.416C184.157 313.766 185.437 309.026 186.283 304.426C187.119 299.884 187.63 295.264 188.688 290.766C189.913 285.557 192.727 281.19 193.266 275.235C191.934 278.048 190.704 280.905 189.575 283.805C188.446 286.705 187.422 289.642 186.502 292.616C185.582 295.589 184.769 298.591 184.062 301.622C183.355 304.653 182.757 307.705 182.267 310.779C181.482 315.762 181.134 320.838 180.66 325.859C180.334 329.324 179.652 332.847 179.581 336.318C179.484 341.056 180.677 345.918 180.502 350.537C180.472 351.321 180.352 351.741 179.767 352.262L179.104 352.209C178.535 351.836 178.17 351.712 177.996 351.003C177.838 350.357 178.039 349.549 177.914 348.858C177.374 345.874 175.596 339.066 174.272 336.363L174.105 336.03C174.813 339.171 177.379 349.669 176.741 352.341L176.378 352.55C175.554 352.198 174.936 351.289 174.663 350.447C173.315 346.29 173.625 340.007 171.664 335.872C171.63 335.8 171.592 335.729 171.556 335.658C171.737 338.138 172.528 340.497 172.621 342.982C172.683 344.663 172.893 346.457 171.676 347.771L171.427 347.754C170.168 345.674 169.673 327.691 169.36 323.873C169.111 320.843 168.692 317.827 168.41 314.799C167.928 309.629 167.71 304.103 166.353 299.089C166.183 300.26 165.761 301.383 165.612 302.569C165.085 306.761 165.085 312.128 166.017 316.266C166.226 317.195 166.676 318.048 166.891 318.957C167.192 320.228 166.978 321.944 167.15 323.302C168.005 330.055 168.649 336.825 169.482 343.579C169.711 345.437 171.35 352.01 170.599 353.432C167.745 351.32 167.481 331.737 165.953 326.958C165.929 326.884 165.903 326.81 165.878 326.737L163.734 309.77C162.863 318.003 161.979 326.917 162.042 335.173C162.061 337.609 162.437 339.993 162.543 342.409C162.937 346.869 165.202 352.023 165.049 356.227L164.814 356.34C163.807 355.199 163.293 353.462 162.86 352.02C162.308 350.18 161.627 348.226 161.402 346.314C161.016 343.035 161.273 339.508 160.593 336.298L160.268 336.257C159.627 338.875 160.441 345.059 160.933 347.861C161.063 348.605 161.17 349.089 160.723 349.718C158.439 349.007 157.792 333.491 157.531 330.979C157.067 326.523 156.021 322.153 155.505 317.703C154.844 312.001 153.928 290.269 151.902 286.808C151.462 286.708 151.123 286.601 150.725 286.386L150.768 286.231C151.128 286.148 151.464 286.048 151.812 285.922C151.952 283.105 147.945 265.435 146.773 262.503C146.719 263.91 147.324 265.362 147.567 266.755C148.139 270.032 148.726 273.359 149.089 276.664C149.591 281.239 150.328 285.782 150.762 290.358C151.074 293.648 151.076 296.985 151.452 300.26C152.189 306.67 153.294 313.063 154.233 319.448C154.712 322.702 155.015 325.978 155.475 329.233C156.061 333.388 156.714 337.584 157.453 341.712C157.984 344.675 158.634 347.577 158.934 350.578C158.264 350.805 157.656 351.14 157.026 351.458C151.709 342.634 153.06 331.768 149.823 321.779C149.792 323.054 149.757 324.349 149.88 325.619C150.064 327.519 151.235 331.945 150.162 333.567L149.343 333.577C149.001 335.869 151.169 341.747 152.356 343.836C152.582 344.234 152.525 344.315 152.512 344.76C152.178 345.138 152.172 345.311 151.654 345.384C150.575 343.973 149.434 341.087 149.047 339.389C148.917 337.095 148.562 329.988 147.36 328.366C147.234 328.876 147.218 328.714 147.278 329.15C147.73 332.433 147.615 335.731 148.146 339.023C148.244 340.85 148.179 342.736 148.597 344.516C148.953 346.035 149.527 348.31 148.666 349.687C148.074 349.741 148.063 349.67 147.61 349.317C147.29 349.068 147.065 348.812 146.916 348.426C146.666 347.781 146.94 346.953 146.679 346.304C146.387 345.577 145.738 345.123 145.744 344.268C145.751 343.308 146.155 342.486 146.039 341.478C145.836 341.341 145.421 341.09 145.334 340.866C145.056 340.153 145.245 338.324 145.149 337.454C144.823 334.531 144.274 331.636 143.965 328.711C143.68 326.005 143.351 323.338 143.01 320.642C142.855 319.413 142.879 318.1 142.547 316.905C142.334 316.137 142.031 315.186 142.107 314.388C142.114 314.314 142.135 314.242 142.148 314.169C141.69 313.994 141.608 313.998 141.145 314.052C140.54 315.406 141.628 317.631 142.08 318.995L141.736 319.262L142.075 318.967C142.089 319.055 142.108 319.142 142.116 319.23C142.577 324.647 142.503 330.857 142.771 336.39C142.91 339.364 143.091 342.336 143.316 345.305C143.408 346.392 143.678 347.501 143.724 348.58C143.753 349.266 143.655 349.561 143.252 350.104L142.729 350.044C141.427 347.951 140.03 341.134 139.443 338.45C139.247 341.428 139.397 346.577 138.461 349.117C138.79 350.21 139.305 351.403 138.929 352.538C138.768 353.027 138.9 352.871 138.47 353.077C137.136 351.389 138.64 349.483 138.165 347.733L137.897 347.586C137.744 347.81 137.524 348.188 137.306 348.371C136.875 348.731 136.536 348.793 135.998 348.745C134.988 347.122 135.544 335.84 135.456 333.428C135.214 326.855 134.305 319.983 132.238 313.742C132.26 320.946 133.383 328.196 133.713 335.402C133.877 338.986 133.177 343.053 133.887 346.544C134.051 347.352 134.333 348.316 134.18 349.135C134.106 349.53 133.917 349.554 133.617 349.771C132.882 349.795 132.001 349.921 131.305 349.7C131.543 348.463 129.058 338.992 128.404 337.212C128.062 336.278 127.588 335.412 127.098 334.549C126.734 337.126 127.066 339.759 126.934 342.353C126.847 344.05 125.99 346.378 126.37 347.951C126.589 348.856 126.462 349.331 125.998 350.142L125.61 350.157C124.471 348.969 124.788 347.426 124.373 345.999C124.202 345.408 123.77 344.915 123.475 344.382C121.708 341.181 122.502 335.139 123.581 331.755C123.742 331.249 123.48 330.715 123.344 330.205L123.398 330.24L122.611 330.218C121.96 330.85 121.897 332.249 121.784 333.107C121.646 334.154 121.213 335.217 120.925 336.237C120.627 337.329 120.406 338.437 120.264 339.561C120.122 340.684 120.06 341.812 120.077 342.945C120.118 344.896 120.814 346.764 120.857 348.72C120.318 348.902 120.316 348.825 119.798 348.677C118.086 346.856 118.759 343.307 118.5 341.011C118.052 342.932 118.113 344.723 117.834 346.634C117.743 347.261 117.633 347.633 117.105 348.003L116.652 347.685C115.561 345.244 116.54 339.71 116.36 336.734C115.472 339.221 115.032 348.509 114.417 349.579L114.053 349.631C112.547 347.213 112.57 342.928 111.401 340.139C111.375 340.075 111.346 340.013 111.318 339.949C111.25 341.471 110.343 347.247 110.661 348.135C110.775 348.452 111.071 348.669 111.277 348.937C111.279 349.527 111.32 349.555 110.949 350.003C110.28 350.199 110.005 350.138 109.351 349.912C109.021 349.536 108.815 349.336 108.354 349.111C108.233 349.052 108.108 349.003 107.984 348.949C108.362 336.651 106.991 324.446 108.627 312.181C107.92 313.859 105.154 320.325 105.486 321.811C105.772 323.089 107.078 323.923 107.121 325.474C107.154 326.654 106.707 328.166 106.513 329.342C106.048 332.17 105.593 334.947 105.457 337.815C105.356 339.926 105.27 342.125 105.431 344.236C105.561 345.937 106.141 347.933 105.905 349.6L105.441 349.517C104.931 348.798 105.008 347.804 104.851 346.958C104.636 345.802 104.256 344.784 104.173 343.58C103.97 340.612 104.685 333.682 104.933 330.498C105.112 328.207 105.483 326.003 105.08 323.703L104.905 323.878C103.826 328.65 101.405 343.287 102.494 347.649C102.659 348.309 102.774 348.948 102.468 349.595C102.297 349.958 102.123 349.931 101.778 350.068L101.255 349.792C98.5744 346.047 101.389 337 100.894 332.283L100.852 331.897C99.5939 336.929 99.3049 341.908 98.7509 347.022C98.6354 348.088 98.1279 348.277 97.3389 348.926C95.7589 347.521 96.2244 340.834 95.8004 338.428C95.4174 336.254 94.7049 334.285 93.8564 332.254C93.6964 334.8 93.7379 337.364 93.5064 339.904C93.3239 341.903 92.8514 343.865 92.5934 345.853C92.4809 346.723 92.5189 348.169 92.1524 348.952C91.9239 349.441 91.3354 349.848 90.8259 349.966C90.4019 350.064 90.5264 350.018 90.1109 349.74C89.3464 347.288 89.4499 344.421 89.1279 341.868C88.7594 338.945 87.8449 336.167 87.6299 333.199C87.3719 329.642 87.7779 325.981 87.9939 322.425C88.2619 318.021 88.4684 313.598 88.8394 309.202C89.2494 304.338 91.2994 283.701 94.4994 281.005L95.1419 281.133C95.4054 278.998 95.4834 276.067 96.5329 274.186L96.9589 274.125C97.4624 275.613 96.1404 279.678 95.8549 281.329C95.1829 285.216 94.8099 289.162 94.3574 293.078C94.0499 295.739 93.6034 298.401 93.4199 301.074C92.9484 307.956 92.8339 315.23 94.3329 322.004C94.6564 320.229 95.1104 318.379 95.1609 316.577L94.7814 316.26L94.8464 316.019L94.6684 316.079C95.4279 312.34 96.0594 308.542 96.9394 304.831C97.6994 301.625 98.7529 298.493 99.4839 295.282C100.04 292.836 100.451 286.898 101.833 285.02L102.093 285.215C101.946 289.155 100.857 293.048 100.712 297.056C99.8914 299.566 98.2189 311.797 98.2954 314.503C97.9364 316.389 97.7004 318.291 97.5874 320.208C97.4741 322.124 97.4846 324.04 97.6189 325.956C98.2624 322.578 98.8524 319.204 99.1234 315.771C100.023 310.289 100.327 304.85 101.548 299.399C102.269 298.32 102.709 293.888 103.229 292.189C102.862 295.905 101.981 299.468 101.471 303.151C101.179 305.256 99.9369 319.915 100.223 320.963C100.812 319.811 100.811 318.079 100.997 316.785C101.534 313.045 102.127 309.307 102.612 305.559C102.893 303.387 102.849 300.755 103.571 298.7C105.219 301.358 100.076 327.542 100.274 333.559C101.843 328.65 103.02 323.484 104.31 318.484C105.054 315.701 106.543 313.068 107.612 310.392C108.295 308.685 108.692 306.908 109.088 305.116C107.435 308.056 103.987 314.6 103.967 317.765L103.359 317.944L103.015 317.666C102.617 315.316 105.486 308.643 106.687 306.387C107.839 304.224 109.193 302.688 109.797 300.191C110.457 297.455 110.487 294.43 110.797 291.631C111.319 286.915 112.068 282.351 112.085 277.581C112.098 273.969 111.417 269.775 112.03 266.262L112.246 266.147C113.373 268.689 112.812 273.747 113.032 276.671C113.052 276.742 113.073 276.812 113.092 276.883C113.903 279.817 112.801 282.75 113.176 285.715C113.261 285.277 113.272 285.008 113.222 284.56C113.091 283.391 113.571 281.743 113.856 280.589C113.946 280.222 114.126 280.004 114.356 279.717L114.622 279.671C114.599 286.033 113.515 292.361 113.184 298.707C113.746 298.329 114.92 297.774 115.074 297.106C115.292 296.17 114.888 295.217 115.354 294.318C115.794 294.698 115.668 294.465 115.772 294.949C115.928 295.673 115.993 296.256 116.528 296.809C117.076 296.876 117.387 296.718 117.884 296.504L118.027 297.002C117.271 298.019 116.263 299.171 115.808 300.358C114.773 303.062 114.062 318.607 113.997 322.287L114.893 322.385C115.78 320.436 115.818 317.053 116.275 314.891C117.205 310.5 118.416 306.162 119.364 301.768C119.016 301.184 118.743 300.712 118.603 300.034L118.857 300.024L119.611 300.9C120.062 300.188 120.472 299.392 121.275 299.035C121.431 298.966 121.591 298.908 121.749 298.844C122.653 297.618 123.094 295.399 123.558 293.92C123.661 297.938 121.686 303.511 120.856 307.477C119.497 313.976 118.877 325.7 119.464 332.254C120.903 329.626 122.7 327.335 124.551 324.995C124.245 320.844 123.355 316.781 122.967 312.646C122.325 305.805 123.374 298.28 124.891 291.607C125.201 290.24 125.134 288.142 125.819 286.975C126.029 286.618 126.013 286.725 126.462 286.621C127.845 288.655 122.585 302.404 124.453 306.423C124.503 306.531 124.563 306.634 124.617 306.74C125.388 307.498 125.395 308.211 125.626 309.23C125.625 309.117 125.621 309.004 125.623 308.89C125.63 308.248 125.845 307.618 126.017 307.004C126.013 305.237 125.964 303.462 126.153 301.703C127.989 306.737 126.904 314.289 129.08 318.95C129.319 320.511 129.42 322.43 130.078 323.861L130.356 323.861L130.802 322.878C131.193 323.078 131.012 322.927 131.291 323.389C130.885 324.181 130.442 324.998 130.304 325.888C129.77 329.308 130.544 337.409 131.618 340.632C131.652 340.733 131.691 340.833 131.724 340.934C131.759 341.041 131.789 341.148 131.823 341.255C131.843 341.319 131.865 341.382 131.885 341.446C132.383 338.089 132.236 326.913 131.523 323.579C131.466 322.272 131.279 320.94 131.149 319.636C130.847 317.139 130.897 314.537 130.808 312.019C130.542 304.443 130.631 296.457 129.455 288.981C129.157 287.082 128.551 285.266 128.151 283.39C127.658 281.075 127.362 278.571 126.601 276.332C126.053 274.716 125.035 273.345 124.56 271.7L124.733 271.394C125.911 271.868 126.854 274.494 127.277 275.676C128.139 278.085 128.573 280.731 129.23 283.209C130.368 287.503 131.795 291.913 132.558 296.283C132.922 298.362 133.013 306.091 134.075 307.339L134.943 307.309C136.558 308.461 139.475 329.693 140.441 333.245C140.469 333.346 140.498 333.446 140.527 333.547C140.329 322.97 139.606 312.239 138.062 301.765C137.617 298.745 137.251 295.674 136.676 292.677C136.089 289.618 135.028 286.486 134.9 283.372C134.869 282.637 134.886 281.866 135.407 281.297L135.767 281.507C136.346 283.037 136.113 284.609 136.631 286.106C137.351 288.185 138.555 290.106 139.243 292.19C140.126 294.863 140.562 297.706 141.306 300.423C142.07 303.211 143.202 305.891 143.933 308.691C145.427 314.413 146.033 320.287 146.751 326.143Z" fill="#6D3A22"/>
<path d="M175.571 326.736C175.17 325.546 174.955 324.132 174.933 322.87C174.92 322.154 174.847 320.942 175.347 320.447C176.317 322.434 175.89 324.641 175.571 326.736Z" fill="#FEFEFE"/>
<path d="M226.975 322.442C227.403 321.518 227.728 320.457 228.611 319.887L229.052 320.02C229.457 321.196 229.103 322.119 228.664 323.227L226.975 322.442Z" fill="#F8F8F5"/>
<path d="M112.931 330.172L114.171 330.444C113.781 333.408 113.67 336.4 113.241 339.379C112.901 336.268 112.889 333.293 112.931 330.172Z" fill="#FEFEFE"/>
<path d="M126.481 325.667C126.604 325.76 126.679 325.804 126.774 325.941C127.553 327.062 128.127 333.454 127.889 334.949L127.198 334.689C126.643 333.757 126.342 327.031 126.481 325.667Z" fill="#FEFEFE"/>
<path d="M113.997 322.286L114.894 322.385C114.146 324.66 114.321 328.024 114.171 330.444L112.932 330.172C113.394 327.57 113.693 324.912 113.997 322.286Z" fill="#F8F8F5"/>
<path d="M112.087 290.18C112.516 290.784 112.693 291.099 112.806 291.856C112.615 294.612 112.645 298.288 110.957 300.571C110.492 298.813 111.662 292.31 112.087 290.18Z" fill="#FEFEFE"/>
<path d="M216.357 291.187C216.469 292.323 215.362 302.147 215.15 303.575C215.015 304.482 214.982 304.796 214.234 305.342C214.016 301.453 214.765 294.723 216.357 291.187Z" fill="#FEFEFE"/>
<path d="M92.1479 311.797C92.8414 315.635 93.1859 320.9 92.4464 324.715C92.1304 324.171 91.7904 323.602 91.6629 322.978C91.1814 320.621 91.5314 314.139 92.1479 311.797Z" fill="#FEFEFE"/>
<path d="M113.033 276.671C113.053 276.742 113.074 276.812 113.093 276.883C113.904 279.817 112.802 282.75 113.177 285.715C113.262 285.277 113.273 285.008 113.223 284.56C113.092 283.391 113.572 281.743 113.857 280.589C113.947 280.222 114.127 280.004 114.357 279.717C114.141 283.674 113.356 287.909 112.807 291.857C112.694 291.1 112.517 290.785 112.088 290.18C112.481 285.705 113.035 281.165 113.033 276.671Z" fill="#F8F8F5"/>
<path d="M197.655 334.325C197.986 334.552 198.265 334.765 198.516 335.083C199.894 336.827 198.926 342.839 198.613 344.97L198.18 344.568C197.295 341.744 197.318 337.276 197.655 334.325Z" fill="#FEFEFE"/>
<path d="M125.829 327.171C126.62 330.47 125.486 333.979 125.193 337.272C124.987 339.593 125.604 341.756 124.758 344.026L124.44 344.053L124.339 343.313C124.235 340.432 124.507 337.507 124.69 334.633C124.296 334.468 124.086 334.363 123.75 334.084C123.992 333.369 125.056 332.872 125.602 332.337L125.546 331.885C125.143 331.772 125.001 331.725 124.664 331.456C125.175 330.036 125.36 328.591 125.829 327.171Z" fill="#F8F8F5"/>
<path d="M124.617 306.74C125.388 307.498 125.395 308.211 125.626 309.23C125.625 309.117 125.621 309.004 125.623 308.89C125.63 308.248 125.845 307.617 126.017 307.004C126.307 308.883 126.239 310.818 126.565 312.693C127.344 317.183 129.545 323.555 129.208 327.996C128.05 325.563 125.298 310.335 124.617 306.74Z" fill="#F8F8F5"/>
<path d="M131.287 294.422C132.222 296.999 132.5 305.358 132.931 308.676C133.374 312.084 134.201 315.439 134.688 318.848C131.866 312.613 130.861 301.299 131.287 294.422Z" fill="#FEFEFE"/>
<path d="M214.027 306.313L214.7 306.643C215.703 308.435 213.826 322.071 213.348 324.334L213.03 324.12C212.754 321.627 213.415 318.701 213.518 316.156C213.63 313.376 213.37 310.403 213.658 307.662C213.707 307.187 213.848 306.752 214.027 306.313Z" fill="#FEFEFE"/>
<path d="M226.976 322.443L228.665 323.227C226.773 327.789 225.266 332.12 224.775 337.1C224.591 338.967 224.932 340.976 224.462 342.784L224.188 342.793L224.492 342.795L224.012 342.096C224.161 339.522 224.168 336.983 224.476 334.412C224.953 330.441 226.046 326.336 226.976 322.443Z" fill="#FEFEFE"/>
<path d="M117.518 315.155C117.607 315.364 117.633 315.398 117.68 315.656C118.187 318.462 117.231 322.144 117.11 325.028C117.004 327.539 117.26 330.065 117.099 332.571C117.06 333.184 117.069 333.768 116.704 334.291C115.045 330.742 116.275 318.849 117.518 315.155Z" fill="#FEFEFE"/>
<path d="M235.956 305.951C236.139 306.153 236.183 306.116 236.173 306.371C236.138 307.318 234.561 309.512 234.068 310.456C232.95 312.6 231.077 318.789 230.062 319.924L229.481 319.242C229.174 318.677 229.071 318.316 229.219 317.67C229.368 317.019 229.986 316.679 230.496 316.321L230.738 316.155C230.312 316.056 230.232 316.029 229.878 315.735C230.541 313.011 234.233 308.288 235.956 305.951Z" fill="#FEFEFE"/>
<path d="M190.604 286.676C190.859 288.01 188.436 305.388 187.969 307.89C187.746 309.083 187.351 310.194 186.928 311.326C186.215 308.199 189.447 290.312 190.604 286.676Z" fill="#FEFEFE"/>
<path d="M207.785 311.971C207.802 311.988 207.821 312.004 207.837 312.022C211.061 315.73 212.396 324.846 212.431 329.561C211.949 329.03 211.49 328.408 211.241 327.732C210.532 325.807 210.287 323.533 209.85 321.524C209.157 318.34 208.353 315.18 207.785 311.971Z" fill="#FEFEFE"/>
<path d="M136.256 286.427C137.64 288.087 138.706 296.084 139.483 298.668C139.681 299.323 140.453 301.038 140.413 301.647C140.387 302.028 140.069 302.011 140.087 302.607C140.561 302.62 140.375 302.54 140.674 302.759C140.346 303.023 140.26 303.098 140.069 303.491C140.512 303.827 140.353 303.725 140.775 303.987L141.047 304.151L141.172 304.753L140.538 305.337C140.556 305.912 140.504 305.927 140.827 306.451L141.324 306.076L141.463 306.263L141.156 306.842L141.474 306.956L140.973 307.022L140.876 307.233C141.116 308.276 141.208 309.243 141.239 310.312C141.353 311.2 141.611 312.306 141.462 313.19C141.38 313.677 141.472 313.476 140.999 313.803C139.941 311.868 139.844 305.4 139.415 302.899C138.902 299.907 138.385 296.896 137.743 293.93C137.204 291.435 136.406 288.986 136.256 286.427Z" fill="#F8F8F5"/>
<path d="M225.806 291.68C225.819 291.734 225.832 291.788 225.845 291.842C226.883 295.917 226.555 314.405 225.872 318.425L225.82 318.611L225.628 318.438C225.351 314.253 225.022 309.973 225.067 305.781C225.092 303.459 225.361 301.144 225.42 298.822C225.479 296.523 225.244 293.914 225.806 291.68Z" fill="#FEFEFE"/>
<path d="M109.699 315.074C108.766 313.714 109.768 306.08 110.162 304.164C110.294 303.52 110.573 302.06 111.07 301.698C111.232 303.584 110.66 305.398 110.535 307.269C110.377 309.653 110.888 312.8 110.084 315.031C110.156 315.292 110.172 315.323 110.214 315.634C110.499 317.715 110.644 331.003 109.754 332.179L109.541 331.826C109.764 327.603 108.551 318.666 109.699 315.074Z" fill="#FEFEFE"/>
<path d="M91.0042 323.667C91.0342 323.728 91.0647 323.79 91.0942 323.852L91.2387 324.164C91.5967 324.921 91.9622 325.655 92.0952 326.491C92.6397 329.903 92.1927 341.283 91.3237 344.255C91.1497 344.109 91.0292 344.029 90.9082 343.815C89.5817 341.47 90.1907 326.407 91.0042 323.667Z" fill="#FEFEFE"/>
<path d="M111.822 322.504C111.882 318.974 111.751 302.527 113.5 300.501C113.686 300.286 113.82 300.22 114.044 300.079L114.414 300.262C114.953 302.244 113.062 311.179 112.453 313.513L112.697 313.899C113.24 313.08 112.877 312.298 113.487 311.6C113.646 312.076 113.663 311.945 113.623 312.364C113.356 315.182 112.952 317.965 112.803 320.799C112.702 322.735 112.958 324.933 112.519 326.816C112.517 328.331 112.134 329.969 111.911 331.474C111.663 328.45 111.499 325.529 111.822 322.504Z" fill="#FEFEFE"/>
<path d="M94.4987 281.005L95.1412 281.133C94.6677 286.184 93.6237 291.118 92.7947 296.115C92.0747 300.455 91.5897 304.865 91.0732 309.235C90.3787 315.118 90.7602 321.218 89.6607 327.03C89.4367 324.525 89.6617 321.977 89.6937 319.465C89.8017 311.021 90.0417 302.226 91.5582 293.889C92.2497 290.087 94.3957 284.588 94.4987 281.005Z" fill="url(#paint0_linear_66_2)"/>
<path d="M201.933 309.04C202.821 312.854 202.108 322.668 201.925 326.699C201.558 325.432 201.247 324.163 200.616 322.997C200.053 325.403 202.119 328.394 201.387 330.596C199.355 327.75 199.119 324.198 196.902 321.408C196.914 320.995 196.933 320.582 196.96 320.17C197.129 317.478 198.56 310.867 200.559 309.117L201.037 309.707L201.501 309.701L201.933 309.04Z" fill="#FEFEFE"/>
<path d="M54.7154 325.897C55.0204 323.527 54.6964 320.797 54.5819 318.402C54.3389 313.314 53.9529 308.177 54.0479 303.083C54.2249 296.84 54.6036 290.61 55.1839 284.392C55.4989 281.211 56.0789 278.012 56.2204 274.821C56.3399 272.125 55.8059 264.204 56.6254 262.23C56.7994 261.811 56.6849 261.944 57.1064 261.782C58.3614 263.215 56.7784 293.48 56.7389 297.799C56.6914 302.965 56.6934 308.117 57.2679 313.259C57.5124 315.444 58.1639 317.718 58.9774 319.757C59.6254 316.444 59.9279 313.066 60.5609 309.754C61.1849 306.488 62.0805 303.326 62.452 300.009C62.8415 296.527 62.9014 292.959 63.0619 289.458C63.4749 280.452 63.5804 271.56 63.1949 262.548C62.9234 256.208 61.9514 249.855 61.7684 243.5C61.3629 229.428 61.6444 215.324 61.7874 201.249C61.8204 197.996 62.2274 194.71 62.1874 191.472C62.1694 189.994 61.4444 188.522 61.2864 187.035C60.9164 183.555 60.8979 179.935 60.7924 176.436C60.5314 167.802 60.7644 159.118 60.7219 150.478C60.6994 145.813 60.1989 141.212 60.5084 136.539C60.9244 130.242 62.2609 124.01 62.8844 117.738C63.4044 112.507 63.3804 107.191 64.1774 101.99C64.8109 97.8559 66.1399 93.71 67.2784 89.6885C70.1979 79.3745 72.4439 71.1035 81.5784 64.4965C83.4699 63.128 85.4114 61.8695 87.5554 60.9325C93.2964 58.424 106.932 54.9415 113.117 55.971C119.2 56.9835 123.403 60.3054 126.858 65.2699C131.012 71.2389 135.466 83.8594 134.108 91.0614C133.42 94.7119 132.358 98.8595 129.114 101.071C127.835 101.943 126.395 102.571 125.134 103.471C124.41 103.988 124.105 104.464 123.962 105.358L124.229 105.632C126.507 105.818 128.355 107.157 130.046 108.633C132.758 110.998 132.519 114.461 132.764 117.753C134.753 118.096 137.051 118.329 139.06 118.078C139.33 118.665 139.489 119.078 139.561 119.73C139.288 120.218 139.259 120.321 138.697 120.501C138.114 120.688 137.444 120.694 136.836 120.739C137.185 122.812 137.437 124.933 137.875 126.987C139.149 130.602 139.557 134.758 140.402 138.515C141.393 142.922 142.781 147.187 143.523 151.659C145.193 161.721 143.038 166.513 137.339 174.5C137.903 175.949 138.206 177.477 138.558 178.989C140.034 180.162 142.558 182.16 143.136 184.002C143.332 184.624 143.255 184.925 142.985 185.495C141.705 186.427 140.059 186.474 138.681 187.199C137.609 187.762 136.62 188.754 135.664 189.501C133.362 191.298 130.109 191.265 127.301 191.343L127.086 190.861L126.761 190.74L126.515 190.912C126.397 190.993 126.276 191.071 126.159 191.154C125.61 191.541 125.294 191.804 124.589 191.839C116.253 192.249 104.302 191.223 97.8309 185.326C99.9904 182.101 102.047 179.464 104.919 176.805C102.42 174.212 100.007 171.707 98.7809 168.242C94.9609 157.454 104.853 125.701 103.397 122.213C102.22 120.961 100.09 121.552 98.5169 121.246L98.2694 120.879C98.4539 119.9 99.6499 119.028 100.356 118.389C101.595 118.364 103.899 118.647 105.027 118.319C106.004 118.034 107.06 112.972 107.626 111.911C109.505 108.393 112.728 107.984 114.039 106.175C114.118 106.065 114.188 105.948 114.27 105.839C114.857 105.056 114.988 105.134 115.894 104.969C114.924 104.116 113.888 103.255 113.044 102.273C111.018 99.9165 109.859 96.531 110.17 93.4255C110.435 90.792 111.399 87.9175 113.545 86.2375C114.563 85.44 115.933 84.8645 117.248 85.0795C117.953 85.1945 118.743 85.6029 119.065 86.2704C119.3 86.7594 119.286 87.3019 119.025 87.7754C118.199 89.2709 116.484 89.376 115.025 89.779C113.768 90.9495 113.739 92.89 113.548 94.493C113.794 95.9785 114.163 97.257 114.877 98.6015C115.68 99.7055 116.5 100.764 117.389 101.8L120.941 101.668C125.909 97.7165 129.111 97.3085 129.985 90.1035C130.949 82.1535 126.863 72.4685 121.962 66.3765C119.353 63.1325 116.337 60.978 112.102 60.5105C103.811 59.595 89.3124 64.19 82.9369 69.5235C79.5974 72.3165 74.1894 80.7315 72.5959 84.845C71.6989 87.1595 71.8884 89.75 71.4564 92.16C70.4969 97.5155 68.5549 102.938 68.1899 108.372C67.9744 111.58 68.3989 114.809 68.2944 118.023C68.1579 122.223 67.1829 126.354 67.0309 130.549C66.7889 137.213 67.3674 143.877 67.2364 150.551C67.0814 158.486 66.1624 166.346 66.2409 174.305C66.2994 180.229 67.1569 186.07 67.2029 192.021L67.7504 226.667L67.8544 243.788C67.8724 246.046 67.7409 248.334 67.8664 250.587C68.0074 253.104 68.9204 255.553 69.0574 258.064C69.1879 260.451 69.0194 262.879 69.0664 265.273C69.1939 271.702 69.3599 278.109 69.3229 284.541C69.3014 288.317 69.0979 292.133 69.3209 295.903C70.7579 291.43 76.3709 269.55 79.0604 267.835L79.3799 268.08C79.8234 271.545 75.8279 282.435 74.9999 286.674C72.8544 297.661 72.3969 305.876 72.6149 317.051C72.6739 320.084 72.5609 323.26 72.9124 326.272C73.3589 330.1 74.3385 333.952 75.0145 337.758C75.311 335.99 75.6514 334.177 75.6474 332.38C75.6419 330.23 74.2639 313.405 74.8624 312.723C75.2624 312.964 75.2159 313.042 75.3169 313.478C76.1129 316.915 76.5174 331.393 77.4174 332.716C77.7634 331.912 77.7479 330.749 77.6919 329.87C77.5919 328.308 77.1599 326.793 77.0399 325.233C76.6899 320.681 76.5289 312.343 77.4809 307.902C77.4084 300.959 79.5879 291.479 83.6249 285.742C84.0419 284.888 84.3939 284.024 85.0849 283.351L85.4454 283.367C85.5634 284.309 84.9179 285.53 84.5569 286.412C83.9469 287.903 83.4929 294.655 83.6089 296.446C83.6649 297.306 84.3889 298.433 84.1224 299.186C83.6719 300.459 83.6969 301.222 83.8869 302.539C84.1124 301.686 84.2999 300.2 84.9349 299.59C85.4614 300.462 84.8919 307.706 84.7359 308.977C84.6239 309.104 84.4939 309.218 84.3999 309.36C84.3214 309.477 84.2829 309.617 84.2244 309.746L85.0039 310.458C86.0714 312.516 86.3619 315.505 86.5794 317.798C87.2859 325.249 86.6544 332.846 87.3559 340.329C87.5564 342.465 88.7569 347.811 88.0884 349.654C88.0584 349.736 88.0099 349.81 87.9709 349.889C87.2289 349.48 86.8249 348.423 86.5944 347.619C85.2044 342.77 86.2329 334.522 86.0094 329.237C85.9224 327.185 85.5684 325.16 85.4224 323.113C85.1254 318.958 84.8654 314.745 84.6569 310.585C83.8909 312.027 84.5239 325.545 84.4104 327.833C84.1799 332.479 86.1359 336.526 84.7044 341.251L84.4419 341.444C83.3339 339.633 83.1939 331.332 83.1149 328.834L82.9854 329.229C81.6164 333.476 81.8014 341.791 82.1339 346.347C82.2829 348.391 82.7659 350.722 82.6224 352.743L82.1629 352.722C81.3719 351.696 81.4684 346.379 80.1669 346.209C78.9564 348.097 80.8459 351.481 79.4614 352.757C78.9094 352.543 78.9064 352.511 78.6704 351.987C78.0619 350.635 77.9989 342.627 77.7924 340.342C77.6464 338.725 77.3779 337.108 77.1044 335.508C76.3309 337.757 75.8599 339.786 75.7984 342.171C75.7469 344.145 76.2454 347.173 75.6639 348.998C75.4374 349.71 75.2019 349.804 74.6144 350.216L74.0934 350.263C73.6379 349.818 73.5824 349.564 73.6089 348.918C73.6469 347.974 73.8459 347.076 74.0924 346.17C74.3709 345.146 72.3619 330.877 71.8584 328.911C71.5914 334.972 72.1954 340.978 72.1704 347.039L68.8534 348.929C68.2469 348.375 67.6949 347.705 66.8224 347.706C65.3904 347.708 63.7519 348.361 62.5694 347.235C61.8204 346.522 61.4679 345.697 61.1214 344.743C60.6949 343.105 59.9864 335.822 59.2569 334.994C58.8074 335.67 58.9264 336.638 58.9224 337.425C59.2749 339.374 60.6034 349.854 60.0504 351.182C59.5099 351.382 59.0759 351.478 58.5009 351.523C58.0679 349.653 58.8989 345.566 57.2859 344.367C57.1444 341.908 57.0519 339.1 56.4179 336.72C56.2269 335.342 55.9324 333.987 55.6454 332.626C55.2409 330.403 55.0059 328.137 54.7154 325.897Z" fill="#6D3A22"/>
<path d="M126.084 124.394C126.542 124.908 126.625 125.016 126.522 125.755C126.422 126.466 125.85 126.915 125.302 127.281L124.84 126.593C124.916 125.658 125.517 125.089 126.084 124.394Z" fill="#6D3A22"/>
<path d="M122.588 130.879C122.771 130.883 123.074 130.885 123.247 130.908C123.799 130.979 123.847 131.076 124.187 131.484C124.175 131.972 124.157 132.075 123.927 132.535C123.185 132.521 122.417 132.622 121.803 132.144C121.894 131.453 122.131 131.362 122.588 130.879Z" fill="#FEFEFE"/>
<path d="M112.005 175.281C112.587 175.271 113.159 175.292 113.74 175.319C114.339 175.812 114.258 175.993 114.382 176.736C113.702 176.856 113.079 176.947 112.384 176.938C111.879 176.373 112.016 176.023 112.005 175.281Z" fill="#F8F8F5"/>
<path d="M110.51 131.072C111.601 131.02 112.86 130.85 113.874 131.342C114.362 131.579 114.29 131.893 114.427 132.38C113.571 132.391 112.563 132.448 111.734 132.2C111.014 131.985 110.863 131.705 110.51 131.072Z" fill="#FEFEFE"/>
<path d="M72.0101 299.817C72.2666 301.551 72.0911 303.639 71.6306 305.329L71.4541 305.3C71.1221 303.533 71.2001 301.689 71.1921 299.895L72.0101 299.817Z" fill="#F8F8F5"/>
<path d="M125.567 130.818C126.656 130.897 129.322 130.942 130.105 131.603C129.954 132.113 129.93 132.017 129.505 132.274C127.994 132.028 126.355 132.833 124.994 132.4L124.836 132.044L125.567 130.818Z" fill="#FEFEFE"/>
<path d="M115.639 131.34C116.834 131.293 118.035 131.213 119.229 131.19C120.018 131.174 120.648 131.194 121.23 131.747L121.209 132.507C119.644 132.57 116.93 133.023 115.613 132.09L115.639 131.34Z" fill="#FEFEFE"/>
<path d="M71.1926 299.895C71.1516 296.106 72.1376 290.707 73.5656 287.241C74.0126 288.897 72.4246 297.53 72.0106 299.817L71.1926 299.895Z" fill="#FEFEFE"/>
<path d="M127.975 180.019L128.134 180.196L127.511 180.877C127.925 181.126 127.748 181.072 128.201 181.151C128.765 181.248 129.29 181.263 129.791 181.569C130.091 181.754 130.007 181.724 130.061 182.085C129.98 182.144 129.905 182.212 129.818 182.263C128.688 182.92 126.532 183.236 125.29 182.881C125.222 182.893 125.155 182.911 125.086 182.917C124.413 182.975 123.656 182.809 123.121 182.411C123.239 181.779 123.419 181.553 123.857 181.091C124.427 180.829 124.752 180.808 125.358 180.872L125.729 180.912C126.86 181.025 127.126 180.704 127.975 180.019Z" fill="#6D3A22"/>
<path d="M79.0156 301.118C79.3866 298.483 81.6251 290.951 82.8856 288.781L83.0741 288.848L82.9841 289.956C82.5871 292.369 82.2586 294.89 82.4246 297.335L82.3081 297.291L82.2936 296.573L82.0081 296.391C81.2761 297.614 81.2811 299.324 80.5611 300.414L80.2766 300.203C80.4436 299.598 80.5271 299.066 80.5656 298.44L80.2126 298.527C80.1076 298.733 79.9266 299.073 79.8581 299.279C79.6721 299.838 79.6526 300.214 79.3051 300.714C79.2106 300.85 79.1121 300.984 79.0156 301.118Z" fill="#F8F8F5"/>
<path d="M123.362 173.999C123.741 174.097 124.182 174.186 124.533 174.357C125.466 174.811 126.607 176.285 126.923 177.277C127.113 177.872 127.053 178.191 126.808 178.743C125.302 179.868 122.989 178.909 121.176 178.881L120.975 178.52L121.473 178.003C121.948 177.606 122.503 177.184 122.899 176.708C123.279 176.25 123.246 175.631 123.16 175.08C122.332 175.018 122.077 176.705 121.207 177.259C120.574 177.351 120.441 177.503 119.873 177.16L119.929 176.798C120.696 175.596 122.219 174.837 123.362 173.999Z" fill="#6D3A22"/>
<path d="M79.0165 301.118C79.113 300.984 79.2115 300.85 79.306 300.714C79.6535 300.214 79.673 299.837 79.859 299.278C79.9275 299.072 80.1085 298.732 80.2135 298.527L80.5665 298.44C80.528 299.066 80.4445 299.598 80.2775 300.202L80.562 300.414C80.2305 303.832 79.225 318.544 78.0525 320.578C77.506 314.588 78.2555 307.153 79.0165 301.118Z" fill="#FEFEFE"/>
<path d="M82.3091 297.291L82.4256 297.335C82.7061 300.102 81.4821 317.403 82.0431 318.496C82.2566 318.913 82.5451 318.857 82.7071 319.408L82.1566 319.199C80.6866 322.806 81.0216 326.766 79.6506 330.451C79.2756 328.538 79.2076 326.685 79.2921 324.739C79.4276 321.619 80.1516 318.518 80.4366 315.403C80.9731 309.543 80.3376 302.878 82.3091 297.291Z" fill="#FEFEFE"/>
<path d="M62.4012 305.501C63.0747 310.213 62.4867 315.187 62.3862 319.929C62.2672 325.579 62.3707 331.227 62.3907 336.878C62.3962 338.371 62.8857 344.353 62.4007 345.063C60.6772 340.748 60.0977 329.278 60.3272 324.512C60.4902 321.127 61.1067 317.683 61.4297 314.299C61.7082 311.383 61.7927 308.368 62.4012 305.501Z" fill="#FEFEFE"/>
<path d="M108.905 152.166C112.039 155.328 114.415 158.641 118.175 161.188L114.368 163.098C112.392 164.109 110.551 165.207 108.777 166.543C108.878 161.472 108.235 157.408 108.905 152.166Z" fill="#FEFEFE"/>
<path d="M132.656 152.985C133.387 154.246 132.481 163.69 132.044 165.357C130.278 165.62 126.921 163.521 125.285 162.736C124.163 162.206 123.106 161.491 122.047 160.844C125.502 158.116 129.118 155.604 132.656 152.985Z" fill="#FEFEFE"/>
<path d="M120.374 162.019C123.983 164.324 127.469 166.446 131.653 167.536C131.541 168.331 131.486 169.314 131.185 170.059C130.264 172.338 125.857 170.632 123.807 171.479C123.296 171.691 122.988 171.883 122.421 171.846C121.496 171.886 120.673 171.815 119.762 171.641C117.652 171.237 115.656 171.511 113.556 171.283C111.516 171.061 110.648 169.664 109.5 168.155C109.536 168.121 109.572 168.087 109.607 168.052C112.254 165.402 116.993 163.686 120.374 162.019Z" fill="#FEFEFE"/>
<path d="M109.252 121.242C109.546 121.225 109.697 121.304 109.967 121.407C110.681 123.645 108.37 129.894 107.996 132.567C107.196 138.285 106.897 144.143 106.411 149.899C106.192 152.49 105.651 155.165 105.618 157.753C105.591 159.848 105.518 165.221 105.751 167.074C106.013 169.171 108.516 171.817 108.043 173.908L107.677 174.102C106.839 173.921 106.286 173.301 105.663 172.75C104.503 171.68 103.494 170.502 102.695 169.139C101.931 167.836 101.361 166.384 101.212 164.875C100.371 156.327 103.696 141.057 105.381 132.224C106.011 128.922 106.47 125.526 107.326 122.276C107.781 121.657 108.557 121.495 109.252 121.242Z" fill="#FEFEFE"/>
<path d="M129.967 121.214C131.295 121.218 132.956 121.012 134.038 121.892C135.565 125.382 136.122 132.47 136.997 136.52C138.085 141.558 139.743 146.581 140.567 151.658C141.019 154.445 141.391 157.321 141.16 160.147C140.888 163.483 139.555 167.459 136.948 169.674C135.805 170.58 134.794 171.679 133.758 172.704C134.711 165.356 136.231 157.976 135.805 150.51C135.692 148.533 135.209 146.592 134.885 144.642C134.424 141.864 134.055 139.054 133.435 136.306C132.295 131.253 130.843 126.331 129.967 121.214Z" fill="#FEFEFE"/>
<path d="M110.253 133.351C116.223 135.215 124.116 133.883 130.349 133.709C131.147 137.705 131.72 141.697 132.221 145.742C132.439 147.501 132.482 149.261 132.815 151.005C131.073 152.358 129.341 153.636 127.474 154.814C125.039 156.573 122.666 158.405 120.204 160.13C114.841 156.804 113.19 154.748 108.994 150.085C110.272 146.192 110.377 137.625 110.253 133.351Z" fill="#FEFEFE"/>
</g>
<defs>
<linearGradient id="paint0_linear_66_2" x1="88.9792" y1="296.817" x2="95.2691" y2="299.433" gradientUnits="userSpaceOnUse">
<stop stop-color="#F2F0E8"/>
<stop offset="1" stop-color="#F7F7FF"/>
</linearGradient>
<clipPath id="clip0_66_2">
<rect width="263" height="344" fill="white"/>
</clipPath>
</defs>
</svg>
