<svg width="561" height="507" viewBox="0 0 561 507" fill="none" xmlns="http://www.w3.org/2000/svg">
<g clip-path="url(#clip0_60_5)">
<rect width="561" height="507" fill="white"/>
<g clip-path="url(#clip1_60_5)">
<path d="M25.8917 446.796C25.1951 447.653 24.5483 448.283 23.657 448.894L23.3962 449.07C23.1694 449.676 23.0101 450.046 22.6383 450.575C22.1923 449.874 21.9676 449.033 21.8893 448.185C21.8022 447.232 21.7852 446.699 22.3367 445.947C23.0993 446.214 23.8286 446.49 24.6388 446.484C24.8118 446.484 24.9854 446.475 25.1584 446.471L25.8917 446.796Z" fill="#6D3A22"/>
<path d="M502.03 400.88L502.849 399.387C503.792 410.265 504.708 424.547 504.001 435.365C502.971 432.979 502.228 405.518 502.03 400.88Z" fill="#6D3A22"/>
<path d="M462.365 344.579C465.787 345.917 468.616 348.422 471.727 350.412C475.25 352.666 478.966 354.582 482.65 356.502C483.831 357.117 485.711 357.85 486.555 358.959C486.543 359.004 486.525 359.046 486.519 359.092C486.408 359.94 486.415 360.496 485.967 361.227C485.196 361.307 485.085 361.404 484.345 361.045C484.309 360.41 484.218 359.98 483.993 359.393C479.68 355.777 474.73 353.734 470.063 350.817C467.307 349.096 465.093 346.825 462.048 345.663L462.365 344.579Z" fill="#6D3A22"/>
<path d="M449.568 337.969C454.185 339.683 458.133 341.978 462.364 344.579L462.047 345.663C460.135 344.863 458.156 344.273 456.194 343.639C457.931 344.759 459.501 345.89 461 347.383C461.521 347.903 462.625 348.743 462.655 349.477C461.601 349.172 460.434 348.88 459.52 348.203C458.277 347.281 457.178 345.77 456.078 344.628C453.808 342.272 451.565 340.587 448.845 338.899L449.568 337.969Z" fill="#9A795E"/>
<path d="M33.3168 409.262C35.6244 409.499 37.7944 410.11 40.0741 410.469L40.7202 411.105C39.2733 413.135 36.9725 413.059 35.0694 414.378C34.7215 415.004 34.4641 415.348 33.9146 415.773C32.5964 414.434 30.3794 413.327 29.5929 411.506C29.3546 410.954 29.5677 410.797 29.7659 410.285C30.8785 409.439 31.9972 409.416 33.3168 409.262Z" fill="#6D3A22"/>
<path d="M34.4781 365.577C32.3667 365.124 29.974 365.002 27.8863 365.619C27.3157 365.787 26.9147 365.911 26.3114 365.877L26.0989 364.988C27.1298 361.958 30.4608 361.305 32.0528 358.73C32.11 358.638 32.161 358.542 32.2148 358.448L32.5417 359.207C32.6942 360.157 32.4695 359.627 32.891 360.057C33.4445 360.621 33.7462 361.479 34.0785 362.21C34.8622 362.737 35.1053 362.577 36.0354 362.478L37.6341 361.762L38.123 361.998L37.596 363.031L38.0686 363.677L34.4781 365.577Z" fill="#6D3A22"/>
<path d="M487.614 359.853C491.201 361.114 494.551 363.112 497.946 364.878C502.59 367.294 507.076 369.521 511.666 372.081C513.813 373.278 516.205 374.069 518.294 375.372C519.197 375.935 519.801 376.48 520.45 377.362L520.577 378.072C518.17 378.224 511.492 373.107 509.082 371.719C502.685 368.037 495.4 365.959 489.227 361.713C488.703 361.078 488.157 360.468 487.614 359.853Z" fill="#6D3A22"/>
<path d="M503.858 454.035C503.703 457.502 504.264 460.86 504.236 464.286C504.859 468.33 504.523 472.748 504.508 476.852C504.537 478.444 504.306 480.64 505.126 481.994C505.87 482.602 506.653 482.579 507.543 482.658C507.989 483.367 508.231 483.754 508.96 484.11C505.54 484.125 502.111 484.071 498.704 484.417C498.857 484.081 498.961 483.709 499.079 483.357L498.146 482.901C498.584 482.843 499.49 482.885 499.757 482.493C500.833 480.908 500.228 476.406 500.137 474.398C500.523 475.072 500.673 476.391 501.238 476.759L502.518 474.126C502.902 469.52 502.495 464.788 503.117 460.226C503.193 458.099 503.166 456.053 503.858 454.035Z" fill="#6D3A22"/>
<path d="M503.856 454.035C503.701 457.502 504.261 460.86 504.234 464.286C504.16 465.375 504.246 467.285 503.534 468.009C503.004 465.634 503.287 462.706 503.115 460.226C503.191 458.099 503.164 456.053 503.856 454.035Z" fill="#6D3A22"/>
<path d="M507.541 482.658C514.13 482.626 520.563 482.72 527.017 484.409C532.117 485.744 536.907 487.866 542.161 488.569C545.751 489.049 549.429 489.235 553.046 489.307C555.591 489.358 558.491 488.991 560.961 489.626L561.171 490.02C558.146 492.041 542.656 490.508 538.739 489.461C534.312 488.28 530.022 486.428 525.566 485.389C520.226 484.144 514.406 484.185 508.958 484.11C508.228 483.754 507.987 483.367 507.541 482.658Z" fill="#6D3A22"/>
<path d="M500.714 451.364L502.043 451.309C504.614 449.549 502.514 440.19 504.211 436.061C504.525 441.24 504.768 449.022 503.855 454.035C503.164 456.053 503.191 458.099 503.115 460.226C502.493 464.788 502.9 469.52 502.516 474.125L501.235 476.758C500.671 476.391 500.521 475.072 500.135 474.398C499.641 472.595 499.556 457.302 499.819 455.349L500.362 455.526C500.935 454.498 500.708 452.556 500.714 451.364Z" fill="#F8F8F5"/>
<path d="M497.249 375.061C497.397 373.952 497.503 373.165 498.09 372.205C499.272 371.809 499.895 372.092 501.091 372.361L501.533 371.885C505.217 373.81 515.976 379.145 519.489 380.028C520.705 380.334 522.186 380.253 523.435 380.298C523.668 381.105 523.658 381.56 523.531 382.392C520.365 385.287 507.254 382.24 502.706 382.978C501.529 382.926 500.486 382.466 499.385 382.053C499.204 380.496 499.497 378.352 498.385 377.161C497.125 375.812 493.423 376.297 491.688 376.291C492.81 375.249 495.638 376.324 497.131 375.868L497.249 375.061Z" fill="#6D3A22"/>
<path d="M497.242 375.061C497.39 373.952 497.497 373.165 498.084 372.205C499.266 371.809 499.888 372.092 501.084 372.361C502.346 373.157 503.596 373.888 504.925 374.539C502.352 374.883 499.833 375.017 497.242 375.061Z" fill="#F8F8F5"/>
<path d="M405.404 324.152C416.822 319.769 419.887 321.595 430.294 327.047C436.78 330.445 442.876 335.156 449.569 337.969L448.845 338.899C446.474 337.708 444.06 336.536 441.779 335.15C438.18 332.963 433.424 328.574 429.246 328.337L428.756 330.085C434.666 333.388 440.2 337.658 445.929 341.333C451.242 344.739 456.99 347.681 462.455 350.816C467.234 353.542 472.07 356.143 476.963 358.618C480.469 360.351 484.154 361.832 487.509 363.888C492.034 366.864 496.624 369.725 501.532 371.885L501.09 372.361C499.893 372.092 499.271 371.809 498.089 372.205C497.502 373.165 497.396 373.952 497.247 375.061L497.13 375.868C495.636 376.324 492.809 375.249 491.687 376.291C493.421 376.297 497.124 375.812 498.384 377.161C499.496 378.352 499.203 380.496 499.384 382.053C500.485 382.466 501.528 382.927 502.705 382.978C502.361 388.475 503.163 393.963 502.85 399.387L502.031 400.88C502.229 405.518 502.972 432.979 504.002 435.365L504.212 436.061C502.516 440.191 504.616 449.549 502.044 451.309L500.716 451.364C500.709 452.556 500.937 454.498 500.363 455.526L499.821 455.349C499.558 457.302 499.642 472.595 500.137 474.398C500.227 476.406 500.832 480.908 499.757 482.493C499.49 482.885 498.583 482.843 498.146 482.901L499.078 483.357C498.96 483.709 498.856 484.082 498.703 484.417C484.329 485.222 470.258 490.048 455.861 490.129C447.824 490.175 440.052 487.574 432.076 487.044C426.271 486.659 420.392 488.121 414.617 488.674C411.803 488.945 408.969 488.806 406.151 488.679C400.178 488.411 394.242 488.063 388.299 487.325C378.456 486.104 368.521 484.245 358.59 484.384C351.2 484.488 343.294 485.539 335.994 486.838C327.752 488.304 319.583 490.206 311.178 490.169C306.995 490.15 302.821 489.724 298.641 489.62C291.958 489.454 285.233 489.595 278.548 489.68C272.452 489.756 266.377 490.784 260.281 490.479C251.399 490.036 243.118 486.744 234.087 487.209C226.5 487.6 218.897 488.306 211.412 489.773C206.884 490.661 202.414 492.038 197.852 492.716C192.362 493.534 187.011 492.86 181.184 493.852C170.021 495.754 158.917 498.393 147.613 498.981C142.486 499.248 137.318 499.264 132.269 498.137C128.685 497.337 125.141 496.112 121.489 495.734C115.049 495.069 108.517 495.918 102.06 495.927C94.5908 495.938 86.9695 495.147 79.5238 495.926C75.6603 496.33 72.059 497.68 68.3147 498.695C65.6388 499.42 62.9077 499.805 60.2338 500.507C57.3835 501.255 54.5857 502.243 51.7279 502.958C47.4328 504.034 42.9817 504.171 38.6191 504.769C31.3382 505.768 24.4924 507.228 17.0876 507.238C17.7583 506.397 20.851 506.16 21.9275 506.01C27.1146 505.293 32.188 504.158 37.3458 503.354C41.9147 502.642 46.5551 502.395 51.0776 501.343C55.6486 500.281 59.8783 498.192 64.5207 497.384C60.4694 487.758 57.7839 475.943 56.117 465.518C55.7146 463.001 56.021 460.418 55.5839 457.879C54.7872 456.882 54.1104 456.321 54.3759 454.892C54.6109 453.627 55.1447 453.448 56.038 452.826L55.4538 452.221C53.4234 451.758 51.7463 454.275 50.0522 455.169C50.2442 454.284 50.3872 453.975 50.1836 453.08L49.613 453.343C49.2753 454.205 49.4162 454.701 49.5926 455.598C50.1857 456.129 50.9564 456.806 51.2758 457.586C51.6564 458.517 51.4494 459.063 51.1771 459.944C50.4083 460.555 50.4744 460.557 49.5361 460.415L49.1888 459.84C49.5831 459.101 49.8125 458.78 49.8581 457.909L49.2045 457.423C47.1434 458.586 48.2383 457.822 46.4611 457.577C46.2895 457.948 46.1161 458.317 45.9409 458.686C44.9761 460.722 43.7634 463.866 41.6526 464.6C41.1712 464.379 40.8641 464.348 40.5536 463.857C38.6791 460.896 39.6943 459.155 40.3378 456.096C39.9612 455.071 39.6807 455.131 38.8152 454.59C37.8204 453.966 37.5311 453.634 37.2226 452.42C37.6645 451.077 38.0084 451.927 38.8956 451.139C39.0563 445.051 42.2164 446.253 44.0725 441.924C43.824 441.011 43.5986 440.824 43.03 440.129L42.6787 440.404C43.0627 441.164 42.9592 440.74 42.9306 441.692C42.0448 442.048 41.8698 442.034 40.9329 441.863C40.1934 441.294 39.8911 440.884 39.458 440.006C39.1462 439.374 38.8976 438.863 38.4448 438.331C37.2158 439.427 37.0966 442.447 35.9125 444.017L35.566 443.254C35.1833 443.119 35.1288 443.071 34.6658 443.076C33.1079 443.094 31.7066 444.176 30.7561 445.404C30.4197 445.838 30.1269 446.281 29.7047 446.624C28.5778 447.539 27.1636 447.047 25.8931 446.796L25.1597 446.471C24.1486 445.309 22.9556 444.536 22.0228 443.269L22.1106 442.57C23.1402 441.629 24.3951 441.336 25.6568 440.923L25.49 440.455C25.1597 439.422 24.5918 438.099 24.9051 437.004C25.4123 435.227 27.1289 434.566 28.535 433.84C35.2895 429.163 36.1121 431.945 42.8156 433.921C44.0003 434.27 45.1654 433.831 46.3372 434.24C47.5567 434.665 48.4146 435.896 49.7901 435.799L50.2599 435.046C49.5579 429.838 38.1561 428.835 36.0766 423.655C36.0726 422.259 36.5288 421.701 37.0571 420.47C36.2428 420.372 35.3706 420.311 34.5759 420.096C33.6962 419.858 33.4463 419.464 33.0466 418.636C33.0868 417.418 33.3449 416.81 33.9175 415.773C34.467 415.349 34.7244 415.005 35.0723 414.378C36.9754 413.059 39.2762 413.135 40.7231 411.105C41.8848 410.604 42.3948 410.314 43.077 409.156L43.2357 408.664C44.5451 407.838 47.3245 408.147 48.8933 408.064C51.6292 410.409 49.7179 415.609 54.4883 415.025C55.016 414.961 54.9016 414.947 55.5083 414.67C56.2362 412.364 56.9818 410.055 57.5612 407.699C58.5472 405.671 60.052 403.585 61.5683 401.991C62.6516 400.852 64.0182 399.942 65.57 400.02C67.7496 400.132 69.0787 402.512 70.3554 404.175C69.3395 405.176 67.469 406.848 67.0952 408.333C66.0562 412.459 70.8981 411.83 72.2742 414.146C71.8643 415.05 71.0758 415.534 70.2553 415.972C69.6936 416.272 69.1659 416.52 68.7212 417.017C67.8122 418.033 66.8542 419.7 66.878 421.144L67.2852 421.561C69.091 421.043 71.3012 420.15 73.1389 420.147C74.34 420.146 75.9177 420.311 76.7498 421.286C76.5489 422.044 76.4331 422.376 76.5455 423.172C77.5314 423.505 78.4575 423.073 79.4523 422.801C80.955 422.389 82.0479 422.268 83.5901 422.435C83.7495 422.452 83.9081 422.473 84.0674 422.492C82.7506 416.801 81.0306 411.246 79.935 405.487C77.9264 394.923 77.6629 383.928 77.5335 373.174C77.4205 373.344 77.3122 373.518 77.1944 373.683C75.296 376.365 74.338 378.753 73.2615 381.905C72.4594 382.611 71.8582 382.527 70.8491 382.654C69.0058 384.397 70.5597 385.733 69.7119 387.659C68.0431 389.217 65.3739 389.364 63.2611 389.589C62.7572 391.783 62.7926 394.442 61.2892 396.143C60.3863 396.504 60.2086 396.558 59.2676 396.386C58.8018 395.848 58.6152 395.615 57.9759 395.324C57.1077 396.061 56.3989 396.395 55.3503 396.761C54.8376 396.939 54.7715 397.153 54.4256 397.586C54.8907 398.276 55.0562 398.363 55.1522 399.245C54.1941 400.491 52.9352 401.326 51.4508 401.604C50.219 401.835 49.4482 401.568 48.4351 400.825C47.1073 398.439 48.9124 396.923 48.6271 394.472C47.8713 394.375 47.221 394.147 46.4999 393.895C46.135 393.424 45.8531 393.344 46.0233 392.644C46.2963 391.52 47.4042 390.698 48.1886 390.024C48.8327 387.583 49.4993 385.944 51.0804 384.044C52.9188 386.992 55.6247 387.723 57.9786 389.84C58.8726 390.645 58.7923 391.701 58.9748 392.873L59.3459 393.004C59.751 392.312 59.8947 391.723 59.943 390.912C60.007 389.846 59.7156 389.169 59.0844 388.38L57.3998 386.27C59.1334 381.864 61.8148 380.195 62.8089 377.728L62.3698 377.398C58.7269 378.062 57.9663 382.872 54.5298 384.142C53.0788 384.677 52.4075 384.333 51.1117 383.661C52.018 381.906 54.3269 380.018 54.4141 377.929C54.4386 377.351 54.3276 377.442 53.9184 376.944C52.6703 378.273 51.9022 379.895 50.2292 380.662C48.6509 381.386 45.7074 382.863 44.0936 382.147C43.7334 379.921 44.2257 377.227 44.4307 374.962L42.4833 377.324C41.4912 378.517 40.9465 379.262 40.5945 380.862C40.4739 381.41 40.621 381.142 40.2131 381.558L39.6684 380.462C38.8861 379.925 38.5231 380.25 37.6618 380.462L37.3159 380.068L37.5229 377.074C36.7439 376.397 36.2612 376.414 35.2922 376.239C34.5548 376.762 33.8167 377.409 32.9152 377.49C32.4086 377.534 32.3106 377.298 31.949 376.985C31.8346 372.537 36.5356 373.634 37.9553 370.831C37.9927 370.416 38.0029 369.785 38.1235 369.374C38.438 368.301 39.1523 368.158 40.0034 367.675L40.1485 366.753L40.8028 366.663C42.3199 365.767 43.4958 364.673 45.1395 363.964C45.2798 363.924 45.4234 363.897 45.5596 363.843C46.709 363.394 48.5501 362.163 48.9546 360.87C49.2603 359.892 49.0499 359.473 48.7149 358.586L48.0388 358.3C46.5598 359.205 46.4189 362.034 45.3138 363.406C45.2137 363.53 45.0993 363.641 44.9917 363.758L43.9513 362.27C43.4474 362.618 43.2336 362.912 42.8367 363.388C42.2157 364.134 41.8752 364.621 40.8947 364.624C39.8141 364.627 39.0079 364.21 38.0703 363.677L37.5978 363.031L38.1248 361.998L37.6359 361.762L36.0372 362.478C35.107 362.577 34.864 362.737 34.0802 362.21C33.748 361.479 33.4463 360.621 32.8927 360.057C32.4713 359.627 32.696 360.157 32.5434 359.208L32.2166 358.448C33.624 356.359 35.2691 354.94 37.2315 353.539C37.2117 354.025 37.2471 353.779 37.0858 354.341C36.8393 355.2 36.5444 356.025 36.5601 356.938C36.5737 357.689 36.6779 357.602 37.1225 358.101C38.0179 358.333 38.4639 358.397 39.3484 358.097C39.7447 357.611 39.9878 357.521 40.0055 356.826C40.0518 354.928 38.7383 353.871 37.5978 352.667L36.8365 349.449C37.0204 349.083 37.2328 348.602 37.5215 348.321C38.6954 347.18 41.5538 347.704 43.0246 347.807C44.5798 347.902 46.297 347.721 47.3197 349.255C48.1988 350.575 47.9414 352.105 47.8256 353.61C47.7712 354.324 47.793 354.912 47.8733 355.617C48.497 356.188 48.6155 356.155 49.468 356.083C50.0114 356.037 50.4403 355.831 50.9306 355.591C51.4263 354.761 51.5155 354.629 51.2295 353.595C50.8632 352.272 50.0611 351.483 50.2939 350.003C50.9197 349.104 51.2254 348.666 52.3169 348.52C52.4272 348.506 52.5395 348.504 52.6505 348.496C55.0732 349.773 59.3166 351.949 62.0021 351.303C62.3092 350.968 62.6101 350.852 62.574 350.336C62.5059 349.355 61.9415 348.491 61.2824 347.875L60.3924 348.807C57.8765 349.027 55.2325 348.293 52.7493 347.851C52.8528 346.859 53.2954 345.94 53.6487 345.029C52.4701 344.634 51.2601 344.089 50.2558 343.295C49.5374 342.727 49.4176 342.341 49.3386 341.417C50.3402 340.14 52.0874 340.147 53.5493 339.986C56.1095 339.704 59.9587 338.87 62.03 340.724L62.0116 341.11C63.1603 340.878 64.2252 340.633 65.3222 340.185C66.3959 339.746 67.3247 339.473 68.4278 339.97C70.2846 340.807 69.9108 344.359 71.3168 345.565C74.1147 343.192 74.0609 334.843 77.8467 333.971L78.3792 334.401C78.484 336.424 78.5501 336.563 79.9575 337.945C80.5331 338.504 81.1134 339.056 81.6986 339.602C81.8164 339.541 81.9355 339.483 82.052 339.419C83.3225 338.729 83.7576 338.171 84.5257 336.901C84.8954 336.29 85.1855 336.065 85.7547 335.711C86.5262 335.737 86.7046 335.902 87.2445 336.539C87.5721 336.924 87.8281 337.532 88.063 337.994L88.5151 337.895C89.6583 335.782 90.6198 331.399 92.7081 330.395C93.7383 330.72 94.121 331.335 94.8741 332.15C95.4835 335.402 96.4756 338.484 96.7336 341.8C97.247 341.424 97.7686 341.061 98.2983 340.713C98.8281 340.364 99.3653 340.03 99.91 339.71C100.455 339.391 101.007 339.086 101.565 338.796C102.124 338.506 102.689 338.231 103.26 337.971C103.831 337.712 104.407 337.468 104.989 337.239C105.571 337.01 106.158 336.797 106.75 336.6C107.341 336.403 107.937 336.222 108.536 336.057C109.137 335.892 109.74 335.743 110.346 335.61C110.953 335.478 111.562 335.361 112.173 335.262C112.785 335.162 113.399 335.078 114.014 335.011C114.63 334.944 115.246 334.894 115.864 334.86C116.482 334.826 117.1 334.809 117.718 334.808C118.337 334.807 118.955 334.823 119.573 334.856C120.191 334.889 120.808 334.938 121.423 335.003C122.039 335.069 122.652 335.151 123.264 335.25C123.876 335.349 124.486 335.464 125.093 335.596C127.146 336.039 129.913 337.653 131.109 339.556C131.166 339.645 131.206 339.745 131.255 339.839C130.007 341.064 117.475 348.017 115.48 348.806C114.438 349.217 113.319 349.171 112.228 349.142C112.249 350.262 113.034 350.18 112.789 351.413L111.638 352.281C112.817 353.252 118.73 354.283 120.81 355.052C121.437 355.891 122.043 356.763 122.727 357.547C126.843 358.521 129.05 359.291 131.453 363.341C132.151 364.539 132.816 365.758 133.449 366.997C131.528 366.837 129.593 366.731 127.69 366.396C126.559 367.642 124.843 369.337 123.095 369.207C121.33 369.074 119.163 366.543 117.44 367.848C116.173 368.807 116.004 369.542 114.214 369.59C112.761 369.629 111.844 367.497 110.602 368.409C110.107 369.68 109.993 370.418 108.951 371.235C107.867 371.311 107.608 371.124 106.764 370.317C106.102 369.684 106.117 369.487 105.222 369.456L104.694 370.017C105.777 373.63 107.634 376.86 109.179 380.247C111.12 384.504 112.336 389.153 113.06 393.829C113.401 396.028 113.842 398.339 112.913 400.424C112.061 401.185 110.958 400.95 109.889 400.841C106.168 400.459 103.123 398.683 100.154 396.322L99.1835 391.677L98.9071 392.09C98.1247 393.243 97.2559 394.708 95.8757 395.016C95.0749 394.469 94.9551 394.063 94.7073 393.072C94.3627 391.691 94.4015 390.093 93.6348 388.896C92.1641 388.353 91.3511 388.274 90.6007 386.69C89.1497 383.624 87.0219 375.62 83.919 374.349C83.3178 374.864 83.3899 375.077 83.3246 375.878C82.7451 382.928 84.954 402.613 86.7005 409.267C88.3102 415.397 90.8635 421.443 91.8686 427.726C92.8416 433.807 92.2621 440.603 92.6407 446.813C93.1786 455.63 97.2872 485.429 102.041 491.624C102.432 492.135 102.238 492.011 102.693 492.151C103.426 490.328 102.176 478.767 102.197 475.502C102.189 470.636 102.324 465.775 102.602 460.919C102.881 456.063 103.302 451.222 103.865 446.395C104.428 441.569 105.133 436.767 105.979 431.989C106.825 427.212 107.81 422.469 108.935 417.761C109.883 413.641 110.644 409.302 112.061 405.346C113.58 401.103 115.836 397.19 117.958 393.28C119.652 390.16 122.707 383.722 125.816 382.294C126.674 381.9 127.461 381.787 128.337 382.213C131.977 383.984 135.015 396.161 136.027 400.177C137.357 405.448 138.009 410.639 138.556 416.052C139.095 421.38 139.584 426.604 139.512 431.98C139.23 452.891 133.229 475.832 126.257 495.272C136.595 497.485 142.881 497.732 153.344 496.744C149.222 483.801 145.506 468.39 144.221 454.717C142.352 434.836 145.148 409.84 153.068 391.777C155.399 386.462 158.591 380.904 162.527 376.827C165.189 379.756 167.127 383.448 168.928 387.047C176.081 401.343 178.3 415.643 178.223 431.783C178.144 448.35 177.847 468.231 173.013 484.101C171.926 487.671 170.361 491.035 168.794 494.377C175.797 493.626 182.997 492.206 189.898 490.693C182.446 470.269 180.527 430.893 184.818 409.25C185.782 404.384 187.57 399.774 189.365 395.216C191.236 390.468 195.098 379.243 198.7 376.547C200.327 376.278 201.395 376.443 202.739 377.551C209.669 383.269 214.111 403.168 215.66 412.476C216.213 420.997 217.191 430.068 216.805 438.576C216.524 444.759 214.735 451.27 214.881 457.4C213.599 463.103 212.456 468.905 210.963 474.545C209.674 479.418 207.91 483.983 207.063 489.001L216.055 487.779L216.696 470.844C216.83 467.869 217.209 464.916 217.222 461.934C217.8 458.055 217.728 453.879 217.893 449.938C218.371 438.607 218.575 427.072 218.159 415.737C218.095 414.009 217.936 413.594 216.816 412.469C218.846 411.402 218.182 406.048 218.624 403.807C219.548 399.135 227.501 381.382 230.614 378.42C237.989 376.803 239.691 397.7 243.978 400.512C245.68 397.961 246.115 394.448 247.546 391.684C250.316 386.335 254.231 381.302 257.756 376.518C260.082 378.247 261.794 380.541 263.128 383.222C264.747 386.477 265.729 390.119 266.667 393.663C271.379 411.454 269.087 427.055 266.639 444.888C265.798 451.013 265.426 457.228 264.075 463.259C262.169 471.766 259.216 480.228 256.986 488.677C263.752 489.394 270.395 488.615 277.118 487.803C276.652 485.511 275.794 483.378 275.026 481.193C268.176 461.706 268.18 430.607 274.916 411.01C276.191 407.298 277.719 403.512 279.635 400.136C280.579 398.474 281.919 396.89 282.644 395.114C282.247 395.088 281.851 395.055 281.457 394.999C281.506 394.121 281.628 393.617 281.212 392.828C281.136 392.682 281.045 392.545 280.962 392.404C282.632 390.343 284.808 391.884 286.705 390.916C287.63 390.444 287.629 389.574 287.881 388.602C307.602 371.785 330.094 353.748 353.004 342.623C359.044 339.69 365.622 337.743 371.928 335.578C378.833 333.206 385.754 330.603 392.788 328.728C396.702 326.793 401.299 325.597 405.404 324.152Z" fill="#6D3A22"/>
<path d="M91.6998 362.77L93.0902 363.12C93.7343 363.982 93.5273 364.346 93.464 365.429C93.0759 365.507 92.6428 365.499 92.2479 365.524C91.6426 364.682 91.7733 363.816 91.6998 362.77Z" fill="#FEFEFE"/>
<path d="M75.9958 425.079C76.9388 425.352 77.5795 425.293 78.1583 426.193L77.7831 427.272C77.0798 427.281 76.5459 427.158 75.8712 426.948L75.5709 426.242L75.9958 425.079Z" fill="#F8F8F5"/>
<path d="M75.5329 450.282C75.9462 450.613 76.1294 450.969 76.4133 451.428C76.2179 452.488 76.0858 452.513 75.332 453.241C74.7744 452.852 74.3012 452.395 73.8048 451.92L73.8797 451.417L75.5329 450.282Z" fill="#FEFEFE"/>
<path d="M72.2834 444.011C73.1032 444.019 73.6009 444.137 74.3554 444.485C74.8749 445.433 74.8313 445.787 74.862 446.866C74.3704 446.675 73.6663 446.478 73.2462 446.151C72.4529 445.534 72.47 444.98 72.2834 444.011Z" fill="#FEFEFE"/>
<path d="M72.2493 422.608C72.7845 422.809 73.3061 423.091 73.8263 423.337C74.4228 424.304 74.3472 424.378 74.2607 425.557C73.6268 425.687 73.2033 425.686 72.568 425.561C72.0042 424.516 72.2017 423.803 72.2493 422.608Z" fill="#F8F8F5"/>
<path d="M40.366 452.593C41.4098 452.521 42.3958 452.475 43.4383 452.576C44.3275 453.294 44.209 453.421 44.4167 454.63C43.7113 454.551 42.9766 454.497 42.2828 454.34C41.179 454.089 40.9679 453.533 40.366 452.593Z" fill="#F8F8F5"/>
<path d="M31.6893 436.328C32.3198 436.663 32.405 436.753 32.7972 437.39C32.9579 438.554 33.1533 439.392 32.6385 440.494C32.0985 440.891 31.9957 440.958 31.3162 441.043C30.7899 439.911 31.5028 437.574 31.6893 436.328Z" fill="#F8F8F5"/>
<path d="M53.6822 391.552C53.8531 392.558 53.8817 393.254 53.5467 394.231C53.1457 395.4 52.4968 396.054 51.4809 396.6C51.2888 396.172 51.1282 395.724 50.9572 395.287C51.4359 393.77 52.6731 392.677 53.6822 391.552Z" fill="#FEFEFE"/>
<path d="M74.2889 356.246C75.3143 356.364 76.0088 356.494 76.9342 357.055C77.6219 357.96 77.6539 358.444 77.7608 359.566C76.9573 359.399 75.8434 359.204 75.1761 358.652C74.3672 357.983 74.4073 357.242 74.2889 356.246Z" fill="#FEFEFE"/>
<path d="M104.376 345.468L102.033 344.18L101.977 343.915C102.794 343.231 103.722 343.02 104.694 342.682C104.856 342.829 105.081 342.933 105.164 343.144C105.013 344.593 105.435 345.242 106.241 346.36C106.407 346.59 106.575 346.817 106.746 347.043L106.489 347.25C105.726 346.691 105.058 346.141 104.376 345.468Z" fill="#F8F8F5"/>
<path d="M25.4872 440.455C27.1009 440.399 28.5969 440.253 30.1391 440.895C29.254 441.774 28.3688 442.797 27.3045 443.402L26.5725 442.918C26.3649 442.355 26.1633 441.839 25.878 441.316C25.8058 441.183 25.7289 441.054 25.654 440.923L25.4872 440.455Z" fill="#F8F8F5"/>
<path d="M32.5409 359.208C33.5085 358.739 34.3814 358.297 35.4396 358.12L35.6833 358.472C35.3538 359.646 34.8444 360.581 35.2019 361.765L36.0347 362.478C35.1045 362.577 34.8615 362.737 34.0777 362.21C33.7455 361.479 33.4438 360.621 32.8902 360.057C32.4688 359.627 32.6935 360.157 32.5409 359.208Z" fill="#F8F8F5"/>
<path d="M79.1995 428.12L79.5107 429.566C79.1457 430.466 79.062 430.469 78.2694 430.961C77.0444 431.007 76.4357 430.87 75.3061 430.35C75.127 429.811 75.001 429.25 74.8581 428.698L75.2278 428.314C75.8243 428.518 76.4657 428.788 77.0798 428.901C78.2265 429.112 78.3061 428.859 79.1995 428.12Z" fill="#F8F8F5"/>
<path d="M110.509 355.177C111.145 355.149 111.787 355.131 112.423 355.141C113.587 355.159 114.115 355.313 114.911 356.238L114.623 357.46C113.127 357.317 111.589 357.76 110.154 357.249L109.871 356.593L110.509 355.177Z" fill="#F8F8F5"/>
<path d="M29.3478 435.07C30.2875 434.522 31.0365 433.783 32.1089 433.967C32.6529 435.04 32.6795 436.195 32.7973 437.39C32.4051 436.753 32.32 436.663 31.6895 436.327C31.5955 436.342 31.4947 436.33 31.4062 436.371C30.1874 436.922 29.4867 437.152 28.1222 437.3L28.0936 436.2L27.6469 437.191C27.9785 436.11 28.5573 435.792 29.3478 435.07Z" fill="#FEFEFE"/>
<path d="M66.3821 423.719C67.2611 423.626 67.9924 423.576 68.8755 423.698L69.1384 424.134C68.3996 425.301 67.2298 426.055 66.1853 426.87C65.6807 427.008 65.1714 427.086 64.658 427.177L64.1657 426.688C64.1739 426.284 64.1487 426.137 64.3135 425.717C64.7268 424.662 65.4833 424.146 66.3821 423.719Z" fill="#FEFEFE"/>
<path d="M106.677 381.207C107.526 381.453 107.478 381.617 107.909 382.405C108.422 383.343 108.609 383.966 108.364 385.027L107.269 384.876C106.152 384.687 104.995 384.598 104.265 383.611C104.608 382.527 105.844 381.838 106.677 381.207Z" fill="#FEFEFE"/>
<path d="M124.946 338.264C125.117 338.443 125.072 338.764 125.106 339.019C124.605 340.014 124.101 340.803 123.369 341.618C122.735 342.324 122.802 342.36 121.918 342.367C121.705 342.14 121.313 341.736 121.142 341.489C120.645 340.766 120.723 340.583 120.909 339.779C121.962 338.794 123.621 338.602 124.946 338.264Z" fill="#FEFEFE"/>
<path d="M81.6564 427.762C82.3482 427.659 83.1463 427.501 83.8217 427.763C85.6779 428.481 87.2024 431.444 87.9398 433.301C86.0796 432.929 82.8222 429.484 81.6564 427.762Z" fill="#FEFEFE"/>
<path d="M35.2911 376.239C36.546 375.063 37.7955 373.475 39.4331 373.161C40.2345 373.673 40.336 373.824 40.801 374.707C40.6083 375.367 40.7363 375.436 40.1262 375.772C39.6687 376.023 39.3214 376.159 38.8509 376.328C38.2796 376.534 37.9862 376.681 37.5218 377.074C36.7428 376.397 36.2601 376.414 35.2911 376.239Z" fill="#F8F8F5"/>
<path d="M38.5357 414.944C38.678 414.95 38.8244 414.925 38.9619 414.964C39.7872 415.2 40.1133 415.455 40.5314 416.196L40.2645 417.115C39.5236 417.896 39.0041 418.244 38.0543 418.68L37.259 417.923L36.3037 418.434L35.8366 418.22L35.7167 417.308C36.275 416.134 37.5123 415.575 38.5357 414.944Z" fill="#F8F8F5"/>
<path d="M97.1683 347.909C98.812 347.617 100.813 348.071 102.477 348.244C103.042 348.641 103.787 349.069 104.259 349.584C105.052 350.452 104.888 351.059 104.894 352.171C102.714 351.777 101.483 349.877 99.4303 349.023C98.6384 348.693 97.9234 348.332 97.1683 347.909Z" fill="#F8F8F5"/>
<path d="M43.4128 419.457C44.33 419.947 45.2451 420.427 46.1807 420.873C45.5032 420.774 45.7837 420.706 45.3193 420.921C44.7841 421.542 44.714 422.198 44.554 423.002L44.4832 423.37L43.8138 423.691C42.6747 423.867 41.6002 424.124 40.4618 423.824L40.5373 423.308C41.6472 422.186 42.5399 421.263 43.2603 419.784C43.3127 419.676 43.3617 419.566 43.4128 419.457Z" fill="#F8F8F5"/>
<path d="M319.532 391.288C319.754 389.963 320.058 388.742 320.462 387.469C320.038 386.954 319.588 386.511 319.108 386.057C318.77 385.116 318.9 384.648 319.084 383.696C319.899 383.65 320.633 383.982 321.397 384.251C322.287 386.331 321.627 390.234 321.493 392.52C321.222 391.32 321.039 390.151 320.891 388.927C320.477 389.764 320.031 390.513 319.532 391.288Z" fill="#F8F8F5"/>
<path d="M43.0737 409.156L43.2323 408.664C44.5417 407.838 47.3211 408.147 48.8899 408.064C48.2274 408.833 47.7528 409.151 47.682 410.28C47.6071 411.468 47.9932 412.291 47.5023 413.462L47.0181 413.593C46.0513 412.535 46.7689 410.698 45.7299 409.986C44.8004 410.251 44.4804 410.497 43.5721 410.097L43.0737 409.156Z" fill="#F8F8F5"/>
<path d="M72.3561 351.284C73.2365 351.509 73.7581 351.761 74.4976 352.33L74.4703 352.915C73.6662 353.007 73.2168 353.024 72.5883 353.608C72.5556 354.801 72.5447 355.446 71.842 356.439C70.6396 355.902 69.8306 355.455 69.2246 354.151C69.369 353.164 69.6127 353.03 70.1745 352.278C70.9603 352.037 71.6262 351.674 72.3561 351.284Z" fill="#FEFEFE"/>
<path d="M100.791 371.853C101.16 371.925 101.421 371.963 101.789 372.101C102.857 372.503 103.828 373.411 104.197 374.604C104.708 376.258 104.193 377.491 103.496 378.952L103.205 379.225L102.788 378.999C102.173 376.659 100.994 374.267 100.791 371.853Z" fill="#FEFEFE"/>
<path d="M62.0276 340.724L62.0092 341.11L60.9947 342.341C61.1227 343.084 61.2779 343.442 61.8942 343.879C62.682 344.438 63.5617 344.342 64.4353 344.248C65.0147 343.679 65.6037 343.146 66.2186 342.623L66.7401 342.794L66.6482 343.347C65.5656 344.585 64.6688 345.661 63.0306 345.893C62.0031 346.037 60.8319 345.753 60.1122 344.883C59.5062 344.151 59.6111 343.493 59.605 342.584C60.2436 341.46 60.9538 341.295 62.0276 340.724Z" fill="#F8F8F5"/>
<path d="M294.632 395.675C294.001 394.495 292.389 392.299 292.451 390.988C292.709 390.93 292.967 390.876 293.225 390.826C294.791 390.535 295.542 390.759 296.816 391.717C296.737 392.958 296.8 394.006 295.984 394.975C295.536 395.223 295.103 395.484 294.632 395.675Z" fill="#FEFEFE"/>
<path d="M105.164 343.144C106.572 343.435 110.421 343.739 111.132 345.116C111.579 345.982 111.517 347.128 111.396 348.083C110.728 348.21 110.319 348.509 109.736 348.071C108.177 346.897 106.369 344.778 105.164 343.144Z" fill="#FEFEFE"/>
<path d="M60.4367 408.483C61.0775 407.289 61.5207 406.151 62.6885 405.513C63.2141 405.576 63.5151 405.468 63.891 405.933C64.595 406.805 64.8401 408.738 64.7128 409.871C64.6488 410.438 64.5971 410.562 64.4609 411.059C62.5673 410.699 61.7876 409.903 60.4367 408.483Z" fill="#FEFEFE"/>
<path d="M109.233 360.854C109.847 360.822 110.577 360.741 111.176 360.941C112.713 361.455 114.864 363.043 115.428 364.763C115.639 365.409 115.576 365.225 115.29 365.877C114.207 366.16 113.154 366.455 112.042 366.558C112.319 362.745 110.873 363.644 109.233 360.854Z" fill="#FEFEFE"/>
<path d="M91.2216 334.636C91.6723 335.009 91.5477 334.826 91.8133 335.34C91.8739 335.457 91.927 335.578 91.9835 335.696L92.5956 335.795C93.3317 336.417 93.3548 336.5 93.6408 337.472C93.3174 338.927 92.3226 340.123 91.5198 341.309C90.619 340.986 89.8067 340.751 89.0788 340.052C88.9453 338.477 90.8001 337.728 91.2216 334.636Z" fill="#FEFEFE"/>
<path d="M76.9171 338.968C77.3617 339.148 77.7104 339.313 78.1046 339.626C79.333 340.599 79.7844 342.248 79.8164 343.818C79.8396 344.916 79.9955 345.92 80.1868 346.997C80.0588 347 79.9288 347.034 79.8035 347.007C79.1151 346.862 78.4001 346.278 77.9412 345.709C76.4929 343.913 76.7462 341.166 76.9171 338.968Z" fill="#F8F8F5"/>
<path d="M65.1025 358.078C65.3803 358.124 65.9788 358.232 66.2355 358.231C67.0526 358.226 67.3801 358.113 68.1938 358.401C68.9121 358.654 68.8658 358.495 69.2356 359.273C68.9653 359.947 68.8195 360.343 68.2694 360.803C67.6947 361.283 67.2392 361.727 66.7189 362.28C65.8338 363.57 64.8907 364.819 63.9742 366.082C64.3562 363.83 65.7003 360.235 65.1025 358.078Z" fill="#F8F8F5"/>
<path d="M417.885 322.677C422.087 324.08 425.325 326.346 429.244 328.337L428.753 330.085C424.526 328.385 421.552 325.409 417.885 322.677Z" fill="#F8F8F5"/>
<path d="M48.0378 370.955L49.3376 371.255C50.4884 373.081 49.1872 375.347 49.2546 377.36C49.2716 377.863 49.2518 378.202 49.1538 378.689C48.494 379.058 48.1229 379.437 47.3691 379.324C47.1152 378.82 46.885 378.344 46.7931 377.77C46.4601 375.699 47.013 372.695 48.0378 370.955Z" fill="#FEFEFE"/>
<path d="M55.2719 358.14L55.8404 357.915L56.204 358.363C54.8095 361.722 53.6853 364.117 50.5934 365.769C50.1263 365.53 49.8907 365.38 49.4944 364.996C50.6301 363.664 51.9068 362.353 52.506 360.626C52.8022 359.774 52.9833 359.281 53.5219 358.581L54.3581 358.789L55.2719 358.14Z" fill="#FEFEFE"/>
<path d="M275.086 475.72C279.881 475.83 281.116 478.265 283.929 478.611L284.166 478.835C281.49 478.881 278.893 479.149 276.238 479.5C275.743 478.29 275.434 476.988 275.086 475.72Z" fill="#388672"/>
<path d="M69.0308 345.877L69.5483 345.999L69.7015 346.422C69.0084 346.976 68.3847 347.527 67.7569 348.173C68.3887 349.222 69.1561 350.024 69.261 351.29C68.3234 352.05 67.2312 351.931 66.0846 352.037C65.6147 352.137 65.9109 352.113 65.198 351.944C65.0977 351.443 65.0087 350.94 64.9311 350.434C64.7793 349.38 64.7425 348.355 65.3383 347.454C66.6824 347.221 67.5866 346.927 68.7305 346.101C68.832 346.028 68.9307 345.951 69.0308 345.877Z" fill="#FEFEFE"/>
<path d="M96.5215 358.328C97.8302 358.922 98.6834 360.735 99.5645 361.929C99.6387 364.139 99.8334 366.154 98.9687 368.207C98.919 368.161 98.8699 368.115 98.8195 368.07C97.7001 367.057 95.8488 361.452 95.7398 359.756C95.699 359.124 96.1729 358.788 96.5215 358.328Z" fill="#FEFEFE"/>
<path d="M221.467 406.104C222.255 406.173 222.814 406.414 223.541 406.729C224.002 407.523 224.272 407.845 224.083 408.847C223.902 409.808 223.121 410.805 222.403 411.324C221.05 411.374 220.373 411.499 219.283 410.516C218.964 409.588 218.877 409.375 219.201 408.391C219.587 407.224 220.52 406.643 221.467 406.104Z" fill="#F8F8F5"/>
<path d="M116.647 359.834C117.731 359.741 118.909 359.556 119.997 359.613C120.94 359.663 121.321 360.058 121.946 360.76L121.839 361.346L120.352 361.902L120.495 362.476C121.023 362.883 121.603 363.264 121.981 363.847C122.262 364.282 122.018 365 121.957 365.504C120.792 365.327 118.748 365.402 117.987 364.466C117.902 363.514 118.354 362.915 118.785 362.134L118.996 361.757C118.006 361.605 117.158 361.452 116.225 361.022L116.106 360.439L116.647 359.834Z" fill="#F8F8F5"/>
<path d="M283.608 398.913C284.839 397.2 286.558 394.099 288.508 393.494L289.158 393.959C290.052 395.105 290.751 396.186 291.39 397.521C290.78 397.828 290.196 398.148 289.551 398.353L288.443 398.267C286.798 397.772 286.387 397.943 284.927 398.838C284.511 399.093 284.131 399.354 283.689 399.546L283.608 398.913Z" fill="#AFAEB7"/>
<path d="M289.159 393.959C290.053 395.105 290.752 396.186 291.391 397.521C290.781 397.828 290.197 398.148 289.552 398.353C289.371 397.902 289.188 397.449 289.03 396.988C288.609 395.756 288.647 395.138 289.159 393.959Z" fill="#FEFEFE"/>
<path d="M413.038 402.773C413.669 402.754 414.267 402.813 414.895 402.87L415.182 403.428C414.643 405.431 413.213 406.377 412.532 408.157C412.321 408.709 412.145 409.034 411.806 409.496C410.596 408.939 409.507 408.143 408.395 407.39C409.799 405.565 411.217 404.095 413.038 402.773Z" fill="#FEFEFE"/>
<path d="M63.6883 370.919C65.0011 370.856 66.3833 370.59 67.628 371.124L67.6988 371.617C66.273 373.565 62.782 375.258 60.5657 375.821L56.8779 377.904C58.9465 375.337 61.0307 372.78 63.6883 370.919Z" fill="#FEFEFE"/>
<path d="M64.0556 378.948C64.7665 379.639 65.1042 380.169 65.175 381.237C65.192 381.489 65.1838 381.742 65.1968 381.995C65.3636 385.316 66.5034 383.293 68.0457 384.799C67.3042 385.533 65.9029 385.734 64.9224 386.015C64.5738 385.506 64.4131 385.308 63.9725 384.947C63.3931 385.191 62.8197 385.437 62.2526 385.713L61.8318 385.924C61.334 385.485 61.2074 385.181 61.208 384.442C61.2094 382.663 62.943 380.104 64.0556 378.948Z" fill="#F8F8F5"/>
<path d="M45.1406 452.909C45.9795 452.927 46.6107 452.973 47.4237 453.243C47.5129 454.191 45.9829 453.988 45.4286 455.07L45.8467 456.111C45.7078 457.764 43.9899 460.14 43.249 461.733C42.5191 461.795 41.9056 461.827 41.239 461.471C40.7113 461.19 40.7678 460.897 40.5894 460.334C40.8632 458.662 41.9853 457.394 43.1142 456.292C44.3296 455.105 44.7695 454.644 45.1406 452.909Z" fill="#FEFEFE"/>
<path d="M103.328 359.478C104.39 359.574 105.351 359.595 106.314 360.145L106.392 360.919C106.006 361.63 105.472 362.445 105.218 363.217C104.909 364.159 105.066 364.375 105.476 365.166L106.111 365.214L107.472 363.895L108.031 364.073C108.5 365.097 108.656 365.836 108.797 366.973C107.103 368.037 105.966 366.086 104.29 366.2C103.97 366.705 103.65 367.088 103.237 367.504L102.993 367.239C103.06 364.649 103.172 362.063 103.328 359.478Z" fill="#F8F8F5"/>
<path d="M57.7871 412.81L58.8629 414.318C59.4934 414.594 60.1389 414.923 60.8375 414.889C62.5643 414.807 63.5829 413.633 64.5934 412.261L64.7779 412.566C65.3301 413.468 65.8068 414.079 66.5837 414.753C66.0423 415.876 65.0544 416.582 64.3122 417.557L62.3682 417.642C61.7724 417.551 61.1582 417.46 60.5808 417.271C59.2973 416.852 58.0792 416.093 57.5147 414.718C57.1926 413.934 57.5324 413.571 57.7871 412.81Z" fill="#F8F8F5"/>
<path d="M47.5909 444.376C48.0362 444.522 50.1545 447.984 50.6782 448.675C48.8247 447.513 46.9557 445.934 44.7223 446.455C44.1633 447.229 44.2436 447.345 44.245 448.349C46.7466 449.674 47.337 446.675 51.3672 450.258C50.9648 450.904 50.5147 451.453 50.0292 452.028L49.3919 451.827C49.2013 451.424 48.9827 450.86 48.726 450.489C47.8592 449.234 43.9747 450.281 42.4726 449.854C41.742 449.647 41.7256 449.475 41.3927 448.795L41.5738 448.164C42.1703 448.267 42.5754 448.297 43.1671 448.156C44.4819 445.733 45.2173 445.291 47.5909 444.376Z" fill="#F8F8F5"/>
<path d="M97.6171 372.997C98.4233 373.049 98.5792 372.87 99.1764 373.518C98.5663 375.504 94.5728 377.748 92.8889 378.948C92.8576 380.78 93.0782 382.636 93.2219 384.46C92.8358 384.591 92.605 384.512 92.2128 384.445C91.905 384.101 91.8267 384.061 91.6156 383.557C90.9089 381.873 91.2847 379.688 91.8832 378.054C92.8093 375.529 95.4205 374.035 97.6171 372.997Z" fill="#F8F8F5"/>
<path d="M117.367 337.863L118.139 338.243C118.079 338.434 118.002 338.618 117.96 338.813C117.782 339.642 118.53 340.677 118.907 341.348C119.631 341.694 120.322 341.949 120.849 342.62C120.243 343.725 118.774 344.519 117.791 345.249C117.4 345.648 117.078 345.771 116.59 345.995C116.192 345.764 116.119 345.74 115.718 345.414C114.929 344.774 114.569 344.102 114.393 343.05C114.536 342.201 114.662 341.75 115.171 341.078C115.957 340.043 116.655 338.959 117.367 337.863Z" fill="#F8F8F5"/>
<path d="M60.0182 408.445L60.437 408.483C61.7879 409.903 62.5675 410.699 64.4611 411.059C64.4264 411.582 64.2773 411.842 64.5939 412.261C63.5834 413.633 62.5648 414.807 60.838 414.889C60.1394 414.923 59.4939 414.594 58.8634 414.318L57.7876 412.81C58.4855 411.202 58.9805 409.859 60.0182 408.445Z" fill="#6D3A22"/>
<path d="M64.0849 431.193C64.268 431.134 64.4539 431.083 64.635 431.018C66.357 430.396 67.2892 428.471 69.1011 427.802L70.1204 428.5C70.9395 427.711 70.8571 426.886 71.7879 426.232L72.8576 426.326C72.5601 427.689 71.1642 428.119 70.8789 429.574C71.6517 430.337 72.8038 430.321 73.798 430.468L74.1139 430.918C73.7435 431.651 73.0762 432.174 72.3224 432.379C69.0875 433.256 69.8439 428.99 65.5434 431.8C64.8808 431.808 64.5131 431.797 63.9235 431.451C62.783 431.52 61.9373 431.867 60.9997 432.59C61.0126 433.343 61.0344 434.037 60.8948 434.777L60.3338 434.359C59.977 433.418 59.802 432.727 60.0771 431.711C60.3651 430.649 60.871 430.22 61.6976 429.665C62.7394 429.713 63.3406 430.484 64.0849 431.193Z" fill="#F8F8F5"/>
<path d="M42.3726 350.106C43.2938 350.356 44.5024 350.808 45.1697 351.564C46.4021 352.96 46.1543 355.612 46.189 357.415C44.558 358.58 42.9384 359.764 41.3301 360.966C40.69 361.229 39.9914 361.382 39.3296 361.573L39.0361 361.243C39.988 359.879 41.2906 358.993 42.5564 358.004C41.7413 354.843 41.7284 353.253 42.3726 350.106Z" fill="#FEFEFE"/>
<path d="M108.093 349.822C109.027 350.287 109.467 350.739 109.952 351.72C109.95 352.98 109.2 354.103 108.413 354.974C105.587 358.106 100.871 357.415 97.1635 357.479L96.1939 354.827C95.6335 354.142 95.306 353.746 95.1256 352.837C96.4465 353.025 98.46 355.194 100.074 355.763C100.209 355.811 100.346 355.853 100.482 355.898C102.056 355.154 104.231 355.011 105.639 354.147C106.456 353.646 107.169 352.377 107.359 351.41C107.514 350.62 107.328 350.961 107.789 350.243C107.882 350.096 107.992 349.963 108.093 349.822Z" fill="#F8F8F5"/>
<path d="M102.149 385.547C102.577 385.913 102.465 385.73 102.69 386.237C102.991 386.913 103.179 387.517 103.664 388.077C104.17 388.662 108.07 387.947 109.091 388.056C110.257 388.18 110.886 388.543 111.635 389.502C111.812 390.335 111.622 390.848 111.389 391.646C110.304 391.751 109.017 390.982 107.998 390.562C107.638 390.354 107.248 390.257 106.858 390.129C106.145 390.793 106.154 392.766 105.979 393.845C105.36 394.655 105.324 394.638 104.373 394.863C103.548 394.268 103.2 393.731 102.857 392.703C102.529 391.718 101.48 387.848 101.604 386.845C101.663 386.373 101.967 385.979 102.149 385.547Z" fill="#FEFEFE"/>
<path d="M99.344 376.286C100.576 377.478 101.599 379.405 102.127 381.092C102.364 381.851 102.586 382.892 102.252 383.655C101.744 383.524 101.086 383.182 100.589 383.425C99.0137 384.197 98.008 387.623 97.3217 389.264C97.1494 389.509 96.9281 389.707 96.7218 389.917C96.6912 387.038 95.1966 383.453 95.7474 380.769C95.9667 380.847 96.1805 380.947 96.4052 381.002C96.9649 381.139 97.2747 381.149 97.7275 380.767C99.0566 379.647 99.0954 377.964 99.344 376.286Z" fill="#FEFEFE"/>
<path d="M55.2415 351.5C56.5448 352.106 57.9672 352.68 59.1683 353.504C60.4293 354.368 61.4418 355.896 61.7414 357.499C61.9614 358.679 61.6591 360.024 61.0449 361.013C60.1604 362.435 59.3787 363.024 57.8419 363.345C58.117 361.547 58.3787 359.747 58.627 357.944C57.7874 356.813 56.9724 355.378 55.7025 354.822C55.2191 355.053 54.7976 355.229 54.2855 355.384C54.0193 354.732 54.0963 354.97 53.9138 354.346L53.7987 353.936L52.601 353.354C53.572 352.93 54.1943 352.493 54.9869 351.745L55.2415 351.5Z" fill="#FEFEFE"/>
<path d="M291.393 397.521C293.647 398.882 295.224 404.235 295.91 406.8C296.677 409.666 297.743 413.735 297.234 416.677C296.733 414.902 296.589 413.193 295.826 411.495L295.745 409.965C295.772 408.597 295.273 407.064 294.978 405.735C294.349 403.984 293.691 402.351 292.856 400.7C290.592 400.533 288.396 400.537 286.129 400.64L285.38 400.966L283.837 401.67L281.714 403.963C279.861 406.08 279.232 408.863 277.596 410.989L277.411 410.773C277.423 410.094 277.346 410.17 277.54 409.687C278.27 407.87 281.104 400.667 282.261 399.531C282.502 399.294 283.282 399.065 283.612 398.913L283.692 399.546C284.135 399.354 284.515 399.093 284.93 398.838C286.391 397.943 286.801 397.772 288.447 398.267L289.554 398.353C290.2 398.148 290.784 397.828 291.393 397.521Z" fill="#6D3A22"/>
<path d="M40.0043 367.675L40.1493 366.754L40.8037 366.663C40.8983 366.712 40.9923 366.763 41.0883 366.809C42.5754 367.518 43.1017 366.887 44.5228 366.939C46.8773 367.026 49.2128 367.605 51.5803 367.59C54.2822 367.572 58.5358 365.946 60.9795 367.072C59.7444 368.727 55.5677 369.248 53.6911 369.461C50.4446 369.83 46.7071 369.451 43.9079 371.33C43.7043 371.467 43.2631 371.703 43.0472 371.824C42.4882 372.138 42.5924 372.239 41.9605 372.045C41.9687 371.898 41.9782 371.752 41.9843 371.606C42.0075 371.069 41.9932 370.55 41.97 370.014L41.5867 369.645C40.9868 369.055 40.502 368.364 40.0043 367.675Z" fill="#F8F8F5"/>
<path d="M341.177 365.01C345.997 363.69 350.401 358.575 355.726 356.801C354.485 358.312 353.243 359.806 352.132 361.437C351.7 361.366 351.273 361.201 350.838 361.222C349.861 361.268 346.413 364.058 345.488 364.673C340.134 368.229 333.963 371.076 328.934 375.089C328.842 375.164 328.75 375.24 328.658 375.316C327.573 376.438 326.406 377.798 325.071 378.549C323.77 379.279 320.056 380.652 318.749 380.133C320.467 377.589 325.445 376.447 327.988 374.654C328.098 374.576 328.206 374.494 328.315 374.414C330.398 372.812 332.363 371.096 334.537 369.626C335.497 368.978 338.047 367.798 338.654 366.982C338.803 366.783 338.821 366.502 338.905 366.262C339.81 365.973 340.399 365.569 341.177 365.01Z" fill="#F8F8F5"/>
<path d="M222.24 400.522C223.459 400.538 227.448 400.738 228.314 401.432C227.967 401.967 227.725 402.357 227.506 402.974C228.772 402.922 228.803 402.821 229.696 401.852C230.149 401.36 230.658 401.062 231.322 401.084C232.094 401.109 241.955 402.969 242.461 403.18C243.094 403.443 243.29 403.83 243.735 404.366L242.976 405.341C239.61 406.608 231.081 404.556 226.977 404.505C224.832 404.478 221.481 405.417 219.547 404.823L219.497 403.932C220.126 402.463 221.155 401.581 222.24 400.522Z" fill="#F8F8F5"/>
<path d="M277.911 480.968C282.606 480.725 286.964 480.861 291.622 481.564C291.163 483.771 290.562 485.922 289.961 488.085C286.458 488.17 282.879 487.934 279.371 487.854C278.68 485.82 277.692 483.571 277.443 481.426L277.911 480.968Z" fill="#F8F8F5"/>
<path d="M404.575 418.569C405.101 420.261 405.641 421.947 406.196 423.627C404.565 424.452 402.975 425.363 401.426 426.359C399.877 427.355 398.377 428.432 396.926 429.589C395.475 430.747 394.079 431.98 392.739 433.288C391.399 434.596 390.122 435.973 388.906 437.419C388.173 435.796 388.113 434.013 387.957 432.243C390.369 428.454 400.574 421.369 404.575 418.569Z" fill="#FEFEFE"/>
<path d="M407.51 418.962C411.861 420.626 419.483 427.446 422.956 430.941C423.133 432.908 423.127 434.905 423.178 436.881C417.758 433.607 412.691 428.743 407.573 424.863C407.417 422.846 407.308 420.983 407.51 418.962Z" fill="#FEFEFE"/>
<path d="M163.094 380.863C166.174 384.744 168.125 389.206 169.916 393.908L164.16 393.637C161.896 393.605 159.247 393.835 157.081 393.12C156.628 392.581 156.574 392.769 156.647 392.16C157.075 388.594 160.716 383.233 163.094 380.863Z" fill="#FEFEFE"/>
<path d="M163.258 486.547C165.125 486.265 167.172 486.333 169.064 486.251C167.759 488.978 166.642 491.804 165.497 494.613C163.621 495.301 161.68 495.603 159.735 495.958L156.369 496.335C155.728 494.842 154.682 492.934 154.519 491.292C154.428 490.39 154.547 489.35 155.145 488.669C156.76 486.826 160.99 486.843 163.258 486.547Z" fill="#FEFEFE"/>
<path d="M275.082 475.72C274.964 474.56 274.646 473.526 275.122 472.461C279.315 470.561 289.57 472 294.14 472.465L292.449 479.737C289.707 479.071 286.955 479.012 284.161 478.835L283.924 478.611C281.111 478.265 279.876 475.83 275.082 475.72Z" fill="#45A784"/>
<path d="M394.881 483.526C402.373 483.412 412.884 482.963 420.222 483.725C423.227 484.038 426.21 484.921 429.21 485.397C426.505 485.571 423.877 485.898 421.2 486.352C409.9 487.941 399.132 487.385 387.882 485.735C390.203 484.723 392.421 483.994 394.881 483.526Z" fill="#F8F8F5"/>
<path d="M292.852 400.7C293.687 402.351 294.346 403.984 294.975 405.735C295.27 407.064 295.768 408.597 295.742 409.965L293.463 409.827C291.415 409.147 288.995 409.55 286.901 409.816C283.867 410.554 280.585 411.682 277.801 413.204C277.113 413.086 277.373 413.271 276.991 412.706L277.593 410.989C279.228 408.863 279.857 406.08 281.71 403.963L283.833 401.67L285.376 400.966L286.126 400.64C288.393 400.537 290.588 400.533 292.852 400.7Z" fill="#45A784"/>
<path d="M289.421 401.997C290.201 403.718 290.074 405.238 289.885 407.1L293.168 407.794L294.453 408.137C295.109 407.462 294.926 406.688 294.979 405.735C295.274 407.064 295.772 408.597 295.745 409.965L293.467 409.827C291.419 409.147 288.999 409.55 286.905 409.817L289.178 408.588L289.544 406.859C288.925 406.283 289.231 406.427 288.476 406.239C287.601 406.022 288.074 406.192 287.238 405.879C287.088 405.822 286.939 405.76 286.789 405.701C287.826 404.788 288.262 403.652 289.047 402.528L289.421 401.997Z" fill="#388672"/>
<path d="M281.71 403.963C282.064 405.688 282.486 407.388 282.886 409.1C283.616 407.766 284.259 406.507 285.299 405.423C286.146 405.214 286.055 405.32 286.786 405.701C286.935 405.76 287.084 405.822 287.234 405.879C288.07 406.192 287.597 406.022 288.472 406.239C289.227 406.427 288.922 406.283 289.541 406.859L289.174 408.588L286.901 409.817C283.867 410.554 280.585 411.682 277.801 413.204C277.113 413.086 277.373 413.271 276.991 412.706L277.593 410.989C279.228 408.863 279.857 406.08 281.71 403.963Z" fill="#3B9487"/>
<path d="M289.176 408.588C288.764 408.556 288.209 408.559 287.798 408.451C287.097 408.266 287.062 408.112 286.72 407.476L287.172 406.875C288.228 406.515 288.45 406.586 289.542 406.859L289.176 408.588Z" fill="#45A784"/>
<path d="M158.729 416.342C163.758 415.917 168.928 416.404 173.997 416.104C174.326 418.007 174.341 419.982 174.437 421.913L164.779 421.806C159.396 421.753 154.024 421.988 148.662 422.51C148.752 420.567 148.967 418.622 149.139 416.685C152.337 416.608 155.534 416.494 158.729 416.342Z" fill="#FEFEFE"/>
<path d="M407.143 325.851C409.832 324.569 412.369 323.473 415.246 322.79C407.505 327.788 399.361 332.257 391.461 336.971C386.808 339.747 382.138 342.444 377.435 345.117C375.342 346.307 373.166 347.805 370.985 348.758C368.983 350.294 358.634 357.241 356.672 356.992C356.516 356.972 356.364 356.923 356.21 356.889C356.615 355.746 357.638 354.739 358.389 353.826C359.1 352.119 367.171 347.608 369.047 346.728C372.3 346.286 381.074 338.497 385.678 336.798C387.23 335.691 389.026 334.392 390.124 332.746L389.826 332.307C388.57 332.164 387.623 332.439 386.413 332.795C387.388 332.014 388.231 331.238 389.419 330.911L390.094 331.98L390.475 331.835C390.904 331.022 391.18 330.468 391.927 329.965C392.108 329.844 392.294 329.73 392.477 329.612L394.411 330.011L393.984 331.585C396.793 330.621 399.096 329.803 401.762 328.356C403.632 327.781 405.388 326.751 407.143 325.851Z" fill="#F8F8F5"/>
<path d="M158.711 400.35C161.239 400.064 168.097 399.248 170.214 400.345C172.737 401.653 173.529 406.371 174.31 409.078C171.521 409.466 168.672 409.536 165.864 409.704C160.794 409.864 155.73 410.331 150.667 410.656C150.882 407.352 151.712 404.175 152.54 401.004C154.591 400.746 156.655 400.563 158.711 400.35Z" fill="#FEFEFE"/>
<path d="M192.737 475.188L194.205 475.354C198.601 480.36 197.238 477.002 200.723 477.057C202.64 477.088 204.74 477.638 206.638 477.976C206.268 480.355 205.85 482.778 205.207 485.088C204.709 486.875 204.292 488.858 202.737 489.772C199.557 490.898 196.61 491.573 193.264 491.708C193.198 491.597 193.132 491.487 193.068 491.375C191.408 488.466 188.106 481.286 188.831 477.911C191.514 476.915 190.586 476.185 192.737 475.188Z" fill="#FEFEFE"/>
<path d="M231.491 381.06C232 381.168 232.099 381.167 232.632 381.399C236.435 383.055 240.664 396.169 242.458 400.509C239.509 400.159 236.525 399.684 233.556 399.719C231.045 399.261 225.102 400.222 223.315 399.115C222.934 398.879 222.789 398.336 222.755 397.885C222.491 394.409 229.245 383.696 231.491 381.06Z" fill="#FEFEFE"/>
<path d="M286.902 409.817C288.996 409.55 291.416 409.147 293.464 409.827L295.743 409.965L295.824 411.495C296.587 413.193 296.731 414.902 297.232 416.677L298.039 421.646L294.063 421.205C292.767 420.858 291.436 420.952 290.109 420.961C288.106 420.948 286.233 420.976 284.283 421.574L282.511 422.062C281.439 422.43 280.12 423.329 279.026 423.269C277.809 423.705 276.529 424.08 275.353 424.628L274.566 424.091C274.274 422.218 275.273 420.521 275.098 418.574C275.169 417.953 275.106 418.066 275.311 417.58C276.077 415.765 276.848 414.807 278.583 414.148L278.936 413.42L277.802 413.204C280.586 411.682 283.868 410.554 286.902 409.817Z" fill="#ACD3C1"/>
<path d="M286.899 409.817C288.993 409.55 291.413 409.147 293.461 409.827L295.74 409.965L295.821 411.495C293.919 411.233 292.197 411.048 290.278 411.227C287.271 411.508 283.021 411.593 280.58 413.731L278.58 414.148L278.934 413.42L277.799 413.204C280.583 411.682 283.865 410.554 286.899 409.817Z" fill="#83090B"/>
<path d="M278.583 414.148L280.583 413.731C279.987 414.822 279.491 415.554 278.589 416.361C279.143 417.108 279.7 417.822 280.313 418.514C281.297 419.624 281.66 420.965 282.511 422.062C281.439 422.43 280.12 423.329 279.026 423.269C277.809 423.705 276.529 424.08 275.353 424.627L274.566 424.091C274.274 422.218 275.273 420.521 275.098 418.574C275.169 417.953 275.106 418.066 275.311 417.579C276.077 415.765 276.848 414.807 278.583 414.148Z" fill="#A1D7C0"/>
<path d="M275.098 418.574L277.712 418.882C278.418 420.314 278.71 421.703 279.026 423.269C277.809 423.705 276.529 424.08 275.353 424.628L274.566 424.091C274.274 422.218 275.273 420.521 275.098 418.574Z" fill="#ACD3C1"/>
<path d="M290.283 411.227C292.203 411.048 293.925 411.233 295.826 411.495C296.59 413.193 296.733 414.902 297.235 416.676L298.042 421.646L294.066 421.204C292.77 420.857 291.439 420.952 290.112 420.961C288.109 420.948 286.236 420.976 284.286 421.574C284.466 421.022 284.652 420.525 284.688 419.933C284.72 419.38 283.954 418.747 283.608 418.34L284.676 417.644C284.931 417.012 285.164 416.55 285.577 416.025L286.999 416.495C287.596 416.509 287.844 416.413 288.384 416.098C289.864 415.236 292.293 413.866 292.731 412.046C291.964 411.252 291.314 411.369 290.283 411.227Z" fill="#A1D7C0"/>
<path d="M472.591 357.672C479.777 361.739 488.737 365.023 495.487 369.631C495.929 371.272 496.597 372.925 495.93 374.542C489.414 374.689 482.92 375.517 476.392 375.642C475.526 369.557 473.467 363.78 472.591 357.672Z" fill="#FEFEFE"/>
<path d="M258.066 382.284C258.378 382.732 258.626 383.244 258.89 383.726C259.028 385.954 258.298 388.119 257.981 390.31C256.838 398.22 255.137 406.183 254.32 414.125C253.612 421.014 253.354 427.961 252.853 434.871L250.345 468.155C250.041 472.643 250.257 482.147 249.142 485.965C248.848 486.972 248.539 486.969 247.715 487.444C247.132 487.068 246.859 486.89 246.574 486.208C246.603 480.708 247.44 475.287 247.7 469.804C248.12 460.945 248.07 452.061 248.617 443.205C249.151 434.555 250.41 425.892 251.368 417.282C252.392 408.093 253.031 398.107 255.215 389.17C255.841 386.612 256.707 384.489 258.066 382.284Z" fill="#F8F8F5"/>
<path d="M277.799 453.886L282.023 453.65L282.159 455.114C285.203 455.348 289.623 455.232 292.312 456.866C293.882 457.368 295.516 457.799 297.05 458.412L296.923 458.895C296.695 463.395 295.608 467.155 294.04 471.282C285.955 469.214 282.288 470.405 274.332 470.766C273.535 466.212 273.225 461.481 272.634 456.882L272.549 454.65C274.302 454.326 276.029 454.069 277.799 453.886Z" fill="#DB7736"/>
<path d="M277.797 453.886L282.021 453.65L282.158 455.114L277.523 455.818L277.797 453.886Z" fill="#54141D"/>
<path d="M272.549 454.65C274.302 454.326 276.029 454.069 277.799 453.886L277.524 455.818C275.898 456.19 274.273 456.585 272.634 456.882L272.549 454.65Z" fill="#6D3A22"/>
<path d="M292.313 456.866C293.882 457.368 295.516 457.799 297.05 458.412L296.923 458.896C296.22 459.611 295.825 460.025 295.524 461.032C294.796 463.473 293.455 467.457 291.805 469.288L291.393 469.018C290.648 465.501 291.569 461.487 292.416 458.06C292.451 457.918 292.49 457.776 292.526 457.634L291.999 457.3L292.313 456.866Z" fill="#E28943"/>
<path d="M283.676 440.739L285.871 441.096C288.292 441.151 290.704 441.403 293.116 441.617L298.933 443.065C298.852 445.708 298.661 455.036 297.207 456.847L296.522 457.019L297.047 458.412C295.513 457.799 293.879 457.368 292.31 456.866C289.621 455.233 285.2 455.348 282.157 455.114L282.02 453.65L277.796 453.886C276.026 454.069 274.299 454.326 272.546 454.65C272.388 450.896 271.173 446.413 272.383 442.866C273.383 441.912 274.169 441.959 275.459 441.71C277.571 441.372 279.639 441.05 281.777 440.988L283.676 440.739Z" fill="url(#paint0_linear_60_5)"/>
<path d="M283.677 440.739L285.872 441.096C285.557 441.561 285.235 442.079 284.853 442.479C284.241 443.122 283.845 443.214 283.028 443.191C282.224 442.52 282.102 441.992 281.778 440.988L283.677 440.739Z" fill="#45A784"/>
<path d="M282.023 453.65C287.438 453.652 291.633 454.3 296.524 457.019L297.05 458.412C295.516 457.799 293.882 457.368 292.312 456.866C289.623 455.232 285.203 455.348 282.159 455.114L282.023 453.65Z" fill="#54141D"/>
<path d="M403.676 379.2C404.179 379.179 404.524 379.04 404.962 379.368C405.799 379.999 406.071 381.003 406.21 382.049C406.702 385.771 406.658 403.366 404.924 405.905C402.918 406.572 398.821 401.175 394.772 400.809C394.645 400.798 394.517 400.789 394.389 400.779C392.323 401.261 390.489 401.901 388.539 402.787C388.142 398.899 386.528 383.539 388.445 381.178C390.655 378.457 400.233 379.293 403.676 379.2Z" fill="#FEFEFE"/>
<path d="M290.108 420.961C291.434 420.952 292.766 420.858 294.062 421.205L293.154 421.632L293.421 422.375C294.976 422.715 296.603 422.88 297.886 423.958C298.167 424.602 298.299 425.006 298.311 425.721C298.194 430.801 298.334 435.859 298.478 440.937C296.417 440.631 294.423 440.263 292.401 439.725C289.322 438.797 285.729 438.959 282.539 438.846L282.017 440.037L282.203 440.453L283.677 440.739L281.778 440.988C279.64 441.05 277.573 441.372 275.46 441.71C274.949 440.621 274.788 440.293 273.734 439.917C272.978 439.843 272.971 439.998 272.416 439.362C272.019 437.761 272.12 436.2 272.283 434.563C272.571 431.684 273.236 427.338 275.39 425.495L275.351 424.628C276.528 424.08 277.807 423.705 279.025 423.269C280.118 423.329 281.437 422.43 282.509 422.062L284.281 421.574C286.232 420.976 288.105 420.948 290.108 420.961Z" fill="#D34F63"/>
<path d="M277.773 434.008C277.374 433.186 277.201 432.752 277.234 431.816C277.651 430.975 277.939 430.579 278.661 430.037L279.334 430.188C279.628 431.12 279.227 431.66 278.917 432.553L277.773 434.008Z" fill="#A32D2F"/>
<path d="M285.358 432.824C285.811 432.017 286.018 431.456 286.861 431.094C287.384 431.257 287.507 431.158 287.803 431.728C288.12 432.338 288.262 433.006 288.122 433.71C288.05 434.077 287.848 434.402 287.676 434.717L287 435.009L286.076 434.543L285.358 432.824Z" fill="#D55E6F"/>
<path d="M287.013 426.298C287.09 425.802 287.142 425.445 287.386 425.007C287.641 424.55 288.316 424.34 288.794 424.24C289.528 424.085 290.273 424.136 290.895 424.609L290.816 425.389C290.132 426.387 289.537 427.697 288.447 428.083C287.732 427.582 287.46 427.063 287.013 426.298Z" fill="#D55E6F"/>
<path d="M278.915 432.553C279.933 432.028 280.303 431.693 281.442 431.834C281.859 432.574 281.856 432.695 281.663 433.59C281.387 434.87 280.549 436.049 279.837 437.083C279.298 436.418 277.725 434.888 277.565 434.113L277.772 434.008L278.915 432.553Z" fill="#D55E6F"/>
<path d="M273.735 439.917C276.472 439.096 279.711 439.063 282.541 438.846L282.019 440.037L282.204 440.453L283.679 440.739L281.78 440.988C279.641 441.05 277.574 441.372 275.462 441.71C274.951 440.621 274.789 440.293 273.735 439.917Z" fill="#6D3A22"/>
<path d="M290.109 420.961C291.435 420.952 292.766 420.858 294.063 421.205L293.155 421.632L293.422 422.375C291.463 422.343 289.505 422.385 287.548 422.5C286.1 422.961 283.012 423.229 281.911 424.075C279.756 424.794 277.672 425.51 275.391 425.495L275.352 424.628C276.529 424.08 277.808 423.705 279.026 423.269C280.119 423.329 281.438 422.43 282.51 422.062L284.282 421.574C286.233 420.976 288.106 420.948 290.109 420.961Z" fill="#6D3A22"/>
<path d="M408.333 378.902C413.049 378.896 417.843 378.891 422.532 379.463C423.186 386.199 422.572 393.247 422.733 400.035C422.805 403.061 422.817 406.2 423.174 409.204C423.387 410.994 423.843 412.811 423.957 414.605C424.012 415.467 424.072 416.133 423.517 416.79C423.371 416.785 423.225 416.786 423.079 416.774C420.105 416.538 415.182 412.757 413.32 410.375C413.134 409.32 413.292 409.207 413.739 408.228C414.184 407.444 414.63 406.656 415.115 405.901C415.852 404.754 416.94 403.409 418.301 403.257C418.816 403.199 418.876 403.473 419.211 403.831C419.367 404.745 419.365 405.512 419.306 406.43C419.269 407.005 419.597 407.195 419.919 407.629L420.213 407.506C420.587 406.359 420.425 405.095 420.386 403.895C420.902 402.968 421.639 402.766 422.506 402.279L422.275 401.946C421.492 401.786 420.706 401.652 419.916 401.544C414.393 400.835 411.406 402.39 407.15 406.055C407.326 400.379 407.586 394.696 407.693 389.02C407.735 386.833 407.366 384.382 407.742 382.244L408.333 378.902Z" fill="#FEFEFE"/>
<path d="M407.611 436.438C410.911 437.341 418.141 444.564 421.86 447.12C421.743 452.359 422.026 457.622 422.034 462.865C422.04 466.845 421.78 470.815 421.67 474.791C421.613 476.853 422.001 478.92 421.666 480.951C418.854 481.546 410.077 482.263 407.7 480.992C406.044 473.166 407.463 459.53 407.514 450.956C407.542 446.243 406.974 441.062 407.611 436.438Z" fill="#FEFEFE"/>
<path d="M405.351 435.106C405.618 435.419 405.707 435.764 405.754 436.196C406.345 441.561 405.959 478.632 403.564 481.552C402.55 481.699 392.676 481.491 392.065 481.282C391.54 481.102 391.563 480.69 391.372 480.181C391.553 470.381 389.336 460.733 388.436 450.985C391.579 447.421 395.328 444.564 398.811 441.415C401.054 439.388 403.095 437.123 405.351 435.106Z" fill="#FEFEFE"/>
<path d="M386.415 332.795C387.625 332.439 388.572 332.164 389.828 332.307L390.125 332.746C389.028 334.392 387.232 335.691 385.68 336.798C381.076 338.497 372.302 346.286 369.049 346.728C367.173 347.608 359.101 352.119 358.391 353.826C352.809 357.061 345.645 360.101 341.18 365.01C340.402 365.569 339.813 365.973 338.908 366.261C334.677 368.714 323.72 376.93 320.497 377.849C319.333 378.181 318.244 378.403 317.274 379.209L317.134 379.603L317.507 380.276C310.24 382.432 298.538 386.769 291.556 387.533C296.967 383.64 301.587 379.056 306.719 374.813C310.08 372.034 313.753 369.717 317.202 367.074C319.886 365.119 322.542 363.119 325.17 361.076C328.575 357.768 332.866 355.093 337.016 353.074C341.019 350.444 345.384 348.708 349.361 346.098C351.927 345.19 356.026 342.574 358.579 343.407C358.994 342.79 359.464 342.111 360.045 341.668C360.588 341.255 361.022 341.315 361.65 341.402C362.17 341.473 362.626 341.545 363.155 341.542L363.753 341.535C365.391 338.709 382.444 334.074 386.415 332.795Z" fill="#FEFEFE"/>
<path d="M358.577 343.407C358.992 342.79 359.462 342.111 360.043 341.669C360.586 341.255 361.021 341.315 361.648 341.402C362.168 341.473 362.625 341.545 363.153 341.542L363.752 341.536C363.579 342.966 362.927 343.897 361.772 344.701C361.054 345.201 360.57 345.236 359.745 345.334L359.092 344.996L358.577 343.407Z" fill="#F8F8F5"/>
<path d="M337.015 353.074C341.018 350.444 345.383 348.708 349.36 346.098L348.397 347.687L348.694 348.106L350.019 348.277L349.608 349.535L349.737 349.163C347.709 350.22 340.504 354.486 339.183 354.93C335.426 358.095 327.326 361.37 324.717 364.904C323.691 366.294 322.703 368.005 320.909 368.146C319.53 368.255 318.358 367.861 317.201 367.074C319.886 365.119 322.541 363.119 325.169 361.076C328.575 357.768 332.866 355.093 337.015 353.074Z" fill="#F8F8F5"/>
<path d="M125.835 386.416C125.884 386.476 125.942 386.528 125.982 386.596C126.584 387.622 124.752 398.172 124.524 400.273C123.081 413.555 121.98 426.915 120.338 440.167C118.911 451.682 117.57 463.267 115.971 474.75C115.066 481.246 113.871 487.654 113.064 494.178L105.852 494.127C105.069 482.452 104.564 470.642 105.522 458.957C107.191 438.61 109.845 418.02 117.885 399.344C119.874 394.724 122.187 389.741 125.835 386.416Z" fill="#FEFEFE"/>
<path d="M69.6813 435.316C68.6967 435.382 67.9457 435.3 67.0932 435.894C66.9652 436.7 66.9564 436.997 66.4811 437.657C65.568 437.288 64.9858 436.701 64.3056 435.961C64.627 434.795 65.2432 434.423 66.0617 433.62C66.7868 433.84 67.3949 434.022 68.1527 434.001C68.3427 433.996 68.5326 433.985 68.7233 433.977C74.8113 433.666 80.2789 433.507 85.9924 436.116C87.886 453.595 90.3352 478.225 81.1927 493.7C77.556 493.792 74.1814 494.502 70.5978 494.966C63.432 481.839 60.628 472.402 60.1998 457.067C60.1337 454.711 59.6074 451.283 59.9512 449.015C60.0179 448.573 60.1106 448.455 60.2924 448.112L60.8902 447.811C61.5044 448.06 61.9933 448.333 62.5414 448.723C63.1065 448.637 63.6478 448.542 64.2069 448.41C64.2573 448.573 64.3063 448.735 64.3594 448.897C64.5351 449.429 64.7366 449.884 64.9838 450.378C65.8301 450.714 66.0977 450.849 66.9938 450.457C68.0894 449.979 69.3872 447.333 70.2724 447.511C70.382 449.104 70.4045 450.921 71.5279 452.104C71.7901 452.38 72.2123 452.597 72.5241 452.802C73.4542 453.41 73.8117 454.125 74.3054 455.128C76.6674 454.58 79.2038 450.101 80.4771 447.968C80.9905 447.106 81.5638 446.275 81.4977 445.23C77.2019 442.042 74.4667 437.728 69.6813 435.316Z" fill="#FEFEFE"/>
<path d="M234.37 414.177C234.171 413.289 233.725 412.011 233.685 411.124C233.673 410.857 234.208 409.435 234.152 409.336C234.033 409.128 233.778 409.064 233.591 408.927L232.694 408.963C232.233 409.546 231.817 410.133 231.411 410.763C230.501 411.162 230.127 411.124 229.181 410.864C228.814 411.411 228.48 411.934 228.19 412.536C227.968 410.462 226.851 409.751 225.594 408.318C225.201 407.869 225.133 407.266 224.996 406.686C227.412 404.726 236.78 406.876 240.023 407.09C240.817 407.819 241.642 408.267 241.92 409.38C241.367 409.909 240.815 410.316 240.187 410.734L240.24 411.27C240.331 412.255 240.573 413.212 240.067 414.093L239.534 413.969C238.953 412.649 238.378 410.325 237.301 409.498L236.468 409.363C235.984 410.813 236.421 412.912 236.543 414.462C237.281 414.721 237.995 414.944 238.659 415.396C241.098 419.984 234.495 423.838 234.732 428.655L235.116 428.783C235.479 428.028 235.778 427.396 236.287 426.738C237.389 431.719 233.877 437.643 233.813 442.758C233.711 450.904 234.252 459.263 234.618 467.405C234.908 473.9 235.308 478.086 234.585 484.59C234.482 484.597 234.379 484.6 234.277 484.611C231.257 484.941 230.075 483.711 228.007 483.772C227.895 483.774 227.763 483.743 227.674 483.816C226.996 484.384 227.447 485.211 226.366 485.804L225.599 485.478C225.394 483.451 226.337 481.54 226.592 479.547C226.792 477.987 226.643 476.335 226.513 474.773C226.396 475.102 226.264 475.453 226.179 475.789C225.698 477.687 225.669 478.555 224.286 479.991C223.859 480.435 223.978 480.128 223.94 480.78C224.793 480.678 224.359 480.703 225.244 480.709C225.47 481.364 225.648 481.886 225.587 482.606C225.504 483.586 225.055 484.411 224.318 484.978C223.452 485.645 222.552 485.771 221.535 485.577C220.763 485.429 220.143 485.455 219.365 485.548C218.823 485.614 219.156 485.661 218.484 485.203C217.95 483.708 217.549 481.878 218.104 480.337C218.613 479.886 219.15 479.422 219.583 478.881C220.5 477.736 220.752 475.236 220.587 473.802L219.655 473.544C219.342 473.094 219.32 473.095 219.049 472.532C218.518 471.427 218.533 469.895 218.522 468.68C218.452 460.05 219.301 451.486 219.593 442.877C219.725 439.008 219.199 425.891 220.163 423.141C220.369 422.553 220.997 422.434 221.488 422.178C222.365 420.833 219.433 417.695 219.624 414.081C220.041 413.299 220.323 413.063 221.058 412.652C222.21 412.603 223.015 413.35 223.915 414.037L224.467 414.463L225.118 414.155C225.621 413.301 226.029 412.473 226.828 411.909L227.077 412.203C226.947 413.132 226.86 414.03 226.81 414.969C227.252 415.791 227.318 415.888 228.09 416.324C229.062 415.534 229.141 414.471 229.733 413.352C230.156 412.554 230.538 412.412 231.32 412.218C232.551 412.513 233.388 413.354 234.37 414.177Z" fill="#FEFEFE"/>
<path d="M226.217 462.152C226.662 463.152 226.778 464.432 226.827 465.534C226.897 467.104 226.789 467.882 225.816 469.074C225.314 468.54 225.403 468.74 225.152 468.163C224.541 466.757 225.788 463.598 226.217 462.152Z" fill="#6D3A22"/>
<path d="M223.758 444.302L224.203 445.011C224.173 447.722 223.622 450.134 222.843 452.695C222.485 450.644 222.285 447.471 222.623 445.426C222.733 444.762 223.266 444.642 223.758 444.302Z" fill="#6D3A22"/>
<path d="M230.269 455.324C230.771 455.717 231 456.017 231.37 456.543C231.828 458.951 231.216 460.773 230.516 463.024L230.165 462.933C229.439 461.147 230.082 457.351 230.269 455.324Z" fill="#6D3A22"/>
<path d="M229.11 443.185C229.759 443.601 229.616 443.396 229.982 443.986C230.845 445.379 229.891 449.038 229.621 450.65C229.014 450.408 229.012 450.239 228.64 449.692C228.301 447.516 228.611 445.307 229.11 443.185Z" fill="#6D3A22"/>
<path d="M222.262 454.575C222.808 456.285 222.335 461.197 221.822 462.953C220.901 461.907 220.721 460.824 220.662 459.367C220.577 457.295 221.005 456.112 222.262 454.575Z" fill="#6D3A22"/>
<path d="M225.696 420.843C225.968 421.11 226.137 421.435 226.342 421.765C226.547 423.574 226.79 425.601 226.28 427.379C226.07 428.111 225.749 428.067 225.155 428.4L224.583 427.536C224.565 425.256 224.998 422.986 225.696 420.843Z" fill="#6D3A22"/>
<path d="M231.498 471.007C231.986 471.438 231.923 471.291 232.209 471.893C233.114 473.798 233.005 479.81 232.431 481.804L231.302 481.541C230.463 479.582 231.454 473.446 231.498 471.007Z" fill="#6D3A22"/>
<path d="M128.273 387.04C131.874 390.896 133.803 402.469 134.949 407.977C138.017 422.733 137.548 439.702 134.776 454.511C133.337 462.192 131.181 469.737 129.175 477.262C127.945 481.879 126.012 490.372 123.817 494.209L114.521 494.125C116.186 484.796 117.145 475.243 118.37 465.837C119.745 455.277 121.399 444.672 122.439 434.071C123.978 418.39 124.659 402.349 128.273 387.04Z" fill="#FEFEFE"/>
<path d="M169.05 428.652C170.749 428.536 172.459 428.506 174.159 428.44C175.878 443.983 174.772 461.103 171.932 476.426C164.984 476.2 158.392 477.192 151.583 478.522C151.486 478.376 151.371 478.244 151.294 478.086C150.433 476.308 149.953 473.169 149.465 471.164C146.155 457.565 145.414 443.152 148.097 429.327C154.919 428.15 162.146 428.773 169.05 428.652Z" fill="#FEFEFE"/>
<path d="M421.768 327.856C428.798 330.57 439.418 338.924 446.458 343.033C451.792 346.147 457.34 349.222 462.772 352.133C465.669 353.686 468.801 354.937 471.434 356.994C472.992 363.132 473.901 369.515 475.361 375.702C466.976 376.172 458.366 376.56 449.975 376.277C449.771 374.581 449.747 372.837 449.661 371.128C449.705 370.546 449.745 369.964 449.782 369.381C450.002 365.822 450.455 350 448.453 347.493L448.109 347.671C447.934 349.28 448.535 351.096 448.568 352.764C448.726 360.602 449.178 368.637 448.71 376.457C440.44 376.59 432.264 377.624 423.978 377.294C424.067 371.976 423.495 366.698 423.519 361.397C423.551 353.762 424.743 343.624 423.85 336.216C423.514 333.431 422.373 330.613 421.768 327.856Z" fill="#FEFEFE"/>
<path d="M193.804 400.539C194.615 399.789 195.755 398.394 196.776 398.257C196.987 399.061 197.062 399.749 197.092 400.585C197.794 400.964 197.742 400.956 198.489 400.698C198.79 399.712 198.551 398.235 198.118 397.29C197.808 396.615 197.751 396.615 197.075 396.366C196.322 396.675 195.822 397.005 195.194 397.55C194.659 397.416 194.254 397.249 193.77 396.968C193.415 397.49 193.248 397.905 193.073 398.526C192.105 398.698 192.123 398.437 191.348 397.862C190.819 396.34 191.907 394.026 192.503 392.572C194.092 388.699 197.224 382.07 200.276 379.437C201.395 379.585 201.88 380.091 202.569 381.055C205.741 385.496 208.007 391.037 209.738 396.3C209.607 396.337 209.476 396.376 209.344 396.411C207.67 396.853 206.331 396.759 204.654 396.561C203.672 397.098 203.346 398.031 202.245 398.168C201.825 397.727 201.417 397.273 201.021 396.805C200.327 396.907 199.781 396.835 199.415 397.619C199.292 397.881 199.187 398.498 199.128 398.796C199.395 399.325 199.331 399.478 199.902 399.67C202.369 400.498 207.571 398.277 209.796 397.009L210.087 396.847C216.47 416.099 215.878 445.19 211.232 464.951C210.587 467.694 210.064 470.902 208.948 473.466C208.751 473.92 208.755 473.836 208.376 474.184C207.838 473.355 207.698 472.39 207.482 471.419C207.124 472.21 206.805 472.717 206.229 473.337C205.216 473.763 204.274 473.982 203.181 473.784C201.204 473.428 199.839 472.474 198.752 470.679C198.268 471.853 198.106 472.86 196.987 473.471C195.652 474.201 193.869 473.834 192.565 473.203C191.983 472.922 191.689 472.497 191.301 471.967C190.566 472.37 189.69 472.906 188.877 473.03C188.103 473.148 187.581 472.897 186.999 472.389C186.703 471.39 186.711 471.361 187.029 470.369C187.68 469.656 188.01 469.425 188.913 469.207C190.172 469.558 190.506 470.088 191.429 471.056C192.381 470.437 193.413 469.905 193.685 468.616C193.875 467.717 193.816 467.13 193.244 466.43C192.843 465.942 192.175 465.653 191.606 465.672C191.304 466.233 191.116 466.978 190.498 467.108C189.15 467.393 187.681 467.018 186.315 466.982C184.185 454.353 184.121 441.943 184.891 429.176C185.333 428.71 185.58 428.528 186.11 428.23C186.039 426.91 185.4 426.194 184.751 425.094C184.752 421.656 184.513 417.716 185.371 414.388L185.753 414.07C185.93 414.175 186.106 414.284 186.284 414.388C186.75 414.658 187.098 414.837 187.596 414.984L187.699 414.337C187.154 413.697 186.664 413.192 185.997 412.706C185.482 409.149 189.067 402.503 190.518 399.158L193.804 400.539Z" fill="#FEFEFE"/>
<path d="M201.639 412.191C202.525 412.097 203.194 412.168 204.061 412.323L203.278 412.276L200.803 412.686L201.026 412.357L200.07 412.722L200.619 412.622C200.971 412.247 201.169 412.294 201.639 412.191Z" fill="#F8F8F5"/>
<path d="M195.055 453.19C195.454 453.584 195.932 454.241 196.069 454.836C196.347 456.051 195.879 456.601 195.388 457.628C194.723 457.082 194.536 456.581 194.208 455.76C194.279 454.431 194.345 454.278 195.055 453.19Z" fill="#6D3A22"/>
<path d="M206.581 411.064C207.424 411.474 207.909 411.698 208.509 412.499C208.401 413.69 208.051 413.834 207.301 414.669C206.374 414.446 206.373 414.432 205.772 413.626C205.829 412.327 205.967 412.117 206.581 411.064Z" fill="#6D3A22"/>
<path d="M195.619 410.398C196.497 410.41 196.892 410.614 197.641 411.101C198.031 411.879 197.956 411.857 197.738 412.726L196.474 413.496C196.265 413.744 195.752 414.042 195.488 414.232L195.17 414.148L194.899 413.538C194.918 412.206 195.067 411.586 195.619 410.398Z" fill="#6D3A22"/>
<path d="M194.264 437.979C194.773 438.41 194.775 438.315 195.069 438.91C195.632 440.046 195.794 441.288 195.471 442.533C195.128 443.856 194.526 444.238 193.493 444.84C193.263 444.745 192.991 444.643 192.783 444.504C192.118 444.058 191.76 443.652 191.676 442.768C191.508 440.985 193.228 439.126 194.264 437.979Z" fill="#6D3A22"/>
<path d="M206.005 439.48C206.69 439.484 207.521 439.771 208.015 440.325C208.723 441.118 208.692 441.501 208.755 442.543C208.244 443.711 207.946 443.836 206.983 444.531C206.198 444.507 205.325 444.394 204.631 443.944C203.873 443.453 203.852 443.085 203.751 442.233C204.1 440.847 204.988 440.309 206.005 439.48Z" fill="#6D3A22"/>
<path d="M205.823 421.631C206.864 422.042 208.266 422.545 209.129 423.307C209.902 423.99 209.914 424.359 210.094 425.359C209.761 426.878 208.801 427.832 207.866 428.95L207.295 429.21C206.584 429.121 205.778 429.068 205.163 428.632C204.52 428.177 204.122 427.422 204.002 426.61C203.681 424.434 204.719 423.253 205.823 421.631Z" fill="#6D3A22"/>
<path d="M195.549 420.439C196.08 420.658 196.022 420.565 196.373 420.901C197.26 421.753 197.962 422.818 197.95 424.165C197.927 426.586 196.568 428.464 195.033 430.034C194.969 430.009 194.906 429.983 194.842 429.959C194.127 429.696 193.425 429.496 192.905 428.853C192.218 428.003 192.004 426.807 192.16 425.713C192.483 423.455 193.927 421.734 195.549 420.439Z" fill="#6D3A22"/>
<path d="M195.317 422.675C195.433 422.744 195.56 422.795 195.666 422.883C196.029 423.184 196.201 423.733 196.261 424.202C196.464 425.797 195.694 427.003 194.868 428.219C194.762 428.14 194.642 428.079 194.549 427.983C193.852 427.256 193.803 426.809 193.639 425.822C193.962 424.448 194.473 423.739 195.317 422.675Z" fill="#FEFEFE"/>
<path d="M198.215 469.902L197.381 468.794C196.598 468.839 196.031 469.132 195.316 469.455C194.661 468.809 194.801 468.363 194.708 467.445L194.995 466.806C196.635 466.963 198.985 468.169 200.41 466.682C201.259 465.797 201.851 464.358 203.03 464.002C205.072 465.18 204.057 466.819 207.309 467.552C207.499 468.56 207.317 469.585 207.213 470.597C206.613 470.232 206.071 470.026 205.41 469.825C203.429 470.479 201.514 470.663 199.609 469.478C198.303 468.666 200.333 469.52 198.766 468.927L198.215 469.902Z" fill="#6D3A22"/>
<path d="M416.979 323.964C419.241 324.145 420.581 326.174 422.063 327.872C421.209 333.807 422.245 340.724 422.462 346.763C422.896 356.964 423.015 367.17 422.818 377.381C413.469 376.857 404.164 377.065 394.813 377.164C394.768 371.666 395.154 366.044 395.652 360.573C396.019 356.553 398.901 341.325 397.593 338.101C397.342 337.482 397.462 337.699 396.799 337.408L396.332 337.795C394.948 343.15 396.354 348.715 395.928 354.151C395.728 356.702 394.508 359.084 394.239 361.615C393.706 366.633 394.029 372.131 393.857 377.215C375.854 378.726 357.822 376.965 339.835 378.222C336.392 378.489 333.076 378.474 329.631 378.822C328.82 378.904 328.847 379.036 328.186 378.431L328.35 377.904C335.765 373.359 342.56 367.701 350.321 363.811C350.227 366.423 349.368 371.207 350.168 373.594L350.815 373.311C352.273 371.128 351.091 366.479 352.062 363.688C352.102 363.572 352.149 363.458 352.192 363.344C356.677 359.538 362.052 355.94 367.032 352.961C366.972 356.601 367.87 365.819 366.582 368.592C365.857 370.156 365.496 372.579 365.776 374.335C365.889 375.04 365.94 375.185 366.501 375.556C367.683 374.166 367.931 371.024 368.232 369.152L367.354 369.59L367.124 369.167C368.293 364.416 369.663 357.62 369.328 352.771L369.046 352.475C371.391 349.236 410.256 327.474 416.979 323.964Z" fill="#FEFEFE"/>
<path d="M321.495 392.52C321.646 393.25 321.668 394.004 322.136 394.561C322.559 391.166 322.299 387.604 323.394 384.33L323.827 384.001C324.448 385.116 324.208 386.173 323.981 387.391C324.664 387.646 324.666 387.807 325.37 387.499C325.466 386.276 325.385 384.454 326.035 383.431C326.591 383.942 326.763 384.121 326.864 384.978C327.122 387.169 326.256 398.439 326.166 401.551C325.971 408.197 326.168 414.832 326.072 421.478C325.977 428.039 325.595 434.589 325.502 441.148C325.338 452.621 325.756 464.071 325.639 475.541C325.598 479.484 325.891 483.445 325.432 487.367C320.437 488.236 314.938 489.195 309.884 489.122C304.371 489.043 298.91 488.093 293.391 488.306C295.31 476.848 298.488 465.654 300.188 454.104C302.088 441.189 301.166 427.879 299.956 414.951C299.098 410.075 298.395 405.071 296.757 400.425C296.121 398.809 295.353 397.246 294.63 395.675C295.101 395.484 295.534 395.223 295.981 394.974C296.798 394.006 296.734 392.958 296.813 391.717L297.301 391.688C297.384 390.471 297.294 389.835 297.944 388.821C298.923 388.379 299.345 388.386 300.353 388.545C301.712 390.47 299.558 406.203 300.279 410.64C300.896 403.854 301.46 397.03 302.308 390.273C302.462 389.046 302.399 388.424 303.33 387.665C304.348 387.94 304.11 388.902 304.87 389.671C304.939 389.039 304.994 388.42 305.023 387.785L305.045 387.206C306.073 386.347 307.894 386.358 309.163 386.182C308.805 391.271 308.252 396.575 308.667 401.664C309.209 397.432 309.201 391.92 310.663 388.013L310.984 388.071C311.256 388.97 311.518 389.79 311.948 390.62L312.324 390.108C312.388 388.847 312.295 387.889 312.025 386.664L310.256 385.944C311.406 385.082 313.204 384.757 314.547 384.328C314.494 386.602 314.185 389.691 315.279 391.709C315.522 389.748 315.602 385.667 317.055 384.35C317.849 385.241 317.806 387.064 317.862 388.264C318.274 397.043 317.62 406.109 317.449 414.91C317.313 421.899 317.621 428.87 317.541 435.857C317.509 438.692 316.835 449.232 317.79 451.472C319.15 449.203 318.166 399.937 319.483 391.588C319.498 391.488 319.517 391.388 319.534 391.288C320.033 390.513 320.479 389.764 320.893 388.927C321.041 390.151 321.224 391.32 321.495 392.52Z" fill="#FEFEFE"/>
<path d="M297.302 391.688C297.362 394.618 297.5 397.578 296.758 400.425C296.122 398.809 295.354 397.246 294.63 395.674C295.102 395.484 295.535 395.223 295.982 394.974C296.798 394.006 296.735 392.958 296.814 391.717L297.302 391.688Z" fill="#F8F8F5"/>
<path d="M306.707 448.28C306.741 445.141 306.496 426.558 307.225 425.087C308.425 429.579 307.555 435.314 307.519 439.958C307.455 448.029 307.433 456.017 307.127 464.091L306.91 464.239C306.191 461.247 306.309 458.207 305.655 455.246C305.054 452.534 305.852 450.792 306.707 448.28Z" fill="#F8F8F5"/>
<path d="M443.245 377.979L461.783 377.896C461.554 387.785 461.648 397.685 461.409 407.573C461.297 412.236 460.688 416.906 460.72 421.567L460.942 458.366C461.061 467.69 461.552 477.248 460.662 486.541C460.609 487.097 460.678 488.167 460.237 488.463C458.134 489.874 452.283 488.801 449.829 488.504C445.911 488.029 424.278 484.39 422.736 482.288C424.383 479.44 423.906 475.248 423.948 471.952C424.306 464.783 423.777 457.456 423.957 450.248C424.258 438.175 425.212 425.865 424.965 413.81C424.868 409.018 424.223 404.242 424.003 399.454C423.696 392.811 423.859 386.085 423.86 379.432C429.156 379.294 434.728 378.29 439.99 378.705C440.839 379.381 441.169 379.925 441.308 381.087C441.621 383.704 440.982 386.769 440.802 389.419C440.48 394.138 440.522 398.888 440.309 403.613C440.196 406.113 439.655 408.859 439.817 411.33C439.894 412.517 439.974 413.521 440.643 414.49C441.093 413.02 440.992 411.341 441.041 409.803C441.215 404.371 441.28 398.831 441.755 393.424C442.218 388.152 443.15 383.34 443.245 377.979Z" fill="#FEFEFE"/>
<path d="M491.687 376.291C493.421 376.297 497.123 375.812 498.384 377.161C499.495 378.352 499.203 380.497 499.384 382.053C500.485 382.466 501.528 382.927 502.705 382.978C502.361 388.475 503.163 393.963 502.85 399.387L502.031 400.88C502.229 405.518 502.971 432.979 504.002 435.365L504.212 436.061C502.515 440.191 504.615 449.549 502.044 451.309L500.716 451.365C500.709 452.557 500.936 454.498 500.363 455.526L499.82 455.349C499.557 457.302 499.642 472.596 500.136 474.398C500.227 476.406 500.832 480.908 499.756 482.493C499.489 482.885 498.583 482.843 498.145 482.901C490.327 483.145 482.615 485.13 474.944 486.633C470.851 487.435 466.653 487.878 462.522 488.419C461.869 481.6 462.031 474.909 461.991 468.068C461.945 460.276 461.784 452.56 461.869 444.762C461.952 437.095 461.329 429.409 461.474 421.778C461.573 416.49 462.528 411.235 462.768 405.949C463.196 396.537 463.166 387.125 463.679 377.699C468.589 377.398 473.592 377.203 478.507 377.257C478.778 381.514 478.478 385.725 478.536 389.978C478.652 398.551 479.053 407.076 479.596 415.624C479.779 418.51 479.689 421.353 480.197 424.211C480.35 417.457 479.754 410.812 479.77 404.086C479.786 397.643 480.489 391.422 480.891 385.025C481.055 382.427 480.886 379.819 481.042 377.203C484.584 376.813 488.132 376.509 491.687 376.291Z" fill="#FEFEFE"/>
<path d="M499.38 382.053C500.481 382.466 501.525 382.927 502.701 382.978C502.357 388.475 503.159 393.963 502.846 399.387L502.027 400.88C501.764 398.466 501.548 396.04 501.109 393.655C499.235 407.42 500.571 421.278 500.775 435.139C500.854 440.538 500.162 445.605 500.68 451.047L500.712 451.365C500.705 452.557 500.933 454.498 500.36 455.526L499.817 455.349C499.714 441.453 499.352 427.556 499.388 413.658C499.414 403.138 499.986 392.553 499.38 382.053Z" fill="#9A795E"/>
<path d="M500.715 451.364L500.682 451.047C500.164 445.605 500.856 440.538 500.777 435.138C500.573 421.277 499.237 407.42 501.111 393.655C501.55 396.039 501.766 398.466 502.029 400.88C502.228 405.518 502.97 432.979 504.001 435.365L504.211 436.061C502.514 440.19 504.614 449.549 502.043 451.309L500.715 451.364Z" fill="url(#paint1_linear_60_5)"/>
<path d="M328.788 381.416C334.522 380.267 340.612 380.142 346.435 380.083C347.354 392.287 345.414 404.825 346.778 416.976C347.642 412.671 347.232 407.772 347.365 403.353C347.642 395.776 347.975 388.202 348.364 380.63C352.106 380.534 362.616 379.744 365.58 381.511C366.409 382.497 366.437 383.987 366.543 385.262C366.932 389.92 366.442 394.816 366.408 399.505C366.379 403.466 366.741 407.418 366.716 411.373C366.698 414.026 366.124 416.811 366.487 419.422C367.292 419.25 367.17 419.107 367.605 418.403C367.056 412.788 367.575 407.271 367.675 401.651C367.752 394.818 367.724 387.986 367.59 381.155C373.375 380.044 379.783 380.255 385.653 380.328C386.089 391.753 386.561 403.092 386.743 414.536C388.058 414.464 389.937 414.613 390.917 413.519L390.855 412.585C389.694 410.945 388.948 409.493 388.268 407.56L388.057 406.955C389.88 406.829 391.797 406.741 393.45 405.833C393.247 404.698 390.442 404.686 389.759 403.54C389.847 403.461 389.927 403.371 390.022 403.303C395.829 399.103 400.376 406.484 405.227 407.843C405.346 407.876 405.465 407.904 405.584 407.936C404.653 408.822 403.671 409.637 402.638 410.379C397.15 414.4 393.435 416.328 386.739 414.879C386.667 418.128 386.521 421.392 386.775 424.633C387.27 426.869 386.478 430.134 387.355 431.997L387.955 432.243C388.111 434.013 388.171 435.796 388.904 437.419C388.408 438.481 388.064 439.516 387.071 440.126L386.158 440.207C386.094 440.867 386.048 441.53 385.982 442.19C385.605 445.964 387.379 452.409 387.71 456.561C388.137 462.025 388.442 467.497 388.624 472.977C388.72 475.694 388.401 479.1 388.963 481.705L390.592 481.905L390.688 482.274C385.25 487.286 373.317 483.763 366.758 483.392C366.506 472.922 367.201 462.346 367.163 451.859C366.271 454.262 366.993 457.004 366.648 459.551C366.173 463.051 366.339 466.519 366.254 470.048C366.11 474.411 365.945 478.772 365.757 483.133C359.445 482.615 353.321 483.085 347.031 483.558C346.208 467.264 346.868 450.782 346.776 434.453C346.75 429.81 347.28 424.97 346.898 420.372L346.639 420.343C346.211 420.953 346.298 421.356 346.377 422.088C346.595 424.11 346.185 425.903 346.345 427.842C346.81 433.446 346.027 439.164 345.984 444.784C345.884 457.711 346.121 470.7 345.872 483.624C339.712 485.059 333.414 485.851 327.23 487.247C327.838 478.276 326.798 468.955 326.926 459.924C327.152 444.044 327.772 428.139 328.177 412.261C328.44 401.957 328.318 391.734 328.788 381.416Z" fill="#FEFEFE"/>
<path d="M386.775 424.633C387.271 426.869 386.479 430.134 387.355 431.997L387.955 432.243C388.112 434.013 388.171 435.796 388.904 437.419C388.408 438.481 388.064 439.516 387.071 440.126L386.159 440.207C386.803 435.109 386.733 429.772 386.775 424.633Z" fill="#6D3A22"/>
</g>
</g>
<defs>
<linearGradient id="paint0_linear_60_5" x1="284.878" y1="455.242" x2="285.283" y2="441.567" gradientUnits="userSpaceOnUse">
<stop stop-color="#538E56"/>
<stop offset="1" stop-color="#2DA16F"/>
</linearGradient>
<linearGradient id="paint1_linear_60_5" x1="494.417" y1="422.534" x2="508.986" y2="426.429" gradientUnits="userSpaceOnUse">
<stop stop-color="#D3D3D5"/>
<stop offset="1" stop-color="white"/>
</linearGradient>
<clipPath id="clip0_60_5">
<rect width="561" height="507" fill="white"/>
</clipPath>
<clipPath id="clip1_60_5">
<rect width="576" height="353" fill="white" transform="translate(-15 178)"/>
</clipPath>
</defs>
</svg>
