<svg width="1440" height="507" viewBox="0 0 1440 507" fill="none" xmlns="http://www.w3.org/2000/svg">
<g clip-path="url(#clip0_60_5)">
<rect width="1440" height="507" fill="white"/>
<g clip-path="url(#clip1_60_5)">
<path d="M252.382 412.484C251.064 413.75 249.84 414.681 248.153 415.586L247.659 415.845C247.23 416.742 246.929 417.289 246.225 418.071C245.381 417.034 244.956 415.79 244.808 414.537C244.643 413.128 244.611 412.34 245.655 411.228C247.098 411.622 248.478 412.031 250.011 412.022C250.338 412.021 250.667 412.009 250.994 412.002L252.382 412.484Z" fill="#6D3A22"/>
<path d="M1153.41 344.585L1154.96 342.377C1156.74 358.462 1158.47 379.583 1157.14 395.58C1155.19 392.051 1153.78 351.443 1153.41 344.585Z" fill="#6D3A22"/>
<path d="M1078.35 261.329C1084.82 263.308 1090.18 267.013 1096.06 269.955C1102.73 273.289 1109.76 276.122 1116.73 278.96C1118.97 279.87 1122.53 280.954 1124.12 282.594C1124.1 282.66 1124.07 282.723 1124.05 282.79C1123.85 284.045 1123.86 284.867 1123.01 285.947C1121.55 286.066 1121.34 286.21 1119.94 285.679C1119.87 284.739 1119.7 284.103 1119.27 283.235C1111.11 277.889 1101.75 274.867 1092.91 270.554C1087.7 268.009 1083.51 264.651 1077.75 262.932L1078.35 261.329Z" fill="#6D3A22"/>
<path d="M1054.13 251.555C1062.87 254.089 1070.34 257.483 1078.34 261.329L1077.74 262.932C1074.13 261.75 1070.38 260.877 1066.67 259.939C1069.96 261.595 1072.93 263.267 1075.76 265.476C1076.75 266.244 1078.84 267.487 1078.9 268.573C1076.9 268.121 1074.69 267.689 1072.96 266.688C1070.61 265.326 1068.53 263.09 1066.45 261.401C1062.15 257.918 1057.91 255.426 1052.76 252.93L1054.13 251.555Z" fill="#9A795E"/>
<path d="M266.433 356.98C270.8 357.33 274.906 358.233 279.22 358.764L280.443 359.705C277.705 362.707 273.351 362.594 269.749 364.545C269.091 365.471 268.604 365.98 267.564 366.607C265.07 364.627 260.874 362.991 259.386 360.298C258.935 359.481 259.338 359.249 259.713 358.493C261.819 357.241 263.936 357.207 266.433 356.98Z" fill="#6D3A22"/>
<path d="M268.631 292.38C264.635 291.71 260.107 291.529 256.156 292.442C255.077 292.691 254.318 292.875 253.176 292.824L252.774 291.51C254.725 287.028 261.028 286.062 264.041 282.256C264.149 282.119 264.246 281.978 264.348 281.838L264.966 282.961C265.255 284.366 264.829 283.582 265.627 284.217C266.675 285.051 267.245 286.319 267.874 287.401C269.357 288.18 269.817 287.944 271.577 287.798L274.603 286.738L275.528 287.088L274.531 288.615L275.425 289.57L268.631 292.38Z" fill="#6D3A22"/>
<path d="M1126.13 283.916C1132.91 285.78 1139.25 288.735 1145.68 291.346C1154.47 294.92 1162.96 298.212 1171.64 301.998C1175.71 303.768 1180.23 304.938 1184.19 306.864C1185.89 307.697 1187.04 308.503 1188.27 309.807L1188.51 310.857C1183.95 311.082 1171.31 303.516 1166.75 301.463C1154.65 296.018 1140.86 292.945 1129.18 286.666C1128.19 285.727 1127.15 284.825 1126.13 283.916Z" fill="#6D3A22"/>
<path d="M1156.87 423.187C1156.57 428.315 1157.63 433.28 1157.58 438.347C1158.76 444.327 1158.13 450.86 1158.1 456.929C1158.15 459.282 1157.72 462.53 1159.27 464.532C1160.67 465.431 1162.16 465.397 1163.84 465.513C1164.69 466.562 1165.14 467.134 1166.52 467.661C1160.05 467.684 1153.56 467.604 1147.11 468.115C1147.4 467.619 1147.6 467.068 1147.82 466.548L1146.06 465.873C1146.89 465.787 1148.6 465.85 1149.11 465.269C1151.14 462.927 1150 456.269 1149.83 453.299C1150.56 454.296 1150.84 456.246 1151.91 456.79L1154.33 452.897C1155.06 446.087 1154.29 439.089 1155.46 432.343C1155.61 429.197 1155.56 426.172 1156.87 423.187Z" fill="#6D3A22"/>
<path d="M1156.86 423.187C1156.57 428.315 1157.63 433.28 1157.58 438.347C1157.44 439.957 1157.6 442.781 1156.25 443.852C1155.25 440.34 1155.79 436.01 1155.46 432.343C1155.6 429.197 1155.55 426.172 1156.86 423.187Z" fill="#6D3A22"/>
<path d="M1163.84 465.514C1176.31 465.467 1188.48 465.606 1200.69 468.104C1210.34 470.077 1219.41 473.215 1229.35 474.254C1236.14 474.964 1243.1 475.24 1249.95 475.347C1254.76 475.421 1260.25 474.879 1264.93 475.818L1265.32 476.401C1259.6 479.389 1230.29 477.122 1222.87 475.574C1214.5 473.827 1206.38 471.09 1197.95 469.553C1187.84 467.711 1176.83 467.772 1166.52 467.661C1165.14 467.134 1164.68 466.562 1163.84 465.514Z" fill="#6D3A22"/>
<path d="M1150.92 419.239L1153.43 419.156C1158.3 416.554 1154.32 402.715 1157.53 396.608C1158.13 404.267 1158.59 415.775 1156.86 423.187C1155.55 426.172 1155.6 429.197 1155.46 432.343C1154.28 439.089 1155.05 446.087 1154.33 452.897L1151.9 456.79C1150.84 456.246 1150.55 454.296 1149.82 453.299C1148.89 450.634 1148.73 428.019 1149.22 425.131L1150.25 425.393C1151.34 423.873 1150.9 421.001 1150.92 419.239Z" fill="#F8F8F5"/>
<path d="M1144.36 306.405C1144.64 304.765 1144.84 303.601 1145.95 302.182C1148.19 301.596 1149.37 302.014 1151.63 302.412L1152.47 301.708C1159.44 304.555 1179.8 312.444 1186.45 313.75C1188.75 314.203 1191.55 314.083 1193.91 314.149C1194.36 315.342 1194.34 316.015 1194.09 317.246C1188.1 321.527 1163.29 317.02 1154.69 318.112C1152.46 318.036 1150.49 317.354 1148.4 316.743C1148.06 314.442 1148.61 311.271 1146.51 309.51C1144.12 307.515 1137.12 308.232 1133.84 308.223C1135.96 306.683 1141.31 308.273 1144.14 307.598L1144.36 306.405Z" fill="#6D3A22"/>
<path d="M1144.35 306.405C1144.63 304.765 1144.83 303.601 1145.94 302.182C1148.18 301.596 1149.35 302.014 1151.62 302.412C1154.01 303.589 1156.37 304.671 1158.89 305.633C1154.02 306.141 1149.25 306.34 1144.35 306.405Z" fill="#F8F8F5"/>
<path d="M970.556 231.123C992.163 224.641 997.964 227.342 1017.66 235.404C1029.93 240.428 1041.47 247.394 1054.13 251.555L1052.76 252.93C1048.28 251.168 1043.71 249.436 1039.39 247.386C1032.58 244.152 1023.58 237.661 1015.67 237.312L1014.75 239.896C1025.93 244.78 1036.4 251.095 1047.24 256.529C1057.3 261.566 1068.18 265.916 1078.52 270.552C1087.56 274.583 1096.71 278.429 1105.97 282.09C1112.61 284.653 1119.58 286.843 1125.93 289.882C1134.49 294.284 1143.18 298.515 1152.46 301.708L1151.63 302.412C1149.36 302.015 1148.19 301.596 1145.95 302.182C1144.84 303.601 1144.64 304.765 1144.36 306.405L1144.13 307.598C1141.31 308.273 1135.96 306.683 1133.84 308.224C1137.12 308.232 1144.12 307.515 1146.51 309.51C1148.61 311.271 1148.06 314.442 1148.4 316.744C1150.48 317.355 1152.46 318.036 1154.68 318.112C1154.03 326.241 1155.55 334.356 1154.96 342.377L1153.41 344.585C1153.78 351.443 1155.19 392.051 1157.14 395.58L1157.54 396.608C1154.33 402.715 1158.3 416.554 1153.43 419.156L1150.92 419.239C1150.91 421.001 1151.34 423.873 1150.25 425.393L1149.23 425.131C1148.73 428.019 1148.89 450.634 1149.82 453.299C1150 456.269 1151.14 462.927 1149.11 465.27C1148.6 465.85 1146.89 465.787 1146.06 465.873L1147.82 466.548C1147.6 467.069 1147.4 467.619 1147.11 468.115C1119.91 469.306 1093.28 476.441 1066.04 476.562C1050.83 476.63 1036.12 472.783 1021.03 472.001C1010.04 471.431 998.92 473.592 987.991 474.411C982.665 474.811 977.302 474.605 971.969 474.418C960.666 474.022 949.434 473.506 938.188 472.416C919.56 470.61 900.759 467.861 881.966 468.066C867.983 468.22 853.022 469.774 839.207 471.695C823.611 473.863 808.151 476.675 792.247 476.621C784.33 476.593 776.433 475.963 768.523 475.81C755.875 475.563 743.149 475.772 730.499 475.897C718.964 476.011 707.468 477.53 695.93 477.08C679.123 476.424 663.452 471.557 646.362 472.245C632.005 472.822 617.617 473.867 603.454 476.036C594.885 477.349 586.426 479.384 577.793 480.388C567.403 481.597 557.278 480.6 546.251 482.068C525.127 484.88 504.114 488.782 482.722 489.652C473.021 490.046 463.241 490.07 453.685 488.404C446.904 487.221 440.197 485.409 433.287 484.85C421.099 483.867 408.738 485.122 396.52 485.136C382.385 485.152 367.963 483.982 353.873 485.134C346.562 485.732 339.747 487.729 332.662 489.229C327.598 490.301 322.429 490.87 317.369 491.908C311.976 493.014 306.681 494.476 301.273 495.533C293.145 497.123 284.722 497.327 276.467 498.211C262.689 499.688 249.734 501.846 235.721 501.862C236.991 500.619 242.843 500.267 244.88 500.046C254.696 498.986 264.297 497.307 274.057 496.119C282.703 495.066 291.484 494.7 300.043 493.145C308.693 491.574 316.697 488.485 325.482 487.29C317.815 473.056 312.733 455.585 309.579 440.168C308.818 436.446 309.397 432.627 308.57 428.872C307.063 427.397 305.782 426.569 306.284 424.455C306.729 422.585 307.739 422.32 309.43 421.4L308.324 420.506C304.482 419.82 301.308 423.542 298.102 424.864C298.466 423.555 298.736 423.099 298.351 421.775L297.271 422.164C296.632 423.44 296.899 424.173 297.233 425.499C298.355 426.284 299.813 427.285 300.418 428.439C301.138 429.815 300.746 430.623 300.231 431.926C298.776 432.829 298.901 432.833 297.126 432.622L296.468 431.772C297.214 430.679 297.649 430.205 297.735 428.916L296.498 428.198C292.598 429.918 294.67 428.788 291.307 428.426C290.982 428.974 290.654 429.52 290.322 430.065C288.496 433.076 286.202 437.726 282.207 438.811C281.296 438.484 280.715 438.438 280.127 437.712C276.58 433.334 278.501 430.759 279.719 426.236C279.006 424.72 278.476 424.809 276.838 424.008C274.955 423.086 274.408 422.595 273.824 420.8C274.66 418.813 275.311 420.071 276.99 418.905C277.294 409.902 283.274 411.68 286.787 405.278C286.316 403.928 285.89 403.652 284.814 402.624L284.149 403.031C284.876 404.155 284.68 403.528 284.626 404.935C282.949 405.463 282.618 405.442 280.845 405.188C279.446 404.347 278.874 403.74 278.054 402.443C277.464 401.507 276.994 400.753 276.137 399.966C273.811 401.586 273.586 406.052 271.345 408.374L270.689 407.245C269.965 407.046 269.862 406.975 268.986 406.982C266.038 407.009 263.386 408.609 261.587 410.424C260.95 411.067 260.396 411.722 259.598 412.229C257.465 413.583 254.789 412.854 252.384 412.484L250.997 412.002C249.083 410.284 246.826 409.142 245.06 407.268L245.227 406.234C247.175 404.843 249.55 404.409 251.937 403.799L251.622 403.106C250.997 401.579 249.922 399.622 250.515 398.003C251.475 395.375 254.723 394.397 257.384 393.324C270.166 386.408 271.722 390.521 284.408 393.444C286.65 393.96 288.855 393.312 291.072 393.916C293.38 394.545 295.003 396.364 297.606 396.221L298.495 395.108C297.167 387.407 275.591 385.924 271.655 378.263C271.648 376.199 272.511 375.374 273.511 373.554C271.97 373.409 270.319 373.319 268.816 373C267.151 372.648 266.678 372.066 265.922 370.841C265.998 369.04 266.486 368.141 267.57 366.608C268.609 365.98 269.096 365.471 269.755 364.545C273.356 362.594 277.71 362.708 280.448 359.705C282.647 358.965 283.612 358.536 284.903 356.823L285.203 356.095C287.681 354.874 292.94 355.331 295.909 355.208C301.086 358.676 297.47 366.366 306.497 365.502C307.496 365.406 307.279 365.387 308.427 364.977C309.805 361.567 311.216 358.152 312.312 354.668C314.178 351.669 317.025 348.585 319.895 346.227C321.945 344.543 324.531 343.197 327.468 343.314C331.592 343.478 334.107 346.998 336.523 349.457C334.601 350.937 331.061 353.411 330.354 355.606C328.388 361.707 337.55 360.777 340.154 364.202C339.379 365.538 337.886 366.255 336.334 366.902C335.271 367.345 334.272 367.712 333.431 368.447C331.711 369.949 329.898 372.416 329.943 374.55L330.713 375.166C334.13 374.401 338.313 373.08 341.791 373.076C344.064 373.074 347.049 373.318 348.624 374.76C348.244 375.88 348.025 376.372 348.237 377.55C350.103 378.042 351.855 377.402 353.738 377C356.582 376.391 358.65 376.212 361.568 376.458C361.87 376.485 362.17 376.516 362.471 376.544C359.979 368.129 356.725 359.914 354.651 351.397C350.85 335.776 350.352 319.516 350.107 303.615C349.893 303.865 349.688 304.122 349.465 304.367C345.873 308.333 344.06 311.864 342.023 316.525C340.505 317.569 339.367 317.445 337.457 317.633C333.969 320.21 336.91 322.187 335.306 325.034C332.147 327.337 327.096 327.556 323.098 327.888C322.145 331.133 322.212 335.065 319.367 337.58C317.658 338.113 317.322 338.194 315.541 337.939C314.66 337.144 314.307 336.799 313.097 336.369C311.454 337.458 310.113 337.953 308.128 338.494C307.158 338.757 307.033 339.073 306.378 339.713C307.258 340.734 307.572 340.863 307.753 342.167C305.94 344.009 303.558 345.244 300.749 345.655C298.418 345.997 296.959 345.603 295.042 344.504C292.529 340.975 295.945 338.733 295.405 335.109C293.975 334.965 292.745 334.628 291.38 334.255C290.689 333.558 290.156 333.441 290.478 332.406C290.995 330.744 293.091 329.529 294.576 328.531C295.795 324.922 297.056 322.499 300.048 319.689C303.527 324.048 308.647 325.128 313.102 328.259C314.794 329.449 314.642 331.011 314.987 332.744L315.689 332.939C316.456 331.914 316.728 331.044 316.819 329.845C316.94 328.268 316.389 327.267 315.194 326.1L312.007 322.98C315.287 316.464 320.361 313.997 322.243 310.348L321.412 309.86C314.518 310.842 313.079 317.955 306.576 319.833C303.83 320.625 302.559 320.115 300.107 319.122C301.822 316.527 306.192 313.735 306.356 310.646C306.403 309.791 306.193 309.926 305.418 309.19C303.057 311.154 301.603 313.553 298.437 314.688C295.451 315.758 289.88 317.943 286.826 316.883C286.145 313.591 287.076 309.607 287.464 306.258L283.779 309.751C281.902 311.515 280.871 312.617 280.205 314.983C279.977 315.793 280.255 315.397 279.483 316.013L278.452 314.391C276.972 313.597 276.285 314.079 274.655 314.391L274.001 313.808L274.392 309.381C272.918 308.381 272.005 308.406 270.171 308.147C268.776 308.92 267.379 309.877 265.673 309.996C264.714 310.062 264.529 309.713 263.844 309.25C263.628 302.673 272.524 304.294 275.21 300.15C275.281 299.537 275.301 298.604 275.529 297.995C276.124 296.408 277.476 296.197 279.086 295.483L279.361 294.12L280.599 293.986C283.47 292.661 285.695 291.043 288.806 289.996C289.071 289.936 289.343 289.896 289.601 289.816C291.776 289.153 295.26 287.332 296.025 285.42C296.604 283.973 296.206 283.354 295.572 282.042L294.292 281.62C291.493 282.957 291.227 287.142 289.135 289.17C288.946 289.354 288.73 289.518 288.526 289.69L286.557 287.49C285.604 288.004 285.199 288.44 284.448 289.144C283.273 290.246 282.628 290.966 280.773 290.97C278.728 290.975 277.203 290.359 275.428 289.57L274.534 288.615L275.531 287.088L274.606 286.738L271.581 287.798C269.821 287.944 269.361 288.18 267.878 287.401C267.249 286.32 266.678 285.052 265.63 284.217C264.833 283.582 265.258 284.366 264.969 282.961L264.351 281.838C267.014 278.749 270.127 276.65 273.841 274.579C273.803 275.297 273.87 274.934 273.565 275.766C273.099 277.036 272.541 278.255 272.57 279.605C272.596 280.715 272.793 280.588 273.635 281.325C275.329 281.668 276.173 281.762 277.847 281.32C278.597 280.6 279.057 280.468 279.09 279.44C279.178 276.633 276.692 275.07 274.534 273.29L273.093 268.531C273.441 267.99 273.843 267.279 274.39 266.863C276.611 265.175 282.02 265.951 284.803 266.103C287.746 266.243 290.996 265.975 292.931 268.244C294.595 270.196 294.108 272.458 293.889 274.684C293.786 275.74 293.827 276.61 293.979 277.652C295.159 278.496 295.384 278.447 296.997 278.341C298.025 278.273 298.837 277.969 299.764 277.614C300.702 276.386 300.871 276.191 300.33 274.661C299.637 272.705 298.119 271.538 298.56 269.35C299.744 268.02 300.322 267.373 302.388 267.158C302.597 267.137 302.809 267.133 303.019 267.121C307.604 269.01 315.634 272.228 320.716 271.272C321.297 270.778 321.866 270.606 321.798 269.842C321.669 268.392 320.601 267.115 319.354 266.204L317.67 267.582C312.909 267.907 307.905 266.821 303.206 266.167C303.402 264.702 304.239 263.342 304.908 261.995C302.678 261.41 300.388 260.605 298.488 259.43C297.128 258.59 296.901 258.02 296.752 256.654C298.647 254.765 301.954 254.775 304.72 254.538C309.565 254.121 316.849 252.887 320.769 255.629L320.734 256.2C322.907 255.856 324.923 255.495 326.999 254.832C329.031 254.183 330.788 253.779 332.875 254.514C336.389 255.752 335.682 261.004 338.343 262.787C343.637 259.278 343.535 246.933 350.699 245.643L351.707 246.278C351.906 249.27 352.031 249.476 354.694 251.52C355.783 252.345 356.881 253.162 357.989 253.969C358.212 253.879 358.437 253.794 358.657 253.699C361.062 252.678 361.885 251.853 363.339 249.976C364.038 249.073 364.587 248.74 365.664 248.215C367.124 248.255 367.462 248.499 368.484 249.441C369.103 250.01 369.588 250.909 370.032 251.592L370.888 251.445C373.051 248.321 374.871 241.839 378.823 240.355C380.772 240.835 381.496 241.745 382.921 242.95C384.075 247.759 385.952 252.317 386.44 257.22C387.412 256.663 388.399 256.127 389.401 255.612C390.404 255.096 391.42 254.602 392.451 254.13C393.483 253.657 394.527 253.207 395.584 252.778C396.641 252.349 397.71 251.942 398.791 251.558C399.871 251.174 400.961 250.814 402.062 250.476C403.164 250.137 404.275 249.822 405.394 249.531C406.514 249.239 407.641 248.971 408.776 248.727C409.911 248.484 411.053 248.263 412.2 248.067C413.348 247.871 414.5 247.699 415.657 247.552C416.815 247.404 417.977 247.28 419.142 247.181C420.306 247.082 421.473 247.007 422.643 246.957C423.812 246.907 424.981 246.882 426.151 246.88C427.322 246.879 428.492 246.903 429.661 246.952C430.83 247 431.997 247.072 433.162 247.169C434.327 247.267 435.488 247.388 436.646 247.534C437.804 247.681 438.957 247.851 440.106 248.045C443.992 248.701 449.227 251.088 451.491 253.901C451.598 254.033 451.675 254.18 451.767 254.32C449.406 256.132 425.691 266.414 421.916 267.58C419.944 268.188 417.826 268.119 415.761 268.076C415.801 269.734 417.287 269.612 416.824 271.435L414.645 272.718C416.876 274.155 428.065 275.679 432.001 276.816C433.188 278.057 434.336 279.346 435.629 280.505C443.417 281.946 447.595 283.084 452.142 289.074C453.462 290.845 454.721 292.647 455.92 294.48C452.284 294.244 448.623 294.087 445.021 293.591C442.881 295.433 439.633 297.941 436.325 297.747C432.985 297.552 428.885 293.809 425.624 295.739C423.227 297.156 422.907 298.243 419.52 298.315C416.769 298.372 415.034 295.219 412.684 296.568C411.748 298.448 411.532 299.539 409.56 300.748C407.509 300.86 407.019 300.583 405.421 299.389C404.169 298.454 404.197 298.163 402.503 298.116L401.504 298.945C403.553 304.288 407.068 309.064 409.992 314.073C413.665 320.368 415.965 327.244 417.336 334.157C417.981 337.41 418.816 340.827 417.058 343.91C415.446 345.036 413.357 344.688 411.334 344.527C404.293 343.962 398.532 341.335 392.913 337.844L391.076 330.976L390.553 331.586C389.073 333.291 387.429 335.457 384.817 335.913C383.302 335.105 383.075 334.505 382.606 333.039C381.954 330.996 382.027 328.633 380.576 326.863C377.793 326.06 376.255 325.944 374.835 323.601C372.089 319.068 368.062 307.231 362.19 305.352C361.053 306.114 361.189 306.429 361.066 307.613C359.969 318.038 364.149 347.148 367.454 356.986C370.5 366.052 375.332 374.992 377.234 384.283C379.075 393.275 377.979 403.325 378.695 412.508C379.713 425.547 387.488 469.612 396.483 478.773C397.224 479.528 396.857 479.345 397.717 479.553C399.104 476.856 396.739 459.76 396.778 454.932C396.764 447.737 397.02 440.549 397.546 433.368C398.074 426.187 398.87 419.027 399.935 411.89C401.001 404.753 402.335 397.652 403.936 390.587C405.536 383.523 407.401 376.509 409.529 369.547C411.324 363.455 412.765 357.039 415.445 351.189C418.32 344.915 422.588 339.128 426.605 333.346C429.811 328.732 435.591 319.213 441.475 317.101C443.099 316.518 444.587 316.35 446.246 316.981C453.133 319.6 458.882 337.606 460.798 343.544C463.315 351.339 464.548 359.015 465.584 367.021C466.604 374.899 467.529 382.625 467.393 390.574C466.859 421.496 455.504 455.42 442.309 484.167C461.873 487.44 473.767 487.805 493.568 486.344C485.767 467.205 478.735 444.415 476.304 424.196C472.767 394.797 478.058 357.835 493.046 331.123C497.456 323.264 503.497 315.045 510.945 309.016C515.983 313.347 519.65 318.807 523.058 324.128C536.594 345.27 540.793 366.415 540.647 390.282C540.498 414.781 539.936 444.18 530.789 467.648C528.731 472.927 525.77 477.902 522.804 482.844C536.058 481.733 549.681 479.633 562.742 477.395C548.64 447.193 545.008 388.966 553.128 356.962C554.953 349.767 558.335 342.95 561.733 336.209C565.272 329.188 572.581 312.589 579.397 308.603C582.477 308.205 584.498 308.448 587.042 310.087C600.155 318.543 608.56 347.968 611.493 361.733C612.539 374.333 614.389 387.747 613.659 400.328C613.128 409.471 609.742 419.099 610.019 428.163C607.592 436.597 605.429 445.177 602.604 453.517C600.164 460.722 596.827 467.473 595.223 474.894L612.239 473.087L613.452 448.044C613.706 443.645 614.424 439.278 614.447 434.869C615.541 429.132 615.405 422.956 615.718 417.129C616.622 400.373 617.007 383.317 616.22 366.555C616.1 363.999 615.799 363.386 613.68 361.722C617.522 360.144 616.264 352.227 617.102 348.913C618.849 342.005 633.899 315.751 639.791 311.372C653.746 308.981 656.967 339.882 665.079 344.041C668.301 340.268 669.124 335.074 671.833 330.986C677.073 323.077 684.483 315.634 691.153 308.559C695.555 311.116 698.795 314.508 701.319 318.473C704.382 323.287 706.24 328.673 708.015 333.912C716.932 360.221 712.595 383.291 707.963 409.662C706.371 418.719 705.668 427.909 703.11 436.828C699.503 449.408 693.916 461.921 689.695 474.415C702.499 475.474 715.07 474.323 727.793 473.123C726.91 469.732 725.287 466.578 723.833 463.348C710.872 434.531 710.88 388.543 723.626 359.565C726.039 354.075 728.929 348.476 732.556 343.485C734.342 341.027 736.878 338.685 738.249 336.058C737.499 336.02 736.749 335.971 736.003 335.888C736.097 334.59 736.328 333.844 735.541 332.677C735.396 332.462 735.225 332.259 735.066 332.051C738.227 329.003 742.345 331.281 745.935 329.851C747.685 329.153 747.684 327.866 748.16 326.428C785.48 301.561 828.042 274.888 871.397 258.437C882.826 254.099 895.274 251.221 907.207 248.019C920.274 244.512 933.372 240.662 946.682 237.89C954.09 235.028 962.789 233.26 970.556 231.123Z" fill="#6D3A22"/>
<path d="M376.915 288.229L379.546 288.747C380.765 290.022 380.373 290.56 380.253 292.16C379.519 292.276 378.699 292.265 377.952 292.301C376.806 291.057 377.054 289.776 376.915 288.229Z" fill="#FEFEFE"/>
<path d="M347.197 380.369C348.981 380.773 350.194 380.685 351.289 382.017L350.579 383.612C349.248 383.626 348.238 383.443 346.961 383.133L346.393 382.089L347.197 380.369Z" fill="#F8F8F5"/>
<path d="M346.321 417.639C347.103 418.128 347.45 418.654 347.987 419.332C347.617 420.9 347.367 420.937 345.941 422.014C344.886 421.439 343.99 420.763 343.051 420.06L343.192 419.317L346.321 417.639Z" fill="#FEFEFE"/>
<path d="M340.172 408.365C341.723 408.377 342.665 408.551 344.093 409.066C345.076 410.467 344.993 410.991 345.051 412.587C344.121 412.305 342.789 412.012 341.994 411.529C340.493 410.617 340.525 409.798 340.172 408.365Z" fill="#FEFEFE"/>
<path d="M340.107 376.715C341.12 377.012 342.107 377.429 343.091 377.793C344.22 379.223 344.077 379.332 343.914 381.076C342.714 381.268 341.912 381.266 340.71 381.081C339.643 379.536 340.017 378.481 340.107 376.715Z" fill="#F8F8F5"/>
<path d="M279.772 421.055C281.748 420.949 283.614 420.882 285.586 421.031C287.269 422.093 287.045 422.28 287.438 424.067C286.103 423.951 284.713 423.872 283.4 423.639C281.311 423.267 280.912 422.445 279.772 421.055Z" fill="#F8F8F5"/>
<path d="M263.353 397.003C264.546 397.499 264.707 397.633 265.449 398.574C265.754 400.295 266.123 401.534 265.149 403.164C264.127 403.751 263.933 403.85 262.647 403.976C261.651 402.302 263 398.846 263.353 397.003Z" fill="#F8F8F5"/>
<path d="M304.972 330.79C305.295 332.278 305.349 333.308 304.715 334.752C303.956 336.482 302.728 337.449 300.806 338.255C300.442 337.623 300.138 336.961 299.815 336.313C300.721 334.07 303.062 332.455 304.972 330.79Z" fill="#FEFEFE"/>
<path d="M343.967 278.582C345.907 278.756 347.222 278.948 348.973 279.779C350.274 281.116 350.335 281.832 350.537 283.492C349.016 283.245 346.908 282.956 345.646 282.139C344.115 281.15 344.191 280.055 343.967 278.582Z" fill="#FEFEFE"/>
<path d="M400.902 262.644L396.469 260.74L396.363 260.348C397.908 259.337 399.666 259.023 401.504 258.524C401.811 258.742 402.236 258.895 402.393 259.208C402.109 261.35 402.906 262.31 404.432 263.963C404.745 264.303 405.064 264.64 405.387 264.973L404.901 265.28C403.456 264.452 402.192 263.64 400.902 262.644Z" fill="#F8F8F5"/>
<path d="M251.616 403.106C254.67 403.024 257.501 402.807 260.42 403.757C258.744 405.057 257.069 406.57 255.055 407.464L253.67 406.748C253.277 405.916 252.896 405.152 252.356 404.379C252.219 404.183 252.074 403.992 251.932 403.799L251.616 403.106Z" fill="#F8F8F5"/>
<path d="M264.965 282.961C266.796 282.268 268.447 281.615 270.45 281.354L270.911 281.873C270.287 283.61 269.324 284.992 270 286.743L271.576 287.798C269.816 287.944 269.356 288.18 267.873 287.401C267.244 286.32 266.673 285.051 265.626 284.217C264.828 283.582 265.253 284.366 264.965 282.961Z" fill="#F8F8F5"/>
<path d="M353.259 384.866L353.848 387.005C353.158 388.334 352.999 388.34 351.499 389.067C349.181 389.134 348.029 388.932 345.892 388.164C345.553 387.366 345.314 386.537 345.044 385.72L345.744 385.153C346.872 385.455 348.086 385.854 349.248 386.021C351.418 386.333 351.569 385.958 353.259 384.866Z" fill="#F8F8F5"/>
<path d="M412.508 277.002C413.713 276.96 414.926 276.933 416.131 276.948C418.333 276.974 419.332 277.203 420.838 278.571L420.294 280.378C417.462 280.165 414.553 280.821 411.837 280.065L411.302 279.095L412.508 277.002Z" fill="#F8F8F5"/>
<path d="M258.922 395.143C260.7 394.333 262.118 393.24 264.147 393.513C265.177 395.098 265.227 396.806 265.45 398.574C264.708 397.632 264.546 397.498 263.353 397.003C263.176 397.025 262.985 397.007 262.817 397.067C260.511 397.882 259.185 398.223 256.603 398.44L256.549 396.815L255.703 398.28C256.331 396.681 257.426 396.212 258.922 395.143Z" fill="#FEFEFE"/>
<path d="M329.004 378.358C330.668 378.22 332.052 378.146 333.723 378.326L334.22 378.971C332.822 380.698 330.608 381.812 328.632 383.018C327.677 383.221 326.713 383.337 325.742 383.472L324.81 382.749C324.826 382.151 324.778 381.934 325.09 381.312C325.872 379.753 327.303 378.989 329.004 378.358Z" fill="#FEFEFE"/>
<path d="M405.257 315.493C406.864 315.857 406.772 316.099 407.588 317.265C408.558 318.651 408.914 319.573 408.45 321.142L406.377 320.919C404.263 320.639 402.074 320.507 400.692 319.048C401.341 317.446 403.681 316.426 405.257 315.493Z" fill="#FEFEFE"/>
<path d="M439.828 251.991C440.153 252.255 440.066 252.73 440.131 253.108C439.183 254.578 438.23 255.745 436.844 256.951C435.644 257.995 435.771 258.047 434.098 258.058C433.695 257.723 432.953 257.125 432.63 256.759C431.688 255.691 431.837 255.42 432.19 254.231C434.182 252.775 437.322 252.49 439.828 251.991Z" fill="#FEFEFE"/>
<path d="M357.909 384.336C359.218 384.185 360.728 383.951 362.006 384.338C365.519 385.4 368.404 389.781 369.799 392.527C366.279 391.977 360.115 386.883 357.909 384.336Z" fill="#FEFEFE"/>
<path d="M270.169 308.146C272.544 306.407 274.908 304.06 278.007 303.595C279.524 304.352 279.716 304.575 280.596 305.882C280.231 306.857 280.473 306.96 279.319 307.455C278.453 307.827 277.796 308.028 276.905 308.278C275.824 308.583 275.269 308.8 274.39 309.381C272.916 308.381 272.003 308.406 270.169 308.146Z" fill="#F8F8F5"/>
<path d="M276.309 365.381C276.578 365.391 276.855 365.354 277.115 365.412C278.677 365.76 279.294 366.137 280.085 367.233L279.58 368.592C278.178 369.747 277.195 370.261 275.398 370.907L273.893 369.787L272.085 370.543L271.201 370.226L270.974 368.878C272.031 367.142 274.372 366.315 276.309 365.381Z" fill="#F8F8F5"/>
<path d="M387.263 266.254C390.373 265.821 394.159 266.494 397.308 266.749C398.378 267.336 399.789 267.969 400.68 268.731C402.181 270.015 401.872 270.911 401.882 272.555C397.758 271.973 395.428 269.164 391.543 267.9C390.045 267.414 388.692 266.878 387.263 266.254Z" fill="#F8F8F5"/>
<path d="M285.538 372.055C287.274 372.779 289.006 373.489 290.776 374.15C289.494 374.002 290.025 373.902 289.146 374.22C288.133 375.139 288 376.108 287.698 377.297L287.564 377.842L286.297 378.317C284.141 378.577 282.108 378.956 279.954 378.513L280.097 377.75C282.197 376.09 283.886 374.725 285.249 372.54C285.349 372.379 285.441 372.217 285.538 372.055Z" fill="#F8F8F5"/>
<path d="M808.054 330.401C808.476 328.442 809.05 326.635 809.816 324.753C809.013 323.991 808.161 323.336 807.253 322.666C806.614 321.273 806.859 320.582 807.208 319.173C808.749 319.105 810.139 319.596 811.585 319.994C813.269 323.07 812.021 328.842 811.765 332.222C811.254 330.448 810.907 328.719 810.626 326.91C809.843 328.147 808.999 329.254 808.054 330.401Z" fill="#F8F8F5"/>
<path d="M284.896 356.823L285.197 356.095C287.674 354.874 292.934 355.331 295.903 355.208C294.649 356.345 293.751 356.816 293.617 358.485C293.475 360.241 294.206 361.459 293.277 363.191L292.361 363.384C290.531 361.819 291.889 359.103 289.923 358.05C288.164 358.442 287.558 358.806 285.84 358.215L284.896 356.823Z" fill="#F8F8F5"/>
<path d="M340.309 271.244C341.975 271.577 342.962 271.95 344.362 272.792L344.31 273.657C342.788 273.793 341.938 273.817 340.749 274.681C340.687 276.446 340.666 277.398 339.336 278.867C337.061 278.073 335.53 277.412 334.383 275.484C334.657 274.025 335.118 273.827 336.181 272.714C337.668 272.358 338.928 271.821 340.309 271.244Z" fill="#FEFEFE"/>
<path d="M394.118 301.661C394.817 301.767 395.31 301.823 396.007 302.028C398.028 302.622 399.866 303.964 400.563 305.729C401.531 308.175 400.557 309.998 399.238 312.159L398.687 312.562L397.897 312.228C396.734 308.767 394.502 305.231 394.118 301.661Z" fill="#FEFEFE"/>
<path d="M320.764 255.629L320.729 256.2L318.809 258.02C319.052 259.119 319.345 259.649 320.511 260.295C322.002 261.12 323.667 260.979 325.32 260.84C326.417 259.998 327.531 259.21 328.695 258.436L329.682 258.689L329.508 259.507C327.459 261.338 325.762 262.93 322.662 263.272C320.718 263.486 318.501 263.065 317.139 261.779C315.993 260.697 316.191 259.723 316.18 258.379C317.388 256.718 318.732 256.473 320.764 255.629Z" fill="#F8F8F5"/>
<path d="M760.936 336.887C759.741 335.143 756.69 331.896 756.809 329.957C757.296 329.871 757.784 329.791 758.274 329.718C761.236 329.287 762.657 329.619 765.068 331.035C764.919 332.87 765.038 334.42 763.494 335.852C762.647 336.219 761.827 336.606 760.936 336.887Z" fill="#FEFEFE"/>
<path d="M402.393 259.208C405.059 259.637 412.342 260.087 413.687 262.123C414.533 263.404 414.416 265.099 414.187 266.511C412.923 266.699 412.148 267.141 411.045 266.493C408.096 264.757 404.674 261.624 402.393 259.208Z" fill="#FEFEFE"/>
<path d="M317.754 355.828C318.966 354.062 319.805 352.38 322.015 351.436C323.009 351.529 323.579 351.369 324.29 352.056C325.623 353.347 326.086 356.205 325.845 357.881C325.724 358.718 325.626 358.902 325.369 359.637C321.785 359.105 320.31 357.927 317.754 355.828Z" fill="#FEFEFE"/>
<path d="M410.094 285.397C411.255 285.349 412.637 285.23 413.77 285.525C416.679 286.285 420.75 288.633 421.817 291.177C422.216 292.132 422.096 291.859 421.556 292.823C419.506 293.243 417.514 293.678 415.41 293.831C415.933 288.192 413.197 289.522 410.094 285.397Z" fill="#FEFEFE"/>
<path d="M376.01 246.626C376.863 247.178 376.627 246.907 377.129 247.668C377.244 247.84 377.344 248.018 377.451 248.194L378.61 248.34C380.003 249.259 380.046 249.382 380.588 250.82C379.976 252.971 378.093 254.74 376.574 256.495C374.869 256.016 373.332 255.669 371.955 254.635C371.702 252.307 375.212 251.199 376.01 246.626Z" fill="#FEFEFE"/>
<path d="M348.94 253.032C349.782 253.299 350.442 253.542 351.188 254.004C353.512 255.444 354.366 257.883 354.427 260.203C354.471 261.828 354.766 263.312 355.128 264.905C354.886 264.909 354.639 264.96 354.402 264.92C353.1 264.706 351.747 263.841 350.878 263C348.138 260.344 348.617 256.282 348.94 253.032Z" fill="#F8F8F5"/>
<path d="M326.583 281.291C327.109 281.359 328.241 281.519 328.727 281.517C330.273 281.509 330.893 281.344 332.433 281.769C333.792 282.144 333.704 281.908 334.404 283.059C333.893 284.055 333.617 284.64 332.576 285.321C331.488 286.03 330.626 286.688 329.642 287.504C327.967 289.412 326.182 291.259 324.448 293.127C325.171 289.798 327.714 284.481 326.583 281.291Z" fill="#F8F8F5"/>
<path d="M994.174 228.941C1002.13 231.017 1008.25 234.367 1015.67 237.311L1014.74 239.896C1006.74 237.383 1001.11 232.982 994.174 228.941Z" fill="#F8F8F5"/>
<path d="M294.29 300.333L296.75 300.776C298.928 303.477 296.465 306.828 296.593 309.805C296.625 310.548 296.588 311.049 296.402 311.77C295.154 312.315 294.451 312.875 293.025 312.708C292.544 311.963 292.109 311.259 291.935 310.41C291.305 307.349 292.351 302.906 294.29 300.333Z" fill="#FEFEFE"/>
<path d="M307.98 281.383L309.056 281.05L309.744 281.712C307.105 286.68 304.977 290.221 299.126 292.664C298.242 292.311 297.797 292.089 297.047 291.521C299.196 289.552 301.612 287.613 302.746 285.059C303.306 283.799 303.649 283.07 304.668 282.035L306.251 282.343L307.98 281.383Z" fill="#FEFEFE"/>
<path d="M723.948 455.255C733.022 455.418 735.358 459.018 740.681 459.53L741.129 459.861C736.067 459.929 731.152 460.324 726.128 460.844C725.192 459.055 724.607 457.13 723.948 455.255Z" fill="#388672"/>
<path d="M334.017 263.249L334.996 263.429L335.286 264.054C333.974 264.874 332.794 265.689 331.606 266.644C332.802 268.196 334.254 269.381 334.452 271.253C332.678 272.377 330.611 272.202 328.441 272.358C327.552 272.506 328.113 272.47 326.764 272.22C326.574 271.48 326.405 270.735 326.259 269.987C325.971 268.429 325.902 266.913 327.029 265.58C329.573 265.237 331.284 264.801 333.448 263.579C333.64 263.472 333.827 263.358 334.017 263.249Z" fill="#FEFEFE"/>
<path d="M386.039 281.66C388.515 282.539 390.13 285.221 391.797 286.986C391.938 290.254 392.306 293.234 390.67 296.269C390.576 296.201 390.483 296.133 390.388 296.066C388.269 294.569 384.766 286.28 384.56 283.772C384.482 282.838 385.379 282.34 386.039 281.66Z" fill="#FEFEFE"/>
<path d="M622.482 352.309C623.973 352.412 625.031 352.768 626.405 353.234C627.279 354.408 627.789 354.884 627.432 356.365C627.09 357.787 625.612 359.261 624.252 360.029C621.692 360.103 620.411 360.287 618.348 358.833C617.744 357.462 617.58 357.147 618.194 355.692C618.923 353.966 620.69 353.107 622.482 352.309Z" fill="#F8F8F5"/>
<path d="M424.123 283.888C426.174 283.75 428.405 283.477 430.464 283.561C432.247 283.635 432.969 284.22 434.151 285.257L433.949 286.124L431.135 286.946L431.406 287.794C432.404 288.397 433.502 288.959 434.217 289.822C434.749 290.465 434.287 291.526 434.172 292.273C431.967 292.011 428.099 292.122 426.66 290.737C426.498 289.33 427.353 288.444 428.17 287.289L428.57 286.732C426.695 286.506 425.091 286.28 423.325 285.644L423.1 284.782L424.123 283.888Z" fill="#F8F8F5"/>
<path d="M740.075 341.676C742.404 339.143 745.657 334.557 749.347 333.663L750.576 334.351C752.268 336.045 753.591 337.643 754.8 339.618C753.647 340.072 752.541 340.545 751.32 340.848L749.225 340.721C746.11 339.988 745.333 340.241 742.569 341.565C741.783 341.942 741.064 342.328 740.227 342.611L740.075 341.676Z" fill="#AFAEB7"/>
<path d="M750.578 334.351C752.27 336.045 753.594 337.643 754.802 339.618C753.649 340.072 752.543 340.545 751.322 340.848C750.98 340.181 750.634 339.511 750.335 338.829C749.537 337.007 749.609 336.094 750.578 334.351Z" fill="#FEFEFE"/>
<path d="M985.002 347.384C986.196 347.355 987.328 347.442 988.516 347.527L989.059 348.352C988.039 351.315 985.334 352.714 984.046 355.346C983.646 356.161 983.313 356.642 982.671 357.326C980.381 356.502 978.321 355.325 976.216 354.211C978.874 351.513 981.556 349.339 985.002 347.384Z" fill="#FEFEFE"/>
<path d="M323.907 300.28C326.391 300.186 329.007 299.792 331.362 300.583L331.496 301.311C328.798 304.193 322.192 306.696 317.998 307.529L311.019 310.609C314.933 306.812 318.878 303.032 323.907 300.28Z" fill="#FEFEFE"/>
<path d="M324.602 312.152C325.947 313.174 326.586 313.959 326.72 315.538C326.752 315.91 326.737 316.284 326.761 316.658C327.077 321.569 329.234 318.577 332.152 320.805C330.749 321.891 328.097 322.187 326.242 322.603C325.582 321.85 325.278 321.558 324.445 321.024C323.348 321.384 322.263 321.748 321.19 322.157L320.393 322.468C319.452 321.819 319.212 321.37 319.213 320.276C319.216 317.646 322.496 313.862 324.602 312.152Z" fill="#F8F8F5"/>
<path d="M288.808 421.522C290.395 421.549 291.59 421.618 293.128 422.017C293.297 423.419 290.402 423.119 289.353 424.718L290.144 426.258C289.881 428.702 286.63 432.216 285.228 434.571C283.847 434.662 282.686 434.711 281.425 434.184C280.426 433.768 280.533 433.335 280.195 432.503C280.713 430.03 282.837 428.154 284.973 426.526C287.273 424.771 288.105 424.088 288.808 421.522Z" fill="#FEFEFE"/>
<path d="M398.92 283.361C400.929 283.503 402.747 283.534 404.57 284.347L404.717 285.492C403.987 286.544 402.976 287.749 402.497 288.891C401.912 290.283 402.208 290.603 402.984 291.772L404.186 291.844L406.76 289.893L407.818 290.156C408.706 291.67 409.001 292.762 409.268 294.444C406.063 296.019 403.911 293.133 400.739 293.302C400.135 294.048 399.529 294.614 398.747 295.23L398.286 294.837C398.412 291.009 398.623 287.183 398.92 283.361Z" fill="#F8F8F5"/>
<path d="M312.739 362.226L314.775 364.456C315.968 364.864 317.19 365.35 318.512 365.301C321.78 365.179 323.707 363.444 325.619 361.414L325.969 361.866C327.014 363.199 327.916 364.103 329.386 365.099C328.361 366.76 326.492 367.804 325.087 369.246L321.409 369.371C320.281 369.236 319.119 369.102 318.026 368.823C315.597 368.203 313.292 367.081 312.224 365.048C311.615 363.888 312.258 363.351 312.739 362.226Z" fill="#F8F8F5"/>
<path d="M293.445 408.904C294.287 409.121 298.296 414.241 299.287 415.262C295.779 413.544 292.242 411.209 288.016 411.979C286.958 413.123 287.11 413.296 287.113 414.779C291.847 416.74 292.964 412.304 300.591 417.602C299.829 418.558 298.978 419.37 298.059 420.22L296.853 419.923C296.492 419.326 296.078 418.492 295.593 417.944C293.952 416.088 286.601 417.636 283.759 417.006C282.376 416.699 282.345 416.445 281.715 415.44L282.058 414.507C283.187 414.658 283.953 414.703 285.073 414.494C287.561 410.912 288.953 410.258 293.445 408.904Z" fill="#F8F8F5"/>
<path d="M388.112 303.353C389.638 303.429 389.933 303.165 391.063 304.122C389.908 307.06 382.351 310.377 379.165 312.153C379.106 314.861 379.523 317.606 379.795 320.303C379.064 320.497 378.628 320.381 377.885 320.281C377.303 319.773 377.155 319.714 376.755 318.968C375.418 316.478 376.129 313.247 377.262 310.831C379.014 307.097 383.956 304.887 388.112 303.353Z" fill="#F8F8F5"/>
<path d="M425.485 251.398L426.948 251.96C426.834 252.242 426.687 252.514 426.608 252.803C426.271 254.029 427.687 255.559 428.401 256.552C429.77 257.063 431.077 257.44 432.075 258.433C430.928 260.067 428.149 261.241 426.289 262.32C425.548 262.91 424.939 263.093 424.015 263.423C423.263 263.082 423.125 263.046 422.366 262.564C420.872 261.618 420.192 260.624 419.858 259.068C420.129 257.812 420.367 257.146 421.331 256.153C422.818 254.622 424.139 253.019 425.485 251.398Z" fill="#F8F8F5"/>
<path d="M316.962 355.771L317.754 355.828C320.31 357.927 321.786 359.105 325.369 359.637C325.303 360.411 325.021 360.794 325.62 361.414C323.708 363.444 321.781 365.179 318.513 365.301C317.191 365.35 315.969 364.864 314.776 364.456L312.74 362.226C314.061 359.848 314.998 357.862 316.962 355.771Z" fill="#6D3A22"/>
<path d="M324.657 389.409C325.004 389.323 325.355 389.248 325.698 389.151C328.957 388.231 330.721 385.385 334.15 384.395L336.079 385.428C337.629 384.261 337.473 383.041 339.234 382.074L341.258 382.212C340.695 384.229 338.054 384.864 337.514 387.016C338.976 388.144 341.157 388.12 343.038 388.338L343.636 389.004C342.935 390.087 341.672 390.861 340.246 391.163C334.124 392.46 335.555 386.152 327.417 390.308C326.163 390.319 325.468 390.303 324.352 389.792C322.193 389.894 320.593 390.407 318.819 391.476C318.843 392.59 318.885 393.615 318.62 394.709L317.559 394.092C316.883 392.701 316.552 391.679 317.073 390.176C317.618 388.605 318.575 387.971 320.14 387.15C322.111 387.221 323.249 388.361 324.657 389.409Z" fill="#F8F8F5"/>
<path d="M283.57 269.503C285.313 269.872 287.6 270.54 288.863 271.659C291.195 273.723 290.726 277.645 290.792 280.311C287.705 282.034 284.64 283.784 281.597 285.561C280.386 285.95 279.064 286.177 277.811 286.459L277.256 285.971C279.057 283.954 281.522 282.644 283.917 281.182C282.375 276.507 282.351 274.156 283.57 269.503Z" fill="#FEFEFE"/>
<path d="M407.937 269.083C409.704 269.77 410.537 270.439 411.454 271.889C411.45 273.752 410.031 275.413 408.543 276.702C403.194 281.333 394.27 280.311 387.254 280.405L385.419 276.484C384.359 275.471 383.739 274.885 383.397 273.541C385.897 273.819 389.707 277.027 392.761 277.868C393.017 277.939 393.276 278.001 393.534 278.068C396.512 276.968 400.629 276.755 403.292 275.479C404.838 274.738 406.189 272.861 406.548 271.43C406.841 270.263 406.489 270.767 407.361 269.705C407.538 269.488 407.745 269.29 407.937 269.083Z" fill="#F8F8F5"/>
<path d="M396.688 321.911C397.498 322.451 397.286 322.182 397.712 322.93C398.281 323.93 398.638 324.824 399.555 325.651C400.513 326.517 407.892 325.459 409.825 325.621C412.032 325.804 413.223 326.342 414.64 327.759C414.975 328.991 414.614 329.749 414.174 330.93C412.121 331.085 409.684 329.948 407.757 329.327C407.075 329.02 406.337 328.876 405.6 328.687C404.251 329.668 404.267 332.586 403.935 334.181C402.764 335.379 402.697 335.354 400.897 335.687C399.336 334.808 398.678 334.013 398.028 332.492C397.407 331.036 395.422 325.313 395.658 323.83C395.768 323.133 396.344 322.55 396.688 321.911Z" fill="#FEFEFE"/>
<path d="M391.38 308.216C393.712 309.979 395.648 312.828 396.646 315.323C397.095 316.446 397.516 317.985 396.883 319.113C395.922 318.919 394.677 318.414 393.735 318.773C390.755 319.914 388.852 324.98 387.553 327.408C387.227 327.769 386.808 328.063 386.418 328.374C386.36 324.116 383.532 318.814 384.574 314.845C384.989 314.96 385.394 315.108 385.819 315.19C386.878 315.393 387.464 315.407 388.321 314.842C390.836 313.186 390.91 310.697 391.38 308.216Z" fill="#FEFEFE"/>
<path d="M307.922 271.563C310.389 272.46 313.08 273.309 315.353 274.527C317.74 275.805 319.656 278.065 320.223 280.435C320.639 282.18 320.067 284.169 318.904 285.631C317.231 287.734 315.751 288.604 312.843 289.08C313.364 286.422 313.859 283.759 314.329 281.093C312.74 279.421 311.198 277.299 308.795 276.475C307.88 276.817 307.082 277.079 306.113 277.307C305.609 276.342 305.755 276.695 305.41 275.772L305.192 275.167L302.925 274.305C304.763 273.679 305.941 273.032 307.44 271.926L307.922 271.563Z" fill="#FEFEFE"/>
<path d="M754.807 339.618C759.072 341.63 762.055 349.546 763.354 353.339C764.806 357.577 766.823 363.594 765.86 367.944C764.912 365.32 764.64 362.792 763.195 360.281L763.042 358.019C763.092 355.996 762.149 353.729 761.591 351.764C760.401 349.175 759.155 346.76 757.575 344.319C753.291 344.072 749.135 344.077 744.846 344.23L743.427 344.711L740.507 345.753L736.49 349.143C732.983 352.274 731.793 356.39 728.698 359.534L728.347 359.214C728.369 358.21 728.225 358.322 728.592 357.607C729.972 354.922 735.336 344.27 737.524 342.59C737.982 342.24 739.457 341.9 740.082 341.676L740.234 342.611C741.071 342.328 741.79 341.942 742.576 341.565C745.34 340.241 746.117 339.988 749.232 340.721L751.327 340.847C752.548 340.545 753.654 340.072 754.807 339.618Z" fill="#6D3A22"/>
<path d="M279.088 295.483L279.362 294.12L280.601 293.986C280.78 294.058 280.958 294.134 281.139 294.202C283.953 295.251 284.949 294.317 287.639 294.395C292.094 294.523 296.514 295.379 300.994 295.357C306.107 295.331 314.156 292.925 318.781 294.591C316.443 297.038 308.54 297.808 304.988 298.123C298.845 298.67 291.772 298.109 286.475 300.887C286.09 301.089 285.255 301.439 284.846 301.618C283.788 302.082 283.986 302.232 282.79 301.944C282.805 301.728 282.823 301.511 282.835 301.295C282.879 300.501 282.852 299.734 282.808 298.942L282.082 298.396C280.947 297.523 280.03 296.501 279.088 295.483Z" fill="#F8F8F5"/>
<path d="M849.015 291.542C858.137 289.59 866.471 282.026 876.547 279.403C874.198 281.637 871.848 283.846 869.746 286.258C868.929 286.153 868.122 285.91 867.297 285.941C865.449 286.009 858.924 290.134 857.173 291.043C847.043 296.301 835.365 300.512 825.848 306.447C825.673 306.557 825.499 306.67 825.325 306.782C823.272 308.441 821.064 310.452 818.537 311.562C816.076 312.642 809.047 314.672 806.574 313.905C809.825 310.143 819.244 308.454 824.057 305.803C824.266 305.687 824.471 305.566 824.677 305.448C828.618 303.08 832.337 300.541 836.451 298.368C838.267 297.41 843.092 295.664 844.242 294.458C844.522 294.164 844.557 293.747 844.716 293.392C846.429 292.966 847.544 292.368 849.015 291.542Z" fill="#F8F8F5"/>
<path d="M623.944 344.055C626.251 344.078 633.799 344.374 635.438 345.401C634.782 346.192 634.323 346.769 633.91 347.681C636.304 347.604 636.363 347.454 638.052 346.022C638.91 345.295 639.873 344.854 641.131 344.886C642.592 344.924 661.252 347.673 662.209 347.985C663.406 348.374 663.778 348.947 664.62 349.739L663.184 351.182C656.814 353.056 640.674 350.02 632.907 349.945C628.848 349.905 622.508 351.294 618.848 350.415L618.753 349.097C619.943 346.926 621.89 345.621 623.944 344.055Z" fill="#F8F8F5"/>
<path d="M729.294 463.015C738.179 462.655 746.425 462.857 755.24 463.897C754.371 467.16 753.234 470.34 752.097 473.539C745.466 473.665 738.695 473.316 732.057 473.197C730.748 470.189 728.879 466.864 728.408 463.693L729.294 463.015Z" fill="#F8F8F5"/>
<path d="M968.987 370.743C969.983 373.244 971.005 375.737 972.054 378.222C968.968 379.442 965.959 380.788 963.028 382.262C960.097 383.734 957.259 385.327 954.512 387.039C951.766 388.751 949.125 390.574 946.589 392.508C944.054 394.442 941.637 396.478 939.336 398.616C937.948 396.217 937.836 393.58 937.54 390.963C942.105 385.36 961.416 374.882 968.987 370.743Z" fill="#FEFEFE"/>
<path d="M974.541 371.323C982.775 373.785 997.199 383.869 1003.77 389.038C1004.11 391.947 1004.09 394.898 1004.19 397.821C993.935 392.98 984.346 385.787 974.66 380.05C974.366 377.067 974.159 374.312 974.541 371.323Z" fill="#FEFEFE"/>
<path d="M512.018 314.984C517.846 320.723 521.539 327.322 524.928 334.275L514.035 333.874C509.75 333.826 504.738 334.167 500.639 333.11C499.781 332.313 499.679 332.59 499.817 331.69C500.628 326.416 507.517 318.489 512.018 314.984Z" fill="#FEFEFE"/>
<path d="M512.329 471.264C515.862 470.848 519.736 470.949 523.315 470.827C520.846 474.86 518.732 479.038 516.565 483.193C513.016 484.21 509.343 484.657 505.661 485.182L499.292 485.739C498.078 483.531 496.1 480.71 495.791 478.282C495.62 476.948 495.844 475.411 496.975 474.403C500.032 471.677 508.037 471.703 512.329 471.264Z" fill="#FEFEFE"/>
<path d="M723.939 455.255C723.718 453.539 723.114 452.01 724.015 450.435C731.951 447.625 751.356 449.754 760.005 450.44L756.805 461.195C751.615 460.21 746.408 460.122 741.12 459.861L740.672 459.53C735.349 459.018 733.013 455.418 723.939 455.255Z" fill="#45A784"/>
<path d="M950.644 466.798C964.82 466.629 984.712 465.965 998.597 467.093C1004.28 467.554 1009.93 468.861 1015.61 469.564C1010.49 469.821 1005.51 470.306 1000.45 470.976C979.064 473.327 958.686 472.504 937.399 470.064C941.791 468.568 945.987 467.49 950.644 466.798Z" fill="#F8F8F5"/>
<path d="M757.568 344.319C759.148 346.76 760.394 349.175 761.584 351.764C762.142 353.729 763.085 355.996 763.035 358.019L758.724 357.815C754.848 356.809 750.269 357.405 746.305 357.799C740.563 358.89 734.353 360.558 729.085 362.808C727.784 362.635 728.276 362.907 727.552 362.072L728.691 359.534C731.786 356.39 732.977 352.274 736.483 349.143L740.5 345.753L743.42 344.711L744.839 344.23C749.128 344.077 753.284 344.072 757.568 344.319Z" fill="#45A784"/>
<path d="M751.075 346.237C752.55 348.781 752.31 351.029 751.952 353.783L758.164 354.808L760.597 355.316C761.838 354.318 761.492 353.173 761.592 351.764C762.15 353.729 763.093 355.996 763.043 358.019L758.731 357.815C754.855 356.809 750.276 357.405 746.312 357.8L750.615 355.983L751.308 353.426C750.137 352.574 750.715 352.787 749.286 352.509C747.631 352.188 748.526 352.44 746.944 351.976C746.659 351.893 746.378 351.8 746.095 351.714C748.056 350.364 748.88 348.684 750.367 347.021L751.075 346.237Z" fill="#388672"/>
<path d="M736.483 349.143C737.153 351.695 737.952 354.208 738.708 356.74C740.089 354.768 741.306 352.905 743.275 351.303C744.877 350.994 744.705 351.151 746.087 351.714C746.371 351.801 746.652 351.893 746.936 351.976C748.519 352.44 747.623 352.188 749.279 352.509C750.708 352.787 750.129 352.574 751.301 353.426L750.607 355.983L746.305 357.8C740.563 358.89 734.353 360.558 729.085 362.809C727.784 362.635 728.276 362.907 727.552 362.072L728.691 359.534C731.786 356.39 732.977 352.274 736.483 349.143Z" fill="#3B9487"/>
<path d="M750.61 355.983C749.83 355.936 748.782 355.94 748.003 355.78C746.676 355.507 746.61 355.279 745.964 354.338L746.818 353.45C748.818 352.917 749.236 353.023 751.303 353.426L750.61 355.983Z" fill="#45A784"/>
<path d="M503.758 367.449C513.275 366.821 523.058 367.54 532.65 367.098C533.272 369.911 533.301 372.832 533.483 375.688L515.206 375.529C505.02 375.451 494.854 375.798 484.707 376.57C484.878 373.697 485.284 370.821 485.61 367.956C491.662 367.843 497.711 367.674 503.758 367.449Z" fill="#FEFEFE"/>
<path d="M973.846 233.635C978.935 231.74 983.736 230.119 989.18 229.108C974.532 236.5 959.121 243.109 944.171 250.079C935.366 254.185 926.528 258.172 917.629 262.126C913.669 263.885 909.55 266.1 905.422 267.509C901.634 269.781 882.05 280.053 878.338 279.685C878.043 279.656 877.755 279.583 877.463 279.533C878.23 277.842 880.166 276.353 881.587 275.004C882.931 272.479 898.205 265.808 901.755 264.507C907.912 263.853 924.516 252.335 933.227 249.823C936.165 248.186 939.563 246.266 941.64 243.832L941.077 243.182C938.701 242.971 936.907 243.377 934.619 243.904C936.464 242.749 938.058 241.601 940.308 241.118L941.583 242.699L942.305 242.484C943.117 241.282 943.64 240.463 945.053 239.719C945.396 239.539 945.748 239.371 946.094 239.196L949.754 239.786L948.945 242.115C954.261 240.689 958.619 239.479 963.665 237.339C967.203 236.49 970.526 234.965 973.846 233.635Z" fill="#F8F8F5"/>
<path d="M503.723 343.801C508.508 343.378 521.485 342.172 525.491 343.794C530.265 345.728 531.764 352.704 533.243 356.707C527.964 357.281 522.574 357.385 517.26 357.634C507.666 357.87 498.082 358.56 488.502 359.041C488.908 354.155 490.48 349.458 492.047 344.768C495.928 344.386 499.833 344.116 503.723 343.801Z" fill="#FEFEFE"/>
<path d="M568.113 454.467L570.892 454.713C579.211 462.116 576.631 457.15 583.226 457.232C586.853 457.277 590.828 458.091 594.419 458.59C593.72 462.108 592.927 465.692 591.711 469.108C590.769 471.75 589.979 474.683 587.037 476.034C581.02 477.7 575.443 478.697 569.11 478.897C568.987 478.733 568.862 478.57 568.741 478.404C565.599 474.103 559.35 463.486 560.722 458.495C565.799 457.022 564.044 455.942 568.113 454.467Z" fill="#FEFEFE"/>
<path d="M641.451 315.275C642.413 315.436 642.6 315.434 643.609 315.776C650.805 318.226 658.808 337.618 662.204 344.036C656.623 343.518 650.977 342.816 645.358 342.868C640.607 342.19 629.361 343.611 625.978 341.975C625.258 341.625 624.982 340.822 624.918 340.155C624.419 335.015 637.2 319.173 641.451 315.275Z" fill="#FEFEFE"/>
<path d="M746.307 357.8C750.27 357.405 754.85 356.809 758.726 357.815L763.037 358.019L763.19 360.281C764.635 362.792 764.907 365.32 765.855 367.944L767.383 375.292L759.86 374.64C757.406 374.126 754.887 374.266 752.377 374.279C748.586 374.26 745.042 374.302 741.351 375.186L737.997 375.908C735.969 376.452 733.473 377.781 731.404 377.692C729.1 378.336 726.679 378.891 724.452 379.701L722.963 378.908C722.41 376.138 724.302 373.629 723.969 370.749C724.105 369.832 723.986 369.998 724.374 369.279C725.822 366.595 727.282 365.179 730.565 364.204L731.234 363.128L729.087 362.808C734.355 360.558 740.565 358.89 746.307 357.8Z" fill="#ACD3C1"/>
<path d="M746.302 357.8C750.265 357.405 754.845 356.809 758.721 357.815L763.032 358.019L763.185 360.281C759.586 359.894 756.328 359.62 752.695 359.885C747.007 360.301 738.962 360.426 734.344 363.588L730.56 364.204L731.229 363.128L729.082 362.808C734.35 360.558 740.56 358.89 746.302 357.8Z" fill="#83090B"/>
<path d="M730.565 364.204L734.35 363.588C733.222 365.201 732.284 366.283 730.575 367.478C731.626 368.582 732.68 369.637 733.839 370.66C735.7 372.302 736.388 374.285 737.997 375.908C735.969 376.452 733.473 377.781 731.404 377.692C729.1 378.336 726.679 378.891 724.452 379.701L722.963 378.908C722.41 376.139 724.302 373.629 723.969 370.749C724.105 369.832 723.986 369.998 724.374 369.279C725.822 366.595 727.282 365.179 730.565 364.204Z" fill="#A1D7C0"/>
<path d="M723.969 370.75L728.916 371.206C730.252 373.322 730.805 375.376 731.404 377.693C729.1 378.337 726.679 378.891 724.452 379.701L722.963 378.908C722.41 376.139 724.302 373.629 723.969 370.75Z" fill="#ACD3C1"/>
<path d="M752.706 359.885C756.338 359.62 759.597 359.894 763.196 360.281C764.64 362.792 764.912 365.319 765.861 367.944L767.389 375.292L759.865 374.639C757.412 374.126 754.893 374.266 752.383 374.279C748.592 374.26 745.047 374.302 741.357 375.186C741.697 374.369 742.05 373.634 742.117 372.759C742.179 371.942 740.728 371.005 740.075 370.403L742.095 369.374C742.578 368.439 743.019 367.757 743.8 366.98L746.49 367.676C747.62 367.696 748.089 367.554 749.112 367.088C751.912 365.814 756.509 363.788 757.338 361.096C755.886 359.921 754.657 360.095 752.706 359.885Z" fill="#A1D7C0"/>
<path d="M1097.7 280.691C1111.3 286.704 1128.25 291.561 1141.03 298.375C1141.86 300.801 1143.13 303.246 1141.86 305.638C1129.53 305.854 1117.24 307.078 1104.89 307.264C1103.25 298.265 1099.36 289.723 1097.7 280.691Z" fill="#FEFEFE"/>
<path d="M691.74 317.085C692.331 317.748 692.798 318.505 693.3 319.218C693.56 322.513 692.179 325.714 691.579 328.954C689.416 340.651 686.196 352.427 684.651 364.171C683.311 374.357 682.823 384.631 681.874 394.849L677.129 444.068C676.554 450.704 676.962 464.759 674.852 470.404C674.295 471.893 673.711 471.89 672.151 472.592C671.048 472.035 670.531 471.772 669.992 470.763C670.048 462.631 671.631 454.614 672.123 446.507C672.918 433.406 672.824 420.268 673.858 407.174C674.869 394.381 677.252 381.571 679.065 368.84C681.002 355.25 682.212 340.484 686.344 327.268C687.528 323.486 689.167 320.346 691.74 317.085Z" fill="#F8F8F5"/>
<path d="M729.081 422.967L737.075 422.619L737.333 424.783C743.092 425.129 751.457 424.958 756.546 427.374C759.516 428.117 762.608 428.753 765.511 429.66L765.27 430.375C764.839 437.029 762.783 442.589 759.815 448.692C744.515 445.634 737.576 447.394 722.52 447.928C721.012 441.195 720.426 434.198 719.308 427.398L719.146 424.097C722.463 423.618 725.732 423.237 729.081 422.967Z" fill="#DB7736"/>
<path d="M729.078 422.967L737.072 422.619L737.33 424.783L728.559 425.824L729.078 422.967Z" fill="#54141D"/>
<path d="M719.146 424.097C722.463 423.618 725.732 423.238 729.081 422.967L728.562 425.825C725.483 426.374 722.409 426.959 719.308 427.398L719.146 424.097Z" fill="#6D3A22"/>
<path d="M756.546 427.374C759.516 428.117 762.609 428.753 765.512 429.66L765.271 430.375C763.941 431.433 763.194 432.046 762.624 433.535C761.246 437.145 758.709 443.035 755.585 445.743L754.807 445.344C753.397 440.142 755.139 434.207 756.742 429.14C756.808 428.929 756.881 428.72 756.951 428.51L755.952 428.016L756.546 427.374Z" fill="#E28943"/>
<path d="M740.204 403.526L744.357 404.055C748.938 404.136 753.502 404.507 758.068 404.825L769.075 406.966C768.921 410.875 768.56 424.668 765.809 427.345L764.511 427.6L765.506 429.66C762.603 428.753 759.511 428.117 756.541 427.374C751.452 424.959 743.087 425.129 737.328 424.783L737.07 422.619L729.076 422.967C725.727 423.238 722.458 423.618 719.142 424.097C718.841 418.545 716.543 411.916 718.832 406.671C720.724 405.261 722.212 405.329 724.654 404.962C728.651 404.462 732.563 403.987 736.61 403.894L740.204 403.526Z" fill="url(#paint0_linear_60_5)"/>
<path d="M740.205 403.526L744.358 404.055C743.762 404.742 743.152 405.507 742.429 406.1C741.272 407.049 740.522 407.186 738.978 407.153C737.456 406.159 737.224 405.379 736.612 403.894L740.205 403.526Z" fill="#45A784"/>
<path d="M737.075 422.619C747.321 422.622 755.26 423.579 764.516 427.6L765.511 429.66C762.608 428.753 759.516 428.117 756.546 427.374C751.457 424.958 743.092 425.129 737.333 424.783L737.075 422.619Z" fill="#54141D"/>
<path d="M967.286 312.526C968.237 312.494 968.892 312.288 969.719 312.774C971.304 313.707 971.819 315.191 972.081 316.738C973.012 322.243 972.929 348.261 969.648 352.016C965.851 353.002 958.099 345.021 950.436 344.479C950.195 344.463 949.953 344.45 949.712 344.435C945.803 345.149 942.332 346.094 938.641 347.405C937.89 341.655 934.836 318.941 938.464 315.45C942.646 311.426 960.772 312.662 967.286 312.526Z" fill="#FEFEFE"/>
<path d="M752.374 374.279C754.884 374.266 757.404 374.126 759.857 374.64L758.139 375.272L758.644 376.37C761.586 376.873 764.666 377.117 767.093 378.711C767.625 379.663 767.874 380.261 767.899 381.318C767.677 388.83 767.941 396.311 768.214 403.818C764.314 403.367 760.54 402.822 756.714 402.026C750.886 400.655 744.088 400.894 738.051 400.727L737.064 402.489L737.415 403.103L740.206 403.526L736.612 403.894C732.565 403.987 728.653 404.462 724.656 404.962C723.688 403.351 723.383 402.867 721.388 402.311C719.959 402.201 719.945 402.43 718.895 401.49C718.144 399.123 718.334 396.814 718.644 394.394C719.189 390.137 720.446 383.709 724.522 380.985L724.45 379.701C726.676 378.891 729.097 378.336 731.401 377.692C733.471 377.781 735.967 376.452 737.995 375.908L741.349 375.186C745.039 374.302 748.584 374.26 752.374 374.279Z" fill="#D34F63"/>
<path d="M729.033 393.572C728.278 392.357 727.951 391.716 728.012 390.331C728.801 389.088 729.346 388.503 730.713 387.7L731.986 387.924C732.543 389.301 731.784 390.1 731.196 391.421L729.033 393.572Z" fill="#A32D2F"/>
<path d="M743.387 391.821C744.244 390.628 744.635 389.798 746.229 389.263C747.22 389.505 747.452 389.358 748.012 390.201C748.613 391.104 748.881 392.091 748.617 393.133C748.48 393.674 748.097 394.156 747.773 394.622L746.493 395.052L744.745 394.364L743.387 391.821Z" fill="#D55E6F"/>
<path d="M746.517 382.172C746.664 381.439 746.761 380.91 747.223 380.262C747.705 379.586 748.984 379.276 749.888 379.128C751.277 378.899 752.687 378.975 753.863 379.674L753.714 380.828C752.42 382.302 751.294 384.241 749.231 384.811C747.878 384.071 747.363 383.303 746.517 382.172Z" fill="#D55E6F"/>
<path d="M731.193 391.421C733.121 390.645 733.82 390.149 735.975 390.358C736.765 391.452 736.759 391.631 736.393 392.955C735.872 394.848 734.285 396.591 732.939 398.12C731.918 397.136 728.941 394.874 728.639 393.728L729.03 393.572L731.193 391.421Z" fill="#D55E6F"/>
<path d="M721.391 402.311C726.571 401.096 732.701 401.048 738.054 400.727L737.067 402.489L737.418 403.103L740.209 403.526L736.615 403.894C732.568 403.986 728.656 404.462 724.659 404.962C723.691 403.351 723.386 402.867 721.391 402.311Z" fill="#6D3A22"/>
<path d="M752.376 374.279C754.886 374.266 757.405 374.126 759.859 374.64L758.141 375.272L758.646 376.37C754.939 376.324 751.233 376.385 747.53 376.555C744.791 377.236 738.946 377.633 736.863 378.885C732.786 379.947 728.842 381.007 724.524 380.985L724.452 379.701C726.678 378.891 729.099 378.336 731.403 377.692C733.472 377.781 735.968 376.452 737.996 375.908L741.35 375.186C745.041 374.302 748.585 374.26 752.376 374.279Z" fill="#6D3A22"/>
<path d="M976.098 312.085C985.024 312.075 994.095 312.067 1002.97 312.915C1004.21 322.875 1003.04 333.297 1003.35 343.335C1003.49 347.81 1003.51 352.452 1004.18 356.894C1004.59 359.54 1005.45 362.227 1005.67 364.88C1005.77 366.155 1005.88 367.14 1004.83 368.112C1004.56 368.104 1004.28 368.105 1004 368.088C998.375 367.739 989.061 362.148 985.537 358.626C985.185 357.065 985.484 356.898 986.329 355.451C987.172 354.292 988.014 353.126 988.933 352.009C990.329 350.313 992.386 348.325 994.962 348.099C995.937 348.014 996.05 348.419 996.683 348.948C996.979 350.299 996.976 351.434 996.864 352.792C996.794 353.642 997.414 353.922 998.024 354.565L998.58 354.383C999.288 352.686 998.982 350.817 998.907 349.043C999.884 347.673 1001.28 347.373 1002.92 346.653L1002.48 346.161C1001 345.924 999.513 345.726 998.018 345.566C987.566 344.518 981.915 346.817 973.86 352.237C974.192 343.844 974.685 335.44 974.888 327.046C974.967 323.813 974.268 320.187 974.981 317.026L976.098 312.085Z" fill="#FEFEFE"/>
<path d="M974.733 397.166C980.977 398.501 994.659 409.182 1001.7 412.962C1001.47 420.709 1002.01 428.492 1002.03 436.245C1002.04 442.131 1001.55 448.001 1001.34 453.881C1001.23 456.93 1001.96 459.986 1001.33 462.989C996.008 463.87 979.399 464.93 974.9 463.05C971.768 451.478 974.453 431.314 974.55 418.634C974.603 411.666 973.528 404.004 974.733 397.166Z" fill="#FEFEFE"/>
<path d="M970.456 395.196C970.96 395.659 971.129 396.17 971.219 396.808C972.336 404.741 971.606 459.561 967.074 463.878C965.155 464.096 946.471 463.788 945.314 463.479C944.32 463.213 944.364 462.605 944.002 461.851C944.346 447.359 940.149 433.092 938.446 418.677C944.394 413.407 951.488 409.182 958.079 404.526C962.325 401.528 966.188 398.179 970.456 395.196Z" fill="#FEFEFE"/>
<path d="M934.623 243.904C936.911 243.377 938.705 242.971 941.081 243.182L941.644 243.831C939.567 246.266 936.169 248.185 933.231 249.823C924.519 252.335 907.916 263.853 901.759 264.507C898.209 265.808 882.935 272.478 881.591 275.004C871.028 279.786 857.47 284.283 849.021 291.542C847.55 292.368 846.435 292.966 844.722 293.392C836.716 297.019 815.981 309.168 809.881 310.527C807.678 311.018 805.618 311.347 803.781 312.538L803.517 313.121L804.223 314.116C790.472 317.304 768.327 323.718 755.114 324.848C765.354 319.091 774.097 312.313 783.808 306.038C790.168 301.929 797.119 298.502 803.646 294.593C808.726 291.702 813.752 288.746 818.724 285.724C825.168 280.833 833.289 276.876 841.141 273.892C848.716 270.003 856.977 267.434 864.503 263.575C869.359 262.233 877.115 258.364 881.945 259.597C882.731 258.684 883.621 257.68 884.72 257.025C885.748 256.413 886.57 256.502 887.758 256.631C888.741 256.736 889.606 256.843 890.606 256.838L891.738 256.829C894.837 252.649 927.107 245.794 934.623 243.904Z" fill="#FEFEFE"/>
<path d="M881.942 259.597C882.728 258.684 883.617 257.68 884.717 257.025C885.745 256.413 886.567 256.502 887.755 256.631C888.738 256.736 889.603 256.843 890.603 256.838L891.735 256.829C891.408 258.944 890.175 260.321 887.988 261.51C886.63 262.248 885.714 262.301 884.152 262.446L882.918 261.946L881.942 259.597Z" fill="#F8F8F5"/>
<path d="M841.139 273.892C848.715 270.003 856.975 267.434 864.502 263.575L862.678 265.924L863.24 266.545L865.748 266.798L864.969 268.659L865.214 268.108C861.376 269.671 847.742 275.98 845.242 276.636C838.133 281.316 822.804 286.159 817.868 291.385C815.926 293.441 814.056 295.97 810.661 296.179C808.052 296.34 805.833 295.758 803.645 294.593C808.724 291.702 813.75 288.746 818.723 285.724C825.167 280.833 833.287 276.876 841.139 273.892Z" fill="#F8F8F5"/>
<path d="M441.511 323.196C441.603 323.285 441.713 323.362 441.789 323.462C442.928 324.979 439.461 340.58 439.029 343.687C436.299 363.327 434.215 383.084 431.108 402.681C428.408 419.709 425.869 436.839 422.844 453.821C421.133 463.425 418.87 472.902 417.343 482.549L403.695 482.473C402.215 465.209 401.259 447.745 403.072 430.466C406.23 400.378 411.252 369.931 426.466 342.313C430.23 335.481 434.607 328.113 441.511 323.196Z" fill="#FEFEFE"/>
<path d="M335.248 395.507C333.384 395.604 331.963 395.483 330.35 396.361C330.108 397.553 330.091 397.993 329.192 398.969C327.464 398.423 326.362 397.556 325.075 396.46C325.683 394.737 326.849 394.186 328.398 392.998C329.77 393.324 330.921 393.593 332.355 393.562C332.714 393.554 333.074 393.538 333.435 393.527C344.955 393.066 355.302 392.831 366.114 396.69C369.697 422.536 374.332 458.958 357.031 481.843C350.149 481.978 343.763 483.028 336.982 483.714C323.422 464.304 318.116 450.347 317.305 427.672C317.18 424.187 316.184 419.119 316.835 415.765C316.961 415.111 317.136 414.936 317.48 414.429L318.612 413.985C319.774 414.352 320.699 414.756 321.736 415.333C322.806 415.206 323.83 415.065 324.888 414.87C324.983 415.11 325.076 415.351 325.177 415.589C325.509 416.376 325.89 417.05 326.358 417.78C327.96 418.277 328.466 418.476 330.162 417.897C332.235 417.189 334.691 413.277 336.366 413.541C336.574 415.896 336.616 418.582 338.742 420.332C339.238 420.74 340.037 421.062 340.627 421.364C342.387 422.263 343.064 423.32 343.998 424.804C348.468 423.994 353.268 417.37 355.677 414.215C356.649 412.942 357.734 411.713 357.609 410.167C349.479 405.454 344.303 399.073 335.248 395.507Z" fill="#FEFEFE"/>
<path d="M646.898 364.248C646.521 362.935 645.677 361.045 645.603 359.733C645.579 359.338 646.592 357.236 646.485 357.09C646.26 356.782 645.778 356.686 645.425 356.484L643.727 356.538C642.854 357.4 642.067 358.268 641.299 359.199C639.576 359.789 638.869 359.733 637.079 359.348C636.383 360.158 635.752 360.93 635.203 361.821C634.783 358.755 632.67 357.703 630.291 355.584C629.546 354.92 629.418 354.028 629.16 353.17C633.73 350.272 651.459 353.451 657.596 353.768C659.097 354.846 660.66 355.508 661.185 357.153C660.14 357.937 659.093 358.538 657.905 359.156L658.006 359.949C658.179 361.406 658.636 362.821 657.679 364.124L656.67 363.94C655.571 361.988 654.482 358.551 652.445 357.329L650.868 357.129C649.953 359.273 650.78 362.378 651.009 364.669C652.407 365.053 653.758 365.382 655.015 366.05C659.631 372.835 647.135 378.534 647.583 385.656L648.31 385.847C648.997 384.73 649.562 383.796 650.526 382.822C652.611 390.187 645.965 398.948 645.844 406.512C645.652 418.558 646.675 430.918 647.367 442.959C647.917 452.563 648.673 458.754 647.305 468.371C647.11 468.382 646.916 468.386 646.722 468.403C641.007 468.891 638.77 467.071 634.856 467.161C634.645 467.165 634.395 467.118 634.228 467.227C632.943 468.066 633.797 469.289 631.752 470.166L630.3 469.684C629.912 466.687 631.697 463.861 632.18 460.913C632.558 458.607 632.276 456.164 632.031 453.855C631.808 454.341 631.559 454.859 631.398 455.356C630.488 458.164 630.433 459.446 627.816 461.571C627.007 462.227 627.232 461.773 627.161 462.738C628.775 462.586 627.954 462.623 629.628 462.632C630.055 463.6 630.393 464.373 630.277 465.437C630.12 466.887 629.271 468.106 627.877 468.945C626.238 469.931 624.534 470.118 622.61 469.83C621.149 469.611 619.975 469.65 618.503 469.788C617.478 469.885 618.108 469.954 616.837 469.277C615.826 467.066 615.067 464.361 616.116 462.083C617.08 461.415 618.097 460.729 618.916 459.929C620.652 458.236 621.127 454.539 620.815 452.419L619.052 452.037C618.46 451.371 618.418 451.374 617.906 450.541C616.901 448.906 616.928 446.642 616.909 444.844C616.775 432.083 618.383 419.418 618.936 406.688C619.184 400.967 618.188 381.57 620.013 377.503C620.403 376.634 621.592 376.458 622.521 376.079C624.181 374.09 618.631 369.45 618.994 364.106C619.782 362.949 620.316 362.6 621.707 361.992C623.887 361.919 625.41 363.025 627.114 364.04L628.157 364.67L629.391 364.215C630.343 362.952 631.113 361.727 632.626 360.894L633.096 361.328C632.852 362.703 632.687 364.031 632.591 365.42C633.429 366.634 633.554 366.778 635.015 367.423C636.854 366.255 637.003 364.682 638.124 363.027C638.923 361.848 639.646 361.637 641.126 361.35C643.456 361.787 645.04 363.031 646.898 364.248Z" fill="#FEFEFE"/>
<path d="M631.47 435.191C632.312 436.67 632.532 438.562 632.625 440.192C632.757 442.514 632.551 443.665 630.711 445.427C629.762 444.637 629.929 444.933 629.455 444.08C628.298 442.001 630.658 437.329 631.47 435.191Z" fill="#6D3A22"/>
<path d="M626.816 408.794L627.659 409.844C627.601 413.853 626.559 417.42 625.085 421.206C624.408 418.173 624.028 413.481 624.668 410.457C624.877 409.476 625.885 409.298 626.816 408.794Z" fill="#6D3A22"/>
<path d="M639.138 425.094C640.087 425.675 640.52 426.119 641.221 426.896C642.089 430.457 640.93 433.152 639.606 436.48L638.941 436.346C637.567 433.705 638.784 428.092 639.138 425.094Z" fill="#6D3A22"/>
<path d="M636.944 407.143C638.173 407.758 637.902 407.455 638.594 408.327C640.227 410.388 638.423 415.798 637.911 418.182C636.763 417.824 636.759 417.574 636.056 416.766C635.413 413.548 636 410.281 636.944 407.143Z" fill="#6D3A22"/>
<path d="M623.986 423.986C625.018 426.515 624.124 433.779 623.154 436.375C621.41 434.829 621.069 433.227 620.957 431.072C620.797 428.008 621.607 426.259 623.986 423.986Z" fill="#6D3A22"/>
<path d="M630.483 374.104C630.998 374.5 631.319 374.98 631.706 375.468C632.094 378.143 632.555 381.141 631.59 383.77C631.192 384.852 630.585 384.788 629.46 385.279L628.377 384.002C628.344 380.631 629.162 377.274 630.483 374.104Z" fill="#6D3A22"/>
<path d="M641.464 448.285C642.386 448.922 642.268 448.705 642.809 449.596C644.522 452.412 644.314 461.302 643.228 464.252L641.093 463.863C639.504 460.966 641.38 451.891 641.464 448.285Z" fill="#6D3A22"/>
<path d="M446.124 324.118C452.939 329.821 456.589 346.934 458.757 355.08C464.563 376.9 463.675 401.993 458.429 423.891C455.708 435.25 451.627 446.407 447.831 457.534C445.503 464.362 441.845 476.92 437.692 482.595L420.1 482.471C423.25 468.676 425.066 454.549 427.384 440.639C429.985 425.024 433.115 409.342 435.084 393.667C437.996 370.478 439.286 346.756 446.124 324.118Z" fill="#FEFEFE"/>
<path d="M523.289 385.652C526.505 385.482 529.739 385.437 532.958 385.339C536.21 408.324 534.118 433.64 528.742 456.298C515.595 455.965 503.121 457.431 490.235 459.398C490.052 459.183 489.834 458.987 489.688 458.753C488.06 456.124 487.151 451.482 486.227 448.517C479.963 428.408 478.562 407.094 483.639 386.651C496.548 384.91 510.225 385.832 523.289 385.652Z" fill="#FEFEFE"/>
<path d="M1001.52 236.599C1014.83 240.614 1034.92 252.967 1048.24 259.043C1058.34 263.647 1068.84 268.195 1079.12 272.499C1084.6 274.796 1090.53 276.646 1095.51 279.688C1098.46 288.765 1100.18 298.203 1102.94 307.353C1087.07 308.047 1070.78 308.621 1054.9 308.202C1054.51 305.695 1054.47 303.115 1054.31 300.589C1054.39 299.728 1054.47 298.867 1054.53 298.005C1054.95 292.742 1055.81 269.345 1052.02 265.638L1051.37 265.901C1051.04 268.28 1052.18 270.966 1052.24 273.432C1052.54 285.023 1053.39 296.905 1052.51 308.468C1036.86 308.665 1021.39 310.195 1005.71 309.707C1005.87 301.843 1004.79 294.037 1004.84 286.199C1004.9 274.909 1007.15 259.916 1005.46 248.962C1004.83 244.845 1002.67 240.676 1001.52 236.599Z" fill="#FEFEFE"/>
<path d="M570.133 344.081C571.668 342.972 573.825 340.908 575.756 340.706C576.157 341.895 576.297 342.912 576.355 344.148C577.684 344.708 577.584 344.697 578.998 344.316C579.569 342.858 579.115 340.674 578.296 339.276C577.709 338.277 577.601 338.278 576.323 337.91C574.898 338.366 573.952 338.854 572.763 339.661C571.751 339.463 570.983 339.215 570.067 338.799C569.397 339.572 569.08 340.186 568.749 341.104C566.917 341.359 566.952 340.972 565.485 340.122C564.484 337.871 566.542 334.449 567.671 332.299C570.678 326.571 576.605 316.769 582.379 312.875C584.497 313.094 585.415 313.842 586.719 315.269C592.722 321.836 597.009 330.029 600.286 337.811C600.037 337.866 599.789 337.924 599.54 337.976C596.372 338.63 593.838 338.49 590.664 338.198C588.806 338.993 588.189 340.372 586.107 340.574C585.31 339.922 584.538 339.25 583.79 338.558C582.477 338.709 581.444 338.602 580.75 339.762C580.518 340.15 580.319 341.062 580.207 341.504C580.713 342.285 580.592 342.511 581.673 342.795C586.34 344.019 596.185 340.735 600.395 338.861L600.945 338.621C613.025 367.09 611.905 410.108 603.113 439.331C601.892 443.387 600.901 448.13 598.791 451.922C598.419 452.592 598.425 452.468 597.709 452.984C596.691 451.757 596.425 450.33 596.017 448.895C595.339 450.064 594.735 450.814 593.645 451.731C591.727 452.361 589.947 452.685 587.877 452.392C584.137 451.865 581.553 450.454 579.497 447.8C578.579 449.536 578.273 451.025 576.157 451.929C573.629 453.009 570.255 452.466 567.788 451.533C566.686 451.117 566.13 450.489 565.396 449.705C564.005 450.3 562.348 451.093 560.809 451.277C559.344 451.452 558.356 451.08 557.254 450.329C556.695 448.852 556.709 448.809 557.312 447.342C558.544 446.287 559.169 445.946 560.878 445.624C563.26 446.143 563.891 446.926 565.637 448.357C567.44 447.442 569.392 446.656 569.908 444.749C570.267 443.42 570.156 442.551 569.073 441.517C568.315 440.795 567.05 440.368 565.972 440.395C565.402 441.225 565.046 442.327 563.877 442.52C561.326 442.94 558.545 442.387 555.961 442.333C551.93 423.659 551.809 405.307 553.265 386.427C554.103 385.738 554.57 385.47 555.573 385.029C555.439 383.077 554.229 382.018 553.001 380.392C553.002 375.307 552.55 369.48 554.175 364.559L554.896 364.089C555.231 364.245 555.565 364.406 555.903 364.559C556.784 364.959 557.442 365.223 558.384 365.442L558.58 364.484C557.548 363.537 556.622 362.791 555.359 362.072C554.385 356.813 561.169 346.985 563.915 342.038L570.133 344.081Z" fill="#FEFEFE"/>
<path d="M584.959 361.311C586.635 361.172 587.902 361.277 589.542 361.506L588.06 361.437L583.378 362.043L583.799 361.556L581.99 362.095L583.03 361.948C583.696 361.394 584.07 361.462 584.959 361.311Z" fill="#F8F8F5"/>
<path d="M572.5 421.939C573.255 422.521 574.16 423.492 574.418 424.372C574.945 426.168 574.06 426.982 573.131 428.5C571.872 427.694 571.518 426.953 570.897 425.739C571.031 423.773 571.157 423.547 572.5 421.939Z" fill="#6D3A22"/>
<path d="M594.311 359.645C595.906 360.251 596.825 360.582 597.96 361.767C597.756 363.528 597.094 363.74 595.674 364.975C593.919 364.646 593.918 364.625 592.781 363.433C592.888 361.512 593.148 361.201 594.311 359.645Z" fill="#6D3A22"/>
<path d="M573.567 358.659C575.228 358.676 575.975 358.979 577.393 359.698C578.132 360.849 577.989 360.817 577.577 362.102L575.184 363.24C574.789 363.607 573.82 364.048 573.32 364.328L572.717 364.204L572.205 363.302C572.241 361.333 572.524 360.416 573.567 358.659Z" fill="#6D3A22"/>
<path d="M571.003 399.446C571.965 400.082 571.969 399.942 572.526 400.822C573.591 402.502 573.898 404.338 573.287 406.179C572.638 408.136 571.499 408.701 569.544 409.591C569.109 409.45 568.593 409.3 568.2 409.093C566.941 408.434 566.265 407.834 566.106 406.527C565.788 403.89 569.043 401.141 571.003 399.446Z" fill="#6D3A22"/>
<path d="M593.221 401.665C594.517 401.67 596.089 402.095 597.025 402.914C598.365 404.087 598.305 404.653 598.425 406.193C597.458 407.921 596.895 408.106 595.073 409.134C593.587 409.098 591.935 408.932 590.621 408.266C589.187 407.539 589.147 406.995 588.956 405.736C589.616 403.687 591.297 402.89 593.221 401.665Z" fill="#6D3A22"/>
<path d="M592.877 375.27C594.847 375.878 597.5 376.622 599.133 377.748C600.595 378.758 600.618 379.304 600.959 380.784C600.33 383.03 598.513 384.44 596.744 386.094L595.662 386.478C594.316 386.346 592.792 386.267 591.627 385.623C590.411 384.95 589.657 383.833 589.43 382.633C588.823 379.415 590.787 377.669 592.877 375.27Z" fill="#6D3A22"/>
<path d="M573.435 373.508C574.44 373.832 574.33 373.693 574.993 374.191C576.672 375.45 578.002 377.025 577.979 379.018C577.935 382.597 575.363 385.375 572.457 387.696C572.338 387.66 572.218 387.621 572.097 387.586C570.744 387.196 569.415 386.901 568.431 385.95C567.132 384.694 566.726 382.924 567.022 381.307C567.633 377.968 570.365 375.422 573.435 373.508Z" fill="#6D3A22"/>
<path d="M572.996 376.814C573.216 376.917 573.456 376.991 573.655 377.121C574.343 377.567 574.669 378.378 574.782 379.072C575.167 381.431 573.71 383.215 572.147 385.012C571.946 384.896 571.717 384.806 571.542 384.663C570.223 383.588 570.13 382.928 569.819 381.468C570.432 379.435 571.399 378.388 572.996 376.814Z" fill="#FEFEFE"/>
<path d="M578.48 446.65L576.902 445.012C575.42 445.079 574.346 445.512 572.993 445.99C571.755 445.035 572.019 444.375 571.843 443.019L572.387 442.073C575.491 442.305 579.936 444.089 582.633 441.89C584.24 440.581 585.361 438.452 587.591 437.926C591.457 439.669 589.535 442.092 595.689 443.176C596.049 444.667 595.704 446.182 595.508 447.679C594.371 447.139 593.346 446.834 592.094 446.537C588.347 447.504 584.723 447.776 581.118 446.024C578.646 444.824 582.487 446.087 579.522 445.209L578.48 446.65Z" fill="#6D3A22"/>
<path d="M992.46 230.844C996.74 231.113 999.276 234.113 1002.08 236.624C1000.47 245.4 1002.43 255.629 1002.84 264.559C1003.66 279.644 1003.88 294.736 1003.51 309.835C985.818 309.06 968.209 309.369 950.515 309.515C950.43 301.384 951.159 293.07 952.102 284.98C952.796 279.036 958.25 256.518 955.775 251.749C955.299 250.834 955.527 251.156 954.272 250.725L953.388 251.298C950.77 259.216 953.431 267.445 952.624 275.484C952.245 279.257 949.936 282.779 949.427 286.521C948.419 293.942 949.031 302.072 948.706 309.59C914.637 311.825 880.514 309.22 846.475 311.079C839.96 311.473 833.685 311.451 827.167 311.967C825.632 312.087 825.684 312.283 824.432 311.387L824.742 310.608C838.774 303.888 851.632 295.521 866.319 289.768C866.142 293.631 864.515 300.706 866.029 304.236L867.255 303.817C870.012 300.588 867.775 293.713 869.613 289.587C869.69 289.415 869.778 289.247 869.86 289.078C878.348 283.45 888.519 278.129 897.942 273.724C897.829 279.107 899.528 292.737 897.092 296.839C895.718 299.152 895.035 302.734 895.566 305.331C895.78 306.374 895.877 306.588 896.937 307.137C899.174 305.081 899.643 300.434 900.214 297.666L898.552 298.314L898.117 297.688C900.329 290.663 902.921 280.614 902.287 273.443L901.754 273.006C906.191 268.216 979.739 236.036 992.46 230.844Z" fill="#FEFEFE"/>
<path d="M811.769 332.222C812.055 333.301 812.097 334.417 812.983 335.241C813.783 330.22 813.292 324.953 815.363 320.112L816.183 319.625C817.359 321.273 816.904 322.837 816.474 324.637C817.767 325.015 817.77 325.253 819.104 324.798C819.284 322.989 819.132 320.294 820.361 318.782C821.413 319.538 821.739 319.802 821.929 321.07C822.419 324.31 820.78 340.975 820.609 345.577C820.24 355.404 820.614 365.216 820.432 375.044C820.252 384.745 819.529 394.431 819.352 404.131C819.043 421.097 819.834 438.028 819.611 454.99C819.534 460.821 820.089 466.677 819.221 472.478C809.767 473.763 799.361 475.181 789.798 475.073C779.366 474.956 769.031 473.551 758.587 473.866C762.219 456.922 768.232 440.369 771.449 423.29C775.045 404.192 773.301 384.509 771.011 365.392C769.388 358.182 768.056 350.782 764.958 343.912C763.753 341.522 762.299 339.211 760.931 336.887C761.823 336.606 762.642 336.219 763.489 335.852C765.034 334.42 764.914 332.87 765.063 331.035L765.987 330.991C766.143 329.192 765.973 328.252 767.203 326.753C769.055 326.099 769.854 326.11 771.762 326.344C774.333 329.19 770.257 352.457 771.622 359.017C772.789 348.982 773.857 338.891 775.462 328.9C775.753 327.085 775.633 326.165 777.396 325.043C779.322 325.449 778.872 326.872 780.31 328.009C780.44 327.075 780.545 326.159 780.599 325.22L780.64 324.364C782.586 323.094 786.033 323.11 788.433 322.849C787.757 330.375 786.709 338.219 787.495 345.743C788.521 339.486 788.505 331.335 791.272 325.558L791.88 325.643C792.394 326.972 792.89 328.186 793.703 329.413L794.416 328.655C794.535 326.791 794.36 325.375 793.849 323.562L790.502 322.499C792.679 321.224 796.08 320.743 798.623 320.109C798.521 323.471 797.937 328.04 800.007 331.023C800.468 328.123 800.619 322.089 803.368 320.141C804.871 321.459 804.79 324.154 804.895 325.928C805.675 338.91 804.438 352.317 804.114 365.332C803.857 375.667 804.439 385.975 804.287 396.307C804.226 400.499 802.952 416.085 804.759 419.398C807.332 416.043 805.47 343.19 807.962 330.844C807.991 330.696 808.026 330.548 808.058 330.401C809.003 329.254 809.847 328.147 810.63 326.91C810.911 328.719 811.258 330.448 811.769 332.222Z" fill="#FEFEFE"/>
<path d="M765.989 330.991C766.102 335.324 766.362 339.701 764.959 343.912C763.754 341.522 762.301 339.211 760.933 336.887C761.824 336.606 762.644 336.219 763.49 335.852C765.035 334.42 764.915 332.87 765.065 331.035L765.989 330.991Z" fill="#F8F8F5"/>
<path d="M783.787 414.678C783.85 410.036 783.386 382.556 784.766 380.38C787.036 387.024 785.391 395.504 785.322 402.371C785.201 414.307 785.159 426.119 784.58 438.058L784.169 438.278C782.809 433.852 783.033 429.357 781.795 424.978C780.657 420.968 782.168 418.391 783.787 414.678Z" fill="#F8F8F5"/>
<path d="M1042.17 310.72L1077.25 310.597C1076.81 325.221 1076.99 339.86 1076.54 354.482C1076.33 361.378 1075.17 368.282 1075.23 375.176L1075.65 429.593C1075.88 443.38 1076.81 457.514 1075.12 471.257C1075.02 472.079 1075.15 473.661 1074.32 474.098C1070.34 476.184 1059.27 474.598 1054.62 474.159C1047.21 473.457 1006.27 468.075 1003.35 464.966C1006.47 460.755 1005.57 454.556 1005.65 449.682C1006.33 439.081 1005.33 428.247 1005.67 417.588C1006.23 399.735 1008.04 381.531 1007.57 363.705C1007.39 356.619 1006.17 349.556 1005.75 342.476C1005.17 332.653 1005.48 322.706 1005.48 312.869C1015.5 312.664 1026.05 311.18 1036 311.793C1037.61 312.793 1038.24 313.597 1038.5 315.316C1039.09 319.185 1037.88 323.718 1037.54 327.637C1036.93 334.614 1037.01 341.639 1036.61 348.626C1036.4 352.323 1035.37 356.383 1035.68 360.037C1035.82 361.792 1035.98 363.277 1037.24 364.711C1038.09 362.536 1037.9 360.053 1037.99 357.78C1038.32 349.747 1038.45 341.555 1039.35 333.558C1040.22 325.764 1041.98 318.647 1042.17 310.72Z" fill="#FEFEFE"/>
<path d="M1133.83 308.223C1137.12 308.232 1144.12 307.515 1146.51 309.51C1148.61 311.271 1148.06 314.442 1148.4 316.744C1150.48 317.355 1152.46 318.036 1154.68 318.112C1154.03 326.24 1155.55 334.356 1154.96 342.377L1153.41 344.585C1153.78 351.443 1155.19 392.051 1157.14 395.58L1157.54 396.608C1154.33 402.715 1158.3 416.554 1153.43 419.156L1150.92 419.239C1150.91 421.001 1151.34 423.873 1150.25 425.393L1149.23 425.131C1148.73 428.019 1148.89 450.634 1149.82 453.299C1150 456.269 1151.14 462.927 1149.1 465.27C1148.6 465.85 1146.88 465.787 1146.06 465.873C1131.26 466.234 1116.67 469.17 1102.15 471.392C1094.4 472.577 1086.46 473.232 1078.64 474.032C1077.41 463.95 1077.72 454.055 1077.64 443.939C1077.55 432.417 1077.25 421.007 1077.41 409.475C1077.57 398.138 1076.39 386.772 1076.66 375.487C1076.85 367.668 1078.66 359.896 1079.11 352.08C1079.92 338.162 1079.86 324.244 1080.83 310.306C1090.12 309.861 1099.59 309.572 1108.89 309.652C1109.41 315.947 1108.84 322.173 1108.95 328.464C1109.17 341.141 1109.93 353.747 1110.95 366.388C1111.3 370.655 1111.13 374.859 1112.09 379.086C1112.38 369.098 1111.25 359.272 1111.28 349.326C1111.31 339.798 1112.64 330.599 1113.41 321.138C1113.71 317.297 1113.4 313.44 1113.69 309.572C1120.39 308.995 1127.11 308.546 1133.83 308.223Z" fill="#FEFEFE"/>
<path d="M1148.39 316.744C1150.48 317.355 1152.45 318.036 1154.68 318.112C1154.03 326.241 1155.54 334.356 1154.95 342.377L1153.4 344.585C1152.9 341.015 1152.49 337.427 1151.67 333.9C1148.12 354.256 1150.65 374.747 1151.03 395.245C1151.18 403.23 1149.87 410.722 1150.85 418.77L1150.91 419.239C1150.9 421.001 1151.33 423.873 1150.25 425.393L1149.22 425.131C1149.02 404.582 1148.34 384.032 1148.41 363.48C1148.46 347.924 1149.54 332.27 1148.39 316.744Z" fill="#9A795E"/>
<path d="M1150.92 419.238L1150.86 418.769C1149.88 410.722 1151.19 403.229 1151.04 395.244C1150.65 374.747 1148.12 354.255 1151.67 333.9C1152.5 337.426 1152.91 341.014 1153.41 344.585C1153.78 351.443 1155.19 392.051 1157.14 395.58L1157.53 396.608C1154.32 402.715 1158.3 416.554 1153.43 419.156L1150.92 419.238Z" fill="url(#paint1_linear_60_5)"/>
<path d="M825.57 315.803C836.422 314.103 847.947 313.918 858.965 313.831C860.705 331.878 857.033 350.418 859.615 368.387C861.25 362.021 860.473 354.776 860.725 348.242C861.25 337.037 861.88 325.837 862.615 314.64C869.697 314.498 889.585 313.33 895.194 315.942C896.763 317.401 896.816 319.604 897.017 321.489C897.753 328.377 896.826 335.618 896.761 342.551C896.707 348.408 897.392 354.252 897.344 360.102C897.311 364.024 896.225 368.143 896.911 372.003C898.434 371.749 898.204 371.537 899.026 370.497C897.989 362.193 898.97 354.035 899.159 345.724C899.305 335.621 899.252 325.518 898.999 315.416C909.945 313.773 922.072 314.085 933.181 314.193C934.005 331.088 934.898 347.855 935.243 364.778C937.732 364.672 941.287 364.892 943.141 363.274L943.024 361.893C940.828 359.468 939.416 357.32 938.128 354.463L937.73 353.569C941.18 353.382 944.807 353.251 947.935 351.909C947.55 350.23 942.243 350.213 940.95 348.518C941.117 348.402 941.269 348.269 941.448 348.167C952.437 341.956 961.042 352.872 970.22 354.881C970.446 354.93 970.671 354.972 970.897 355.018C969.134 356.33 967.276 357.534 965.323 358.631C954.936 364.577 947.906 367.428 935.234 365.285C935.099 370.09 934.823 374.917 935.303 379.71C936.241 383.016 934.742 387.844 936.401 390.599L937.536 390.963C937.832 393.58 937.944 396.217 939.332 398.616C938.393 400.188 937.742 401.717 935.863 402.619L934.137 402.739C934.014 403.715 933.928 404.695 933.803 405.671C933.089 411.253 936.446 420.784 937.072 426.923C937.881 435.004 938.458 443.095 938.802 451.199C938.984 455.215 938.381 460.253 939.444 464.105L942.526 464.4L942.708 464.946C932.418 472.358 909.837 467.149 897.424 466.599C896.948 451.117 898.263 435.478 898.19 419.971C896.502 423.523 897.869 427.578 897.215 431.344C896.317 436.52 896.632 441.649 896.471 446.867C896.198 453.318 895.885 459.768 895.53 466.217C883.586 465.451 871.997 466.145 860.093 466.844C858.535 442.75 859.785 418.377 859.611 394.231C859.562 387.365 860.565 380.208 859.841 373.409L859.351 373.366C858.541 374.267 858.707 374.864 858.856 375.946C859.267 378.935 858.492 381.588 858.796 384.454C859.676 392.742 858.194 401.197 858.112 409.508C857.922 428.623 858.372 447.832 857.9 466.942C846.243 469.065 834.326 470.236 822.622 472.299C823.773 459.034 821.805 445.25 822.047 431.896C822.475 408.413 823.648 384.894 824.414 361.414C824.912 346.177 824.682 331.06 825.57 315.803Z" fill="#FEFEFE"/>
<path d="M935.304 379.71C936.242 383.016 934.743 387.844 936.401 390.599L937.537 390.963C937.833 393.58 937.945 396.217 939.333 398.616C938.393 400.187 937.743 401.717 935.864 402.619L934.137 402.739C935.356 395.2 935.224 387.309 935.304 379.71Z" fill="#6D3A22"/>
</g>
</g>
<defs>
<linearGradient id="paint0_linear_60_5" x1="742.478" y1="424.972" x2="742.946" y2="404.743" gradientUnits="userSpaceOnUse">
<stop stop-color="#538E56"/>
<stop offset="1" stop-color="#2DA16F"/>
</linearGradient>
<linearGradient id="paint1_linear_60_5" x1="1139" y1="376.605" x2="1165.45" y2="385.654" gradientUnits="userSpaceOnUse">
<stop stop-color="#D3D3D5"/>
<stop offset="1" stop-color="white"/>
</linearGradient>
<clipPath id="clip0_60_5">
<rect width="1440" height="507" fill="white"/>
</clipPath>
<clipPath id="clip1_60_5">
<rect width="1090" height="522" fill="white" transform="translate(175 15)"/>
</clipPath>
</defs>
</svg>
